<svg width="591" height="500" viewBox="0 0 591 500" fill="none" xmlns="http://www.w3.org/2000/svg">
<rect width="591" height="500" rx="16" fill="white"/>
<g clip-path="url(#clip0_104_2814)">
<path d="M75.1342 49.628C75.3696 52.1884 74.8541 54.1323 74.5152 55.4315C74.3716 55.9767 74.2115 56.503 74.0444 57.0127C73.5626 58.4204 72.952 59.78 72.2202 61.0737C71.1233 63.0397 69.7536 64.8384 68.1528 66.4149C62.2376 72.0808 55.0608 72.6735 53.0036 72.7209H52.6882C49.6546 72.682 46.6544 72.0768 43.84 70.9358L43.6376 70.8528C41.3083 69.8932 39.159 68.5397 37.2823 66.8511C34.7879 64.5745 32.8174 61.7766 31.5084 58.6532C30.652 56.5794 30.1031 54.39 29.8795 52.1552C29.8784 52.1457 29.8784 52.1362 29.8795 52.1267C29.8795 52.1267 29.8795 52.1078 29.8795 52.0983C29.7618 50.8548 29.7453 49.6036 29.8301 48.3573C27.4657 46.5663 25.6915 44.0995 24.7388 41.2784C23.0534 36.2075 24.6729 31.8502 25.4449 30.2097L26.8431 27.2558L27.6481 30.4254C27.8352 31.2027 28.186 31.9303 28.6767 32.5591C28.9962 32.9677 29.3971 33.3044 29.8536 33.5476C30.4286 33.8707 30.9548 34.2746 31.4166 34.7472C33.3137 36.7078 33.6692 39.2847 33.7351 40.15C34.8367 39.4151 35.9288 39.2657 36.8986 39.133C37.8714 39.0011 38.8582 39.0155 39.8268 39.1756C40.4986 39.293 41.184 39.309 41.8605 39.2231C42.6767 39.1039 43.4661 38.8424 44.1931 38.4502L46.8835 37.0278L45.8502 39.9106C45.2084 41.7005 44.2648 43.3654 43.0609 44.8321C41.8464 46.3067 39.815 48.7769 36.3596 49.4621C35.1359 49.6972 33.8786 49.6916 32.657 49.4455C32.7512 50.7517 33.1584 52.6364 34.6107 53.8123C36.2348 55.1304 38.3768 54.9313 38.777 54.8791C41.7781 54.4903 43.2492 51.278 44.9769 47.556C46.4952 44.2679 48.1759 40.6241 51.2735 38.2653L48.8514 36.3498L60.0344 22L74.2821 33.2631L69.5745 39.2942C70.4063 39.9276 71.1617 40.6573 71.8247 41.4681C73.6904 43.8071 74.8402 46.6424 75.1342 49.628ZM71.8177 56.2209C72.0907 55.2323 72.4438 53.9024 72.1755 52.2642C71.9794 51.0976 71.5213 49.9917 70.8361 49.0306C68.398 49.4497 65.8995 49.3464 63.504 48.7272C62.2056 48.3836 60.952 47.8879 59.7685 47.2502C58.7328 47.6575 57.7454 48.1791 56.8238 48.8054C55.9772 49.385 55.1889 50.0464 54.47 50.7802C54.8725 52.6103 56.4425 57.8685 61.5315 60.3459C63.9371 61.48 66.6317 61.8385 69.2473 61.3724C70.3237 59.7758 71.188 58.0437 71.8177 56.2209ZM71.7635 46.4205L72.1637 46.8946C71.6788 45.4687 70.9524 44.138 70.017 42.9616C69.462 42.2855 68.83 41.6776 68.1339 41.1504C67.5031 40.6693 66.8321 40.2441 66.1285 39.8797C63.7083 38.624 61.0021 38.0335 58.2832 38.1681V40.892H55.9294V38.5522C55.814 38.5806 55.694 38.6138 55.5881 38.6517C55.2778 38.7476 54.973 38.86 54.6748 38.9884C54.1633 39.2077 53.6732 39.4744 53.2107 39.7849C50.2543 41.7431 48.6608 45.1948 47.1142 48.5565C45.2735 52.5463 43.3693 56.6737 39.0806 57.2285C38.3439 57.3256 35.9524 57.4963 33.7892 56.1284C34.3711 56.9895 35.1197 57.7232 35.99 58.2858C37.3295 59.1015 38.877 59.5038 40.4411 59.4427C40.62 59.4427 40.7989 59.4237 40.806 59.4237C41.642 59.3334 42.4613 59.125 43.2398 58.805C45.0217 58.044 46.9895 55.9601 47.0177 55.9269C48.203 54.6752 49.3135 53.354 50.3438 51.9703C50.9588 51.1204 51.6327 50.3155 52.361 49.5616L52.4763 49.4431C53.3908 48.4747 54.4029 47.6046 55.4963 46.8472C56.7287 46.0106 58.0624 45.3358 59.4648 44.8392L59.5519 44.8084L59.9732 44.6567L60.444 44.9293C61.5731 45.5851 62.7832 46.0881 64.043 46.4252L64.0924 46.4394C66.3773 47.0307 68.7676 47.0776 71.0739 46.5769L71.7635 46.4205ZM67.6114 37.9974L70.9868 33.6638L60.4417 25.3284L58.2903 28.0903V35.8069C61.5376 35.6645 64.7616 36.4222 67.6114 37.9974ZM67.263 63.9328H66.9688C64.7367 63.9451 62.5309 63.4482 60.517 62.4795C55.6469 60.1088 53.5049 55.6425 52.6105 52.8806L52.2174 53.3927C51.25 54.693 50.2162 55.9416 49.1198 57.1336C49.3716 58.7599 50.3955 62.9276 54.3829 65.533C58.102 67.9629 62.0022 67.4414 63.3722 67.1474C64.5034 66.4376 65.56 65.6138 66.5263 64.689C66.6675 64.561 66.9264 64.2978 67.263 63.9328ZM54.2888 70.2625C55.5674 70.1252 56.8316 69.8744 58.0667 69.5134C56.2985 69.1819 54.6117 68.5046 53.1024 67.5196C49.3363 65.0517 47.7663 61.4269 47.1307 59.0515C46.4307 59.6508 45.6748 60.1804 44.8734 60.6328C44.911 62.0552 45.3065 65.1039 47.7498 67.5078C49.5129 69.2139 51.8446 70.1964 54.2888 70.2625ZM55.9364 36.1246V31.1082L52.1703 35.9468L53.4484 36.9567C53.552 36.9069 53.6556 36.8595 53.7615 36.8144C54.4632 36.5153 55.1915 36.2835 55.9364 36.1222V36.1246ZM46.168 69.2763L46.1044 69.217C44.0481 67.1593 42.7949 64.4256 42.5737 61.5147C42.0565 61.6467 41.5301 61.7387 40.999 61.7897C40.999 61.7897 40.7636 61.8062 40.5282 61.8157H40.1751C40.0033 61.8157 39.8221 61.8157 39.6361 61.8039C39.9657 63.6478 40.8071 65.3599 42.0629 66.742C42.8247 67.5642 43.7263 68.2424 44.7251 68.7453C45.2131 68.9413 45.6941 69.1182 46.168 69.2763ZM42.5148 41.5155L42.1924 41.5653C41.3068 41.6823 40.409 41.6671 39.5278 41.5203C38.7661 41.39 37.9894 41.3756 37.2234 41.4776C36.3667 41.5938 35.6252 41.6957 34.9426 42.1888C34.26 42.6819 33.8434 43.4476 33.5868 43.9336C33.3891 44.3129 32.8642 45.3205 31.8261 44.9506C31.572 44.8684 31.3533 44.7015 31.2057 44.4775C31.0582 44.2535 30.9906 43.9857 31.0141 43.7179C31.0216 43.4307 31.0611 43.1452 31.1318 42.8668C31.3405 42.0538 31.4309 41.2145 31.4001 40.3752C31.3742 39.9722 31.1647 37.8741 29.7524 36.3972C29.4324 36.0719 29.0668 35.7956 28.6673 35.5769C27.965 35.1904 27.347 34.6656 26.8502 34.0336C26.796 33.9649 26.7442 33.8985 26.6924 33.8274C26.1703 36.0428 26.2706 38.3609 26.982 40.5222C27.811 42.9682 29.3737 45.0946 31.4542 46.6078L31.925 46.7761C33.2028 47.2547 34.5852 47.3778 35.9265 47.1317C38.5581 46.6125 40.1893 44.6282 41.2673 43.3172C41.729 42.7503 42.1462 42.1479 42.5148 41.5155ZM37.6471 63.5866C37.4289 62.8752 37.2714 62.1464 37.1764 61.408C36.9857 61.3534 36.7903 61.2894 36.595 61.2183C36.595 61.2562 36.6162 61.2918 36.6279 61.3297C36.8832 62.118 37.2251 62.875 37.6471 63.5866Z" fill="#0C1C44"/>
<path d="M74.04 57.0127C73.6291 58.4477 73.0147 59.8153 72.2158 61.0737C72.9476 59.78 73.5582 58.4204 74.04 57.0127Z" fill="black"/>
<path d="M72.1757 52.2643C72.444 53.9024 72.091 55.2324 71.8179 56.2209C71.1906 58.0435 70.3289 59.7753 69.2546 61.3724C66.6393 61.8385 63.9446 61.4801 61.5388 60.3459C56.4427 57.8686 54.8727 52.6104 54.4773 50.7802C55.1964 50.0465 55.9847 49.385 56.8311 48.8054C57.7529 48.1791 58.7403 47.6575 59.7758 47.2502C60.9595 47.888 62.2131 48.3837 63.5113 48.7272C65.9049 49.3455 68.4006 49.4488 70.8364 49.0306C71.5218 49.9917 71.9799 51.0976 72.1757 52.2643Z" fill="#0FB7A6"/>
<path d="M72.1638 46.9017L71.7637 46.4276L71.0716 46.577C68.7654 47.0776 66.3751 47.0307 64.0902 46.4395L64.0408 46.4252C62.781 46.0881 61.5709 45.5851 60.4418 44.9294L59.971 44.6567L59.5497 44.8084L59.4626 44.8393C58.0602 45.3358 56.7267 46.0106 55.494 46.8472C54.4019 47.6025 53.3907 48.4702 52.4764 49.436L52.3611 49.5545C51.6328 50.3108 50.9587 51.118 50.3439 51.9703C49.3162 53.3564 48.208 54.68 47.025 55.9341C46.9967 55.9673 45.0289 58.0511 43.2471 58.8121C42.4686 59.1321 41.6493 59.3405 40.8132 59.4308C40.8132 59.4308 40.6273 59.4451 40.4484 59.4498C38.8844 59.5084 37.3377 59.1037 35.9997 58.2858C35.1293 57.7232 34.3808 56.9895 33.7988 56.1285C35.962 57.4964 38.3535 57.3138 39.0902 57.2285C43.3789 56.6737 45.2831 52.5464 47.1238 48.5565C48.6703 45.2044 50.2638 41.7526 53.2202 39.785C53.6828 39.4744 54.1728 39.2078 54.6843 38.9884C54.9826 38.86 55.2874 38.7476 55.5976 38.6518C55.7106 38.6138 55.833 38.5806 55.9389 38.5522V40.8921H58.2927V38.1776C61.0079 38.0418 63.7105 38.6289 66.1286 39.8798C66.8315 40.2435 67.5016 40.6679 68.1317 41.1481C68.8277 41.6753 69.46 42.2832 70.0148 42.9593C70.9521 44.1384 71.6792 45.4723 72.1638 46.9017ZM55.2469 42.7815C55.2469 42.4219 55.141 42.0703 54.9425 41.7713C54.7441 41.4723 54.4624 41.2392 54.1324 41.1016C53.8026 40.964 53.4394 40.928 53.0894 40.9981C52.7391 41.0683 52.4174 41.2415 52.1648 41.4958C51.9125 41.75 51.7404 42.074 51.6707 42.4268C51.6011 42.7795 51.6368 43.1451 51.7736 43.4774C51.9101 43.8096 52.1415 44.0936 52.4385 44.2934C52.7354 44.4932 53.0844 44.5998 53.4415 44.5998C53.9203 44.5998 54.3795 44.4083 54.718 44.0673C55.0567 43.7263 55.2469 43.2638 55.2469 42.7815Z" fill="#00E8D7"/>
<path d="M70.9871 33.6637L67.6117 37.9973C64.7619 36.4221 61.5379 35.6645 58.2905 35.8068V28.0902L60.4419 25.3284L70.9871 33.6637Z" fill="#0FB7A6"/>
<path d="M66.9689 63.9352H67.2631C66.9265 64.3051 66.6676 64.5635 66.5264 64.6986C65.5604 65.6234 64.5035 66.4472 63.3723 67.157C62.0023 67.451 58.1021 67.9725 54.383 65.5426C50.3956 62.9348 49.3717 58.7695 49.1199 57.1432C50.2165 55.9482 51.2503 54.6964 52.2175 53.3928L52.6106 52.876C53.505 55.6378 55.647 60.1089 60.5171 62.4749C62.5305 63.4462 64.7363 63.9454 66.9689 63.9352Z" fill="#0FB7A6"/>
<path d="M58.0668 69.5134C56.8315 69.8714 55.5673 70.1189 54.2889 70.2531C51.8463 70.1903 49.5146 69.2121 47.75 67.5102C45.3066 65.104 44.9112 62.0576 44.8735 60.6352C45.6749 60.1829 46.4309 59.6533 47.1309 59.054C47.7665 61.4246 49.3247 65.0542 53.1026 67.5221C54.6121 68.5061 56.2986 69.1827 58.0668 69.5134Z" fill="#0FB7A6"/>
<path d="M55.9366 31.1082V36.1198C55.19 36.2816 54.4603 36.5142 53.757 36.8144C53.651 36.8594 53.5475 36.9069 53.4439 36.9566L52.1658 35.9467L55.9366 31.1082Z" fill="#0FB7A6"/>
<path d="M53.4416 40.9607C53.7994 40.9602 54.1489 41.0666 54.4467 41.2664C54.7442 41.4661 54.9763 41.7503 55.1135 42.083C55.2505 42.4156 55.2868 42.7818 55.2173 43.1351C55.1479 43.4885 54.9758 43.8131 54.723 44.068C54.4705 44.3228 54.1482 44.4965 53.7975 44.5669C53.4468 44.6374 53.0831 44.6014 52.7526 44.4637C52.4224 44.326 52.1399 44.0926 51.9411 43.7931C51.7424 43.4937 51.6362 43.1416 51.6362 42.7814C51.636 42.5424 51.6824 42.3057 51.773 42.0848C51.8636 41.8639 51.9966 41.6632 52.1642 41.4941C52.3318 41.325 52.5309 41.1909 52.7503 41.0993C52.9694 41.0078 53.2043 40.9607 53.4416 40.9607Z" fill="#0C1C44"/>
<path d="M46.1048 69.2147L46.1684 69.274C45.6976 69.1159 45.2151 68.9404 44.7208 68.7477C43.722 68.2449 42.8205 67.5666 42.0586 66.7445C40.8028 65.3623 39.9613 63.6502 39.6318 61.8063C39.8178 61.8063 39.999 61.8182 40.1709 61.8182H40.5239C40.7593 61.8182 40.9947 61.7921 40.9947 61.7921C41.5258 61.7411 42.0522 61.6491 42.5694 61.5171C42.793 64.4271 44.0478 67.1591 46.1048 69.2147Z" fill="#0FB7A6"/>
<path d="M43.8401 70.9358V70.9524C43.7742 70.9192 43.7083 70.8883 43.6448 70.8528L43.8401 70.9358Z" fill="black"/>
<path d="M42.1926 41.5654L42.5151 41.5156C42.1427 42.1492 41.7217 42.7524 41.2558 43.3197C40.1777 44.6307 38.5465 46.615 35.9149 47.1342C34.5736 47.3802 33.1913 47.2572 31.9134 46.7786L31.4427 46.6102C29.3622 45.0971 27.7995 42.9707 26.9704 40.5247C26.259 38.3633 26.1588 36.0453 26.6809 33.8298C26.7327 33.901 26.7845 33.9673 26.8386 34.0361C27.3355 34.668 27.9534 35.1929 28.6558 35.5794C29.0552 35.7981 29.4208 36.0744 29.7409 36.3997C31.172 37.8766 31.3744 39.9747 31.3885 40.3777C31.4194 41.2169 31.329 42.0562 31.1202 42.8693C31.0495 43.1476 31.0101 43.4331 31.0025 43.7204C30.979 43.9881 31.0466 44.256 31.1942 44.48C31.3417 44.704 31.5605 44.8708 31.8146 44.9531C32.8526 45.3229 33.3775 44.3154 33.5752 43.9361C33.8318 43.4501 34.2178 42.7104 34.9311 42.1913C35.6443 41.6721 36.3551 41.5938 37.2119 41.48C37.9778 41.3781 38.7546 41.3925 39.5163 41.5227C40.4014 41.6699 41.3033 41.6843 42.1926 41.5654Z" fill="#00E8D7"/>
<path d="M37.1763 61.3962C37.2714 62.1347 37.4289 62.8634 37.6471 63.5749C37.2291 62.8625 36.8912 62.1055 36.6396 61.318C36.6279 61.28 36.6161 61.2445 36.6067 61.2065C36.7997 61.2777 36.9951 61.3417 37.1763 61.3962Z" fill="#0FB7A6"/>
<path d="M90.9073 64.6654L85.5359 44.7801H91.0791L94.1391 58.1341H94.318L97.5051 44.7729H102.942L106.181 58.0488H106.348L109.357 44.7729H114.883L109.524 64.6583H103.722L100.33 52.16H100.094L96.7001 64.6654H90.9073Z" fill="#0C1C44"/>
<path d="M126.215 65.0542C124.219 65.0542 122.492 64.6244 121.036 63.7645C119.594 62.9175 118.428 61.6674 117.677 60.1658C116.863 58.4985 116.46 56.6584 116.5 54.801C116.5 52.7463 116.893 50.9486 117.677 49.4076C118.43 47.9053 119.6 46.6546 121.043 45.8066C122.493 44.9484 124.219 44.5193 126.222 44.5193C128.224 44.5193 129.95 44.9484 131.4 45.8066C132.841 46.655 134.008 47.9046 134.761 49.4053C135.546 50.9462 135.938 52.7439 135.938 54.7986C135.98 56.6563 135.576 58.4966 134.761 60.1635C134.01 61.6651 132.842 62.9149 131.4 63.7622C129.941 64.622 128.212 65.0525 126.215 65.0542ZM126.24 60.787C127.069 60.814 127.879 60.535 128.517 60.0023C129.159 59.4288 129.636 58.6917 129.898 57.8686C130.523 55.854 130.523 53.6958 129.898 51.6811C129.636 50.854 129.159 50.1125 128.517 49.5333C127.88 48.997 127.07 48.7161 126.24 48.7439C125.402 48.7168 124.582 48.9973 123.934 49.5333C123.277 50.1058 122.788 50.8486 122.521 51.6811C121.897 53.6958 121.897 55.854 122.521 57.8686C122.789 58.697 123.277 59.4352 123.934 60.0023C124.585 60.5328 125.403 60.8097 126.24 60.7822V60.787Z" fill="#0C1C44"/>
<path d="M148.425 65.0542C146.429 65.0542 144.703 64.6244 143.247 63.7645C141.804 62.9173 140.637 61.6674 139.885 60.1658C139.101 58.6249 138.708 56.8367 138.708 54.801C138.708 52.7653 139.101 50.9676 139.885 49.4076C140.639 47.9056 141.808 46.655 143.251 45.8066C144.705 44.9484 146.431 44.5193 148.43 44.5193C150.429 44.5193 152.155 44.9484 153.608 45.8066C155.049 46.655 156.216 47.9046 156.969 49.4053C157.754 50.9462 158.146 52.7439 158.146 54.7986C158.146 56.8533 157.754 58.6415 156.969 60.1635C156.218 61.6651 155.05 62.9149 153.608 63.7622C152.15 64.622 150.423 65.0525 148.425 65.0542ZM148.451 60.787C149.279 60.814 150.089 60.535 150.727 60.0023C151.369 59.4288 151.847 58.6917 152.109 57.8686C152.734 55.854 152.734 53.6958 152.109 51.6811C151.846 50.854 151.369 50.1125 150.727 49.5333C150.091 48.997 149.28 48.7161 148.451 48.7439C147.613 48.7168 146.793 48.9973 146.144 49.5333C145.487 50.1058 144.999 50.8486 144.732 51.6811C144.104 53.6953 144.104 55.8545 144.732 57.8686C144.999 58.697 145.488 59.4352 146.144 60.0023C146.795 60.5328 147.614 60.8097 148.451 60.7822V60.787Z" fill="#0C1C44"/>
<path d="M161.715 72.1211V44.7799H167.108V48.1202H167.343C167.618 47.5295 167.97 46.9785 168.391 46.4821C168.886 45.8949 169.499 45.4193 170.189 45.0858C171.056 44.6825 172.005 44.4893 172.959 44.5215C174.367 44.512 175.749 44.9049 176.944 45.6547C178.161 46.4086 179.133 47.5434 179.861 49.059C180.589 50.5746 180.953 52.4712 180.953 54.7487C180.953 56.9612 180.6 58.8317 179.894 60.3601C179.291 61.7683 178.297 62.9709 177.031 63.8237C175.818 64.6055 174.404 65.0128 172.964 64.9948C172.034 65.0228 171.109 64.8412 170.257 64.4638C169.566 64.1475 168.947 63.6916 168.438 63.1243C167.999 62.6355 167.636 62.0834 167.36 61.4862H167.192V72.1211H161.715ZM167.077 54.7226C167.056 55.7747 167.221 56.8223 167.564 57.8164C167.836 58.6198 168.325 59.3308 168.977 59.8694C169.634 60.3466 170.424 60.6022 171.234 60.5995C172.044 60.5969 172.832 60.3364 173.487 59.8551C174.141 59.3116 174.631 58.5935 174.899 57.7832C175.537 55.8041 175.537 53.6719 174.899 51.6929C174.627 50.8913 174.138 50.1827 173.487 49.647C172.827 49.1719 172.037 48.9144 171.225 48.9097C170.414 48.9049 169.621 49.1534 168.955 49.6209C168.306 50.1469 167.816 50.847 167.543 51.6407C167.206 52.6317 167.049 53.6755 167.077 54.7226Z" fill="#0C1C44"/>
<path d="M132.549 76.8934H131.859C128.01 76.7915 124.221 75.9044 120.721 74.2857L122.592 70.1938C125.521 71.5534 128.694 72.2983 131.917 72.3832C135.141 72.4678 138.348 71.8908 141.343 70.687L142.99 74.8712C139.67 76.209 136.126 76.8953 132.549 76.8934Z" fill="#000B3A"/>
</g>
<defs>
<clipPath id="clip0_104_2814">
<rect width="157" height="55" fill="white" transform="translate(24 22)"/>
</clipPath>
</defs>
</svg>
