<svg width="235" height="85" viewBox="0 0 235 85" fill="none" xmlns="http://www.w3.org/2000/svg">
<g clip-path="url(#clip0_529_2023)">
<path d="M115.913 8.08227C117.303 7.58227 118.883 7.32227 120.653 7.32227C121.743 7.32227 122.813 7.45227 123.883 7.70227C124.953 7.95227 125.903 8.35227 126.733 8.89227C127.563 9.43227 128.233 10.1323 128.743 10.9823C129.253 11.8423 129.503 12.8923 129.503 14.1323C129.503 15.7423 129.173 17.0823 128.513 18.1423C127.853 19.2023 127.023 19.9523 126.043 20.3823C127.503 20.9523 128.623 22.0423 129.403 23.6623C130.183 25.2723 130.573 27.1423 130.573 29.2623C130.573 30.3723 130.433 31.4523 130.163 32.5123C129.893 33.5723 129.473 34.5223 128.913 35.3623C128.353 36.2023 127.643 36.9223 126.773 37.5023C125.903 38.0923 124.883 38.4723 123.693 38.6323C123.183 38.7023 122.643 38.7623 122.063 38.8123C121.483 38.8623 120.903 38.8923 120.333 38.8923C119.653 38.8923 118.953 38.8623 118.223 38.7923C117.493 38.7223 116.793 38.5923 116.113 38.3923C116.113 37.8223 116.113 36.8323 116.083 35.4223C116.053 34.0123 116.043 32.3623 116.003 30.4823C115.973 28.6023 115.943 26.5923 115.923 24.4523C115.903 22.3223 115.893 20.2223 115.893 18.1723C115.893 16.1223 115.893 14.2023 115.863 12.4223C115.843 10.6423 115.863 9.19227 115.893 8.08227H115.913ZM120.653 18.6223C121.673 18.6223 122.553 18.3023 123.303 17.6623C124.053 17.0223 124.423 16.0623 124.423 14.7923C124.423 14.3223 124.303 13.9323 124.063 13.6123C123.823 13.2923 123.523 13.0423 123.143 12.8523C122.773 12.6723 122.353 12.5623 121.893 12.5523C121.433 12.5323 120.983 12.5823 120.543 12.6823V14.0423C120.543 14.5823 120.543 15.1323 120.563 15.7023C120.583 16.2723 120.593 16.8223 120.613 17.3423C120.633 17.8623 120.643 18.2923 120.643 18.6323L120.653 18.6223ZM120.753 23.5123V26.3823C120.753 27.2223 120.753 28.0223 120.783 28.7823C120.803 29.5423 120.813 30.2823 120.813 31.0223V33.4423C121.623 33.4423 122.313 33.3023 122.873 33.0123C123.433 32.7223 123.893 32.3623 124.253 31.9323C124.613 31.4923 124.863 31.0023 125.013 30.4423C125.163 29.8923 125.243 29.3423 125.243 28.8023C125.243 27.7223 125.133 26.8323 124.913 26.1323C124.693 25.4223 124.383 24.8823 123.993 24.4923C123.603 24.1023 123.123 23.8323 122.563 23.6823C122.003 23.5323 121.403 23.4723 120.753 23.5023V23.5123Z" fill="white"/>
<path d="M135.633 8.18227C136.343 7.98227 137.123 7.88227 137.973 7.88227C139.063 7.88227 140.083 8.08227 141.033 8.48227C140.833 10.0623 140.613 11.7423 140.393 13.5223C140.173 15.3023 140.003 17.0823 139.883 18.8623C139.763 20.6423 139.712 22.3623 139.732 24.0023C139.752 25.6523 139.873 27.1323 140.113 28.4423C140.383 29.8523 140.743 31.0523 141.183 32.0523C141.623 33.0423 142.253 33.5423 143.062 33.5423C143.983 33.5423 144.673 33.0323 145.153 32.0023C145.633 30.9723 145.963 29.7223 146.173 28.2423C146.343 26.7323 146.432 25.1223 146.452 23.4223C146.472 21.7223 146.423 20.0023 146.323 18.2523C146.223 16.5023 146.073 14.7823 145.893 13.0823C145.703 11.3823 145.472 9.79227 145.202 8.32227C145.712 8.12227 146.253 7.98227 146.833 7.92227C147.413 7.85227 147.972 7.82227 148.512 7.82227C149.022 7.82227 149.463 7.84227 149.833 7.87227C150.203 7.90227 150.423 7.94227 150.493 7.97227C150.833 9.38227 151.113 11.0923 151.333 13.0923C151.553 15.0923 151.712 17.1523 151.812 19.2723C151.913 21.3923 151.943 23.4423 151.893 25.4223C151.843 27.4023 151.693 29.0823 151.463 30.4623C151.263 31.6723 150.963 32.8023 150.573 33.8623C150.183 34.9223 149.663 35.8423 149.023 36.6323C148.373 37.4223 147.583 38.0523 146.653 38.5223C145.723 38.9923 144.592 39.2323 143.262 39.2323C141.932 39.2323 140.733 38.9923 139.743 38.5023C138.763 38.0123 137.933 37.3423 137.273 36.4823C136.613 35.6223 136.083 34.6323 135.693 33.5023C135.303 32.3723 135.003 31.1923 134.803 29.9523C134.563 28.3023 134.443 26.5123 134.443 24.5823C134.443 22.6523 134.513 20.7123 134.643 18.7623C134.783 16.8123 134.942 14.9223 135.122 13.0923C135.312 11.2623 135.473 9.62227 135.603 8.17227L135.633 8.18227Z" fill="white"/>
<path d="M156.512 7.98213C157.842 7.78213 159.043 7.68213 160.133 7.68213C162.543 7.68213 164.573 8.08213 166.223 8.86213C167.873 9.65213 169.213 10.7321 170.243 12.1121C171.283 13.4921 172.022 15.1121 172.482 16.9821C172.942 18.8521 173.173 20.8521 173.173 23.0121C173.173 24.4621 173.032 25.9921 172.762 27.6221C172.492 29.2521 172.023 30.8021 171.363 32.2621C170.703 33.7221 169.823 35.0021 168.743 36.0921C167.653 37.1821 166.283 37.9321 164.613 38.3321C163.223 38.6721 161.842 38.8321 160.482 38.8321C159.702 38.8321 158.992 38.7921 158.342 38.7021C157.692 38.6221 157.082 38.5121 156.512 38.3721C156.512 35.4821 156.493 32.7621 156.463 30.2021C156.433 27.6521 156.413 25.1521 156.413 22.7121C156.413 20.2721 156.413 17.8521 156.443 15.4521C156.463 13.0521 156.483 10.5521 156.523 7.96213L156.512 7.98213ZM162.012 32.0821C162.722 32.1121 163.353 31.9821 163.893 31.6821C164.433 31.3821 164.913 30.9721 165.323 30.4721C165.733 29.9721 166.072 29.3921 166.342 28.7621C166.612 28.1221 166.843 27.4721 167.033 26.7921C167.223 26.1221 167.343 25.4521 167.413 24.8021C167.483 24.1421 167.512 23.5521 167.512 23.0121C167.512 22.1421 167.423 21.1721 167.253 20.1121C167.083 19.0521 166.773 18.0521 166.333 17.1121C165.893 16.1721 165.303 15.3821 164.573 14.7421C163.843 14.1021 162.913 13.7821 161.793 13.7821C161.823 14.0221 161.852 14.6421 161.872 15.6521C161.892 16.6621 161.903 17.8421 161.923 19.2021C161.943 20.5621 161.952 22.0021 161.952 23.5121V30.8521C161.952 31.6721 161.973 32.0921 162.003 32.0921L162.012 32.0821Z" fill="white"/>
<path d="M177.552 8.08227C178.942 7.58227 180.523 7.32227 182.293 7.32227C183.383 7.32227 184.453 7.45227 185.523 7.70227C186.593 7.95227 187.542 8.35227 188.372 8.89227C189.202 9.43227 189.873 10.1323 190.383 10.9823C190.893 11.8423 191.142 12.8923 191.142 14.1323C191.142 15.7423 190.813 17.0823 190.153 18.1423C189.493 19.2023 188.663 19.9523 187.683 20.3823C189.143 20.9523 190.263 22.0423 191.043 23.6623C191.823 25.2723 192.213 27.1423 192.213 29.2623C192.213 30.3723 192.073 31.4523 191.802 32.5123C191.532 33.5723 191.113 34.5223 190.552 35.3623C189.992 36.2023 189.283 36.9223 188.413 37.5023C187.543 38.0923 186.522 38.4723 185.332 38.6323C184.822 38.7023 184.282 38.7623 183.702 38.8123C183.122 38.8623 182.542 38.8923 181.972 38.8923C181.292 38.8923 180.592 38.8623 179.862 38.7923C179.132 38.7223 178.432 38.5923 177.752 38.3923C177.752 37.8223 177.752 36.8323 177.722 35.4223C177.692 34.0123 177.682 32.3623 177.642 30.4823C177.612 28.6023 177.582 26.5923 177.562 24.4523C177.542 22.3223 177.532 20.2223 177.532 18.1723C177.532 16.1223 177.532 14.2023 177.502 12.4223C177.482 10.6423 177.502 9.19227 177.532 8.08227H177.552ZM182.293 18.6223C183.313 18.6223 184.192 18.3023 184.942 17.6623C185.692 17.0223 186.062 16.0623 186.062 14.7923C186.062 14.3223 185.942 13.9323 185.702 13.6123C185.462 13.2923 185.162 13.0423 184.782 12.8523C184.412 12.6723 183.992 12.5623 183.532 12.5523C183.072 12.5323 182.623 12.5823 182.183 12.6823V14.0423C182.183 14.5823 182.182 15.1323 182.202 15.7023C182.222 16.2723 182.232 16.8223 182.252 17.3423C182.272 17.8623 182.282 18.2923 182.282 18.6323L182.293 18.6223ZM182.392 23.5123V26.3823C182.392 27.2223 182.392 28.0223 182.422 28.7823C182.442 29.5423 182.452 30.2823 182.452 31.0223V33.4423C183.262 33.4423 183.952 33.3023 184.512 33.0123C185.072 32.7223 185.532 32.3623 185.892 31.9323C186.252 31.4923 186.503 31.0023 186.653 30.4423C186.803 29.8923 186.883 29.3423 186.883 28.8023C186.883 27.7223 186.773 26.8323 186.552 26.1323C186.332 25.4223 186.023 24.8823 185.633 24.4923C185.243 24.1023 184.762 23.8323 184.202 23.6823C183.642 23.5323 183.042 23.4723 182.392 23.5023V23.5123Z" fill="white"/>
<path d="M197.273 8.18227C197.983 7.98227 198.763 7.88227 199.613 7.88227C200.703 7.88227 201.723 8.08227 202.673 8.48227C202.473 10.0623 202.253 11.7423 202.033 13.5223C201.813 15.3023 201.643 17.0823 201.523 18.8623C201.403 20.6423 201.353 22.3623 201.373 24.0023C201.393 25.6523 201.513 27.1323 201.753 28.4423C202.023 29.8523 202.383 31.0523 202.823 32.0523C203.263 33.0423 203.893 33.5423 204.703 33.5423C205.623 33.5423 206.313 33.0323 206.793 32.0023C207.273 30.9723 207.603 29.7223 207.813 28.2423C207.983 26.7323 208.073 25.1223 208.093 23.4223C208.113 21.7223 208.063 20.0023 207.963 18.2523C207.863 16.5023 207.713 14.7823 207.533 13.0823C207.343 11.3823 207.113 9.79227 206.843 8.32227C207.353 8.12227 207.893 7.98227 208.473 7.92227C209.053 7.85227 209.613 7.82227 210.153 7.82227C210.663 7.82227 211.103 7.84227 211.473 7.87227C211.843 7.90227 212.063 7.94227 212.133 7.97227C212.473 9.38227 212.753 11.0923 212.973 13.0923C213.193 15.0923 213.353 17.1523 213.453 19.2723C213.553 21.3923 213.583 23.4423 213.533 25.4223C213.483 27.4023 213.333 29.0823 213.103 30.4623C212.903 31.6723 212.603 32.8023 212.213 33.8623C211.823 34.9223 211.303 35.8423 210.663 36.6323C210.013 37.4223 209.223 38.0523 208.293 38.5223C207.363 38.9923 206.233 39.2323 204.903 39.2323C203.573 39.2323 202.373 38.9923 201.383 38.5023C200.403 38.0123 199.573 37.3423 198.913 36.4823C198.253 35.6223 197.723 34.6323 197.333 33.5023C196.943 32.3723 196.643 31.1923 196.443 29.9523C196.203 28.3023 196.083 26.5123 196.083 24.5823C196.083 22.6523 196.153 20.7123 196.283 18.7623C196.423 16.8123 196.583 14.9223 196.763 13.0923C196.953 11.2623 197.113 9.62227 197.243 8.17227L197.273 8.18227Z" fill="white"/>
<path d="M218.163 7.98213C219.493 7.78213 220.693 7.68213 221.783 7.68213C224.193 7.68213 226.222 8.08213 227.872 8.86213C229.522 9.65213 230.863 10.7321 231.893 12.1121C232.933 13.4921 233.673 15.1121 234.133 16.9821C234.593 18.8521 234.823 20.8521 234.823 23.0121C234.823 24.4621 234.683 25.9921 234.413 27.6221C234.143 29.2521 233.672 30.8021 233.012 32.2621C232.352 33.7221 231.473 35.0021 230.393 36.0921C229.303 37.1821 227.932 37.9321 226.262 38.3321C224.872 38.6721 223.493 38.8321 222.133 38.8321C221.353 38.8321 220.643 38.7921 219.993 38.7021C219.343 38.6221 218.733 38.5121 218.163 38.3721C218.163 35.4821 218.143 32.7621 218.113 30.2021C218.083 27.6521 218.063 25.1521 218.063 22.7121C218.063 20.2721 218.062 17.8521 218.092 15.4521C218.112 13.0521 218.133 10.5521 218.173 7.96213L218.163 7.98213ZM223.663 32.0821C224.373 32.1121 225.003 31.9821 225.543 31.6821C226.083 31.3821 226.563 30.9721 226.973 30.4721C227.383 29.9721 227.723 29.3921 227.993 28.7621C228.263 28.1221 228.493 27.4721 228.683 26.7921C228.873 26.1221 228.993 25.4521 229.062 24.8021C229.132 24.1421 229.163 23.5521 229.163 23.0121C229.163 22.1421 229.073 21.1721 228.903 20.1121C228.733 19.0521 228.422 18.0521 227.982 17.1121C227.542 16.1721 226.953 15.3821 226.223 14.7421C225.493 14.1021 224.563 13.7821 223.443 13.7821C223.473 14.0221 223.503 14.6421 223.523 15.6521C223.543 16.6621 223.553 17.8421 223.573 19.2021C223.593 20.5621 223.603 22.0021 223.603 23.5121V30.8521C223.603 31.6721 223.623 32.0921 223.653 32.0921L223.663 32.0821Z" fill="white"/>
<path d="M116.193 44.9023C116.353 44.8023 116.603 44.7223 116.933 44.6723C117.263 44.6223 117.613 44.5923 117.983 44.5923C118.353 44.5923 118.713 44.6223 119.053 44.6723C119.393 44.7223 119.643 44.8023 119.813 44.9023V46.0323C119.813 46.7423 119.813 47.6523 119.803 48.7523C119.793 49.8523 119.783 51.0923 119.783 52.4623V63.2723C119.553 63.4323 119.273 63.5423 118.953 63.5923C118.623 63.6423 118.283 63.6723 117.933 63.6723C117.523 63.6723 117.143 63.6423 116.803 63.5823C116.463 63.5223 116.243 63.4623 116.133 63.3923C116.113 62.2123 116.103 60.8723 116.103 59.3523C116.103 57.8323 116.103 56.2523 116.123 54.6023C116.123 52.9523 116.143 51.2923 116.153 49.6223C116.163 47.9523 116.183 46.3723 116.203 44.8923L116.193 44.9023Z" fill="white"/>
<path d="M122.133 44.7422C122.193 44.6822 122.313 44.6422 122.493 44.6222C122.673 44.6022 122.863 44.5922 123.063 44.5922C123.263 44.5922 123.463 44.6022 123.633 44.6222C123.813 44.6422 123.913 44.6822 123.963 44.7422C124.703 45.4222 125.363 46.1322 125.943 46.8622C126.523 47.5922 127.073 48.3322 127.613 49.0722C127.613 49.0322 127.613 48.7822 127.593 48.3322C127.583 47.8822 127.583 47.3922 127.583 46.8822V44.8122C127.703 44.7122 127.912 44.6222 128.202 44.5622C128.492 44.5022 128.813 44.4722 129.163 44.4722C129.473 44.4722 129.773 44.5022 130.062 44.5522C130.352 44.6022 130.593 44.6822 130.773 44.7822V50.9722C130.773 52.3122 130.772 53.6922 130.762 55.1022C130.752 56.5122 130.742 57.8122 130.732 58.9822C130.722 60.1622 130.723 61.1422 130.723 61.9322V63.2422C130.603 63.3422 130.392 63.4222 130.122 63.4722C129.842 63.5222 129.563 63.5522 129.273 63.5522C128.963 63.5522 128.673 63.5322 128.393 63.4922C128.113 63.4522 127.913 63.3822 127.793 63.2722C127.813 63.1322 127.823 62.8222 127.823 62.3422V60.6722C127.823 60.0322 127.823 59.3522 127.803 58.6122C127.793 57.8822 127.783 57.2022 127.783 56.5722V54.0822C127.373 53.4622 126.973 52.9022 126.573 52.3922C126.183 51.8922 125.783 51.4122 125.363 50.9522V53.9722C125.363 55.0922 125.363 56.2222 125.373 57.3422C125.383 58.4622 125.393 59.5522 125.393 60.6022C125.393 61.6522 125.383 62.5622 125.363 63.3222C125.193 63.4022 124.973 63.4622 124.683 63.5122C124.393 63.5522 124.093 63.5722 123.783 63.5722C123.453 63.5722 123.153 63.5522 122.873 63.5122C122.593 63.4722 122.383 63.4022 122.243 63.2922C122.243 62.9822 122.243 62.3422 122.223 61.3622C122.213 60.3822 122.203 59.2322 122.193 57.9122C122.183 56.5922 122.173 55.1922 122.163 53.7222C122.163 52.2522 122.153 50.8722 122.153 49.6122V44.7422H122.133Z" fill="white"/>
<path d="M175.503 44.5625C176.433 44.5625 177.193 44.7325 177.773 45.0525C178.363 45.3825 178.813 45.8125 179.133 46.3525C179.453 46.8925 179.653 47.4925 179.723 48.1825C179.793 48.8625 179.773 49.5525 179.643 50.2525C179.603 50.2925 179.483 50.3225 179.303 50.3425C179.113 50.3625 178.893 50.3725 178.623 50.3725H177.753C177.443 50.3725 177.143 50.3625 176.853 50.3425C176.893 49.7825 176.833 49.2425 176.683 48.7025C176.523 48.1625 176.223 47.8525 175.773 47.7725C175.523 47.7325 175.313 47.7825 175.123 47.9225C174.933 48.0625 174.783 48.2725 174.673 48.5225C174.563 48.7825 174.493 49.0925 174.453 49.4525C174.423 49.8125 174.413 50.1825 174.443 50.5525C174.483 51.0425 174.683 51.5325 175.043 52.0225C175.403 52.5125 175.843 52.9225 176.353 53.2725C176.873 53.6225 177.363 54.0025 177.823 54.4025C178.283 54.8025 178.693 55.2425 179.043 55.7025C179.393 56.1625 179.673 56.6625 179.883 57.1825C180.093 57.7125 180.193 58.2725 180.193 58.8725C180.193 59.3625 180.103 59.8425 179.933 60.2925C179.753 60.7425 179.533 61.1725 179.253 61.5625C178.973 61.9525 178.663 62.2925 178.323 62.5725C177.983 62.8525 177.643 63.0525 177.313 63.1725C177.173 63.2325 176.883 63.3225 176.463 63.4325C176.043 63.5425 175.453 63.6025 174.713 63.6025C174.303 63.6025 173.843 63.5725 173.353 63.5225C172.863 63.4725 172.313 63.3725 171.713 63.2325C171.653 62.7425 171.623 62.3225 171.633 61.9825C171.643 61.6425 171.673 61.3525 171.713 61.1025C171.753 60.8525 171.803 60.6425 171.863 60.4725C171.923 60.2925 171.983 60.1125 172.053 59.9325C172.903 60.1825 173.653 60.3025 174.313 60.3025C175.053 60.3025 175.633 60.1725 176.063 59.9025C176.483 59.6325 176.693 59.2625 176.693 58.7925C176.693 58.6025 176.633 58.3925 176.523 58.1425C176.413 57.8925 176.263 57.6525 176.073 57.4025C175.883 57.1525 175.693 56.9225 175.483 56.6925C175.273 56.4625 175.083 56.2725 174.893 56.1025C174.373 55.6525 173.903 55.2225 173.473 54.8325C173.043 54.4425 172.673 54.0325 172.363 53.6125C172.053 53.1925 171.803 52.7225 171.623 52.2225C171.443 51.7125 171.323 51.1325 171.283 50.4725C171.243 49.9125 171.273 49.2925 171.363 48.6125C171.453 47.9325 171.653 47.2925 171.963 46.6825C172.273 46.0725 172.713 45.5725 173.283 45.1625C173.853 44.7525 174.583 44.5625 175.493 44.5625H175.503Z" fill="white"/>
<path d="M181.103 44.9326H186.283C186.993 44.9326 187.663 44.9326 188.273 44.9126C188.893 44.9026 189.433 44.8926 189.913 44.8926H190.903C190.963 44.9926 191.023 45.1826 191.073 45.4626C191.123 45.7426 191.153 46.0526 191.163 46.3926C191.163 46.7326 191.163 47.0726 191.113 47.4026C191.073 47.7326 190.993 47.9926 190.863 48.1726C190.653 48.1726 190.453 48.1726 190.263 48.1926C190.063 48.2026 189.853 48.2126 189.633 48.2226C189.403 48.2326 189.143 48.2426 188.833 48.2526C188.523 48.2626 188.143 48.2726 187.693 48.2726C187.693 49.8026 187.693 51.2326 187.713 52.5726C187.713 53.9126 187.743 55.1926 187.763 56.4126C187.783 57.6326 187.803 58.7926 187.813 59.9126C187.823 61.0226 187.833 62.1326 187.833 63.2226C187.693 63.3626 187.473 63.4726 187.203 63.5326C186.923 63.5926 186.623 63.6226 186.293 63.6226C185.923 63.6226 185.563 63.5826 185.223 63.5126C184.883 63.4426 184.633 63.3326 184.463 63.1926C184.483 62.0626 184.503 60.8326 184.513 59.5126C184.523 58.1926 184.533 56.8626 184.543 55.5226C184.543 54.1826 184.563 52.8826 184.573 51.6126C184.573 50.3426 184.583 49.2026 184.583 48.1926C184.023 48.1926 183.443 48.1926 182.823 48.2126C182.203 48.2226 181.613 48.2326 181.063 48.2326C181.003 48.0626 180.953 47.8526 180.913 47.5826C180.873 47.3126 180.853 47.0226 180.853 46.7126C180.853 46.4026 180.873 46.0926 180.913 45.7726C180.953 45.4526 181.023 45.1826 181.133 44.9526L181.103 44.9326Z" fill="white"/>
<path d="M192.703 44.9923C193.653 44.6023 194.613 44.4023 195.583 44.4023C196.303 44.4023 197.003 44.5023 197.673 44.6923C198.343 44.8923 198.943 45.1723 199.483 45.5623C200.023 45.9423 200.453 46.4223 200.793 47.0023C201.133 47.5823 201.333 48.2423 201.393 48.9823C201.473 49.9523 201.443 50.9523 201.283 52.0023C201.123 53.0423 200.753 53.9623 200.153 54.7723C201.123 57.6423 202.183 60.4423 203.343 63.1823C203.173 63.2823 202.933 63.3623 202.613 63.4123C202.293 63.4623 201.953 63.4923 201.573 63.4923C201.183 63.4923 200.813 63.4723 200.463 63.4323C200.113 63.3923 199.863 63.3223 199.723 63.2123C199.373 62.1023 198.983 60.9923 198.563 59.8823C198.143 58.7823 197.733 57.5823 197.343 56.2823C197.243 56.3023 197.063 56.3723 196.803 56.4823C196.543 56.5923 196.213 56.6823 195.803 56.7423C195.843 58.2523 195.873 59.5123 195.893 60.5423C195.913 61.5723 195.933 62.4823 195.953 63.2623C195.723 63.3423 195.443 63.4023 195.123 63.4523C194.793 63.4923 194.463 63.5123 194.133 63.5123C193.883 63.5123 193.653 63.4923 193.423 63.4623C193.193 63.4323 193.003 63.3723 192.833 63.2923C192.793 62.2023 192.763 60.9123 192.743 59.4223C192.723 57.9423 192.703 56.3723 192.693 54.7323C192.683 53.0923 192.693 51.4323 192.693 49.7523C192.693 48.0723 192.713 46.4823 192.713 44.9723L192.703 44.9923ZM195.703 53.8123C196.283 53.7523 196.753 53.5723 197.113 53.2723C197.473 52.9723 197.743 52.6123 197.933 52.1923C198.123 51.7723 198.223 51.3023 198.243 50.8023C198.263 50.3023 198.223 49.7923 198.123 49.3023C198.063 49.0323 197.953 48.7623 197.813 48.5023C197.673 48.2323 197.493 48.0123 197.273 47.8223C197.053 47.6323 196.813 47.5023 196.543 47.4023C196.273 47.3123 195.983 47.2923 195.673 47.3523C195.653 47.6623 195.643 48.1023 195.643 48.6623C195.643 49.2223 195.643 49.8423 195.663 50.4923C195.663 51.1423 195.683 51.7623 195.693 52.3623C195.693 52.9623 195.713 53.4423 195.713 53.8123H195.703Z" fill="white"/>
<path d="M204.823 44.8022H208.393C208.983 44.8022 209.603 44.8022 210.263 44.7822C210.923 44.7722 211.663 44.7622 212.493 44.7622C212.573 44.9022 212.633 45.1522 212.673 45.5022C212.713 45.8522 212.733 46.2222 212.733 46.6122C212.733 47.0022 212.713 47.3722 212.673 47.7222C212.633 48.0722 212.583 48.3322 212.523 48.4922H210.913C210.463 48.4922 209.973 48.4922 209.463 48.4722C208.943 48.4722 208.473 48.4522 208.043 48.4522C208.003 49.7922 208.003 51.1122 208.043 52.4122C208.353 52.4322 208.833 52.4322 209.493 52.4122C210.153 52.3922 211.033 52.3922 212.123 52.4122C212.183 52.6022 212.233 52.8322 212.263 53.1222C212.293 53.4122 212.313 53.7122 212.313 54.0222C212.313 54.3322 212.303 54.6222 212.283 54.9022C212.263 55.1822 212.233 55.4122 212.193 55.6022C211.593 55.6222 210.983 55.6222 210.353 55.6022C209.723 55.5822 208.953 55.5822 208.043 55.6022C208.043 56.0922 208.043 56.5322 208.063 56.9122C208.063 57.2922 208.073 57.6522 208.073 57.9922C208.073 58.3322 208.073 58.6722 208.063 59.0022C208.053 59.3322 208.043 59.6722 208.043 60.0222C208.493 60.0022 208.913 59.9922 209.293 59.9922H212.803C212.903 60.1622 212.983 60.4022 213.033 60.7222C213.083 61.0422 213.113 61.3722 213.123 61.7122C213.123 62.0522 213.123 62.3822 213.073 62.6822C213.033 62.9922 212.963 63.2122 212.853 63.3322C211.513 63.3322 210.153 63.3322 208.773 63.3522C207.393 63.3622 206.043 63.3522 204.723 63.3322V57.5522C204.723 56.2722 204.723 54.9422 204.743 53.5622C204.743 52.1822 204.763 50.8922 204.773 49.6922C204.773 48.4922 204.793 47.4522 204.803 46.5722C204.803 45.6822 204.813 45.0922 204.813 44.7822L204.823 44.8022Z" fill="white"/>
<path d="M215.152 44.8022H218.722C219.312 44.8022 219.932 44.8022 220.592 44.7822C221.252 44.7722 221.992 44.7622 222.822 44.7622C222.902 44.9022 222.962 45.1522 223.012 45.5022C223.052 45.8522 223.072 46.2222 223.072 46.6122C223.072 47.0022 223.052 47.3722 223.012 47.7222C222.972 48.0722 222.922 48.3322 222.852 48.4922H221.242C220.792 48.4922 220.302 48.4922 219.792 48.4722C219.272 48.4722 218.802 48.4522 218.372 48.4522C218.332 49.7922 218.332 51.1122 218.372 52.4122C218.682 52.4322 219.162 52.4322 219.822 52.4122C220.482 52.3922 221.362 52.3922 222.452 52.4122C222.512 52.6022 222.562 52.8322 222.592 53.1222C222.622 53.4122 222.642 53.7122 222.642 54.0222C222.642 54.3322 222.642 54.6222 222.612 54.9022C222.592 55.1822 222.562 55.4122 222.522 55.6022C221.922 55.6222 221.312 55.6222 220.682 55.6022C220.052 55.5822 219.282 55.5822 218.372 55.6022C218.372 56.0922 218.372 56.5322 218.392 56.9122C218.402 57.2922 218.412 57.6522 218.412 57.9922C218.412 58.3322 218.412 58.6722 218.392 59.0022C218.382 59.3322 218.372 59.6722 218.372 60.0222C218.822 60.0022 219.242 59.9922 219.622 59.9922H223.132C223.232 60.1622 223.312 60.4022 223.362 60.7222C223.412 61.0422 223.442 61.3722 223.452 61.7122C223.462 62.0522 223.452 62.3822 223.402 62.6822C223.362 62.9922 223.292 63.2122 223.182 63.3322C221.842 63.3322 220.482 63.3322 219.102 63.3522C217.722 63.3622 216.372 63.3522 215.052 63.3322V57.5522C215.052 56.2722 215.052 54.9422 215.062 53.5622C215.062 52.1822 215.082 50.8922 215.092 49.6922C215.092 48.4922 215.112 47.4522 215.122 46.5722C215.132 45.6822 215.142 45.0922 215.142 44.7822L215.152 44.8022Z" fill="white"/>
<path d="M224.903 44.9326H230.083C230.793 44.9326 231.463 44.9326 232.083 44.9126C232.703 44.8926 233.243 44.8926 233.723 44.8926H234.713C234.773 44.9926 234.833 45.1826 234.883 45.4626C234.933 45.7426 234.963 46.0526 234.973 46.3926C234.973 46.7326 234.973 47.0726 234.923 47.4026C234.883 47.7326 234.803 47.9926 234.673 48.1726C234.463 48.1726 234.263 48.1726 234.073 48.1926C233.873 48.2026 233.663 48.2126 233.443 48.2226C233.213 48.2326 232.943 48.2426 232.643 48.2526C232.333 48.2626 231.953 48.2726 231.493 48.2726C231.493 49.8026 231.493 51.2326 231.513 52.5726C231.513 53.9126 231.543 55.1926 231.563 56.4126C231.583 57.6326 231.603 58.7926 231.613 59.9126C231.613 61.0226 231.633 62.1326 231.633 63.2226C231.493 63.3626 231.273 63.4726 231.003 63.5326C230.733 63.5926 230.423 63.6226 230.093 63.6226C229.723 63.6226 229.363 63.5826 229.023 63.5126C228.683 63.4426 228.433 63.3326 228.263 63.1926C228.283 62.0626 228.293 60.8326 228.313 59.5126C228.313 58.1926 228.333 56.8626 228.343 55.5226C228.343 54.1826 228.363 52.8826 228.373 51.6126C228.383 50.3426 228.393 49.2026 228.393 48.1926C227.833 48.1926 227.253 48.1926 226.633 48.2126C226.013 48.2226 225.423 48.2326 224.873 48.2326C224.813 48.0626 224.763 47.8526 224.723 47.5826C224.683 47.3126 224.663 47.0226 224.663 46.7126C224.663 46.4026 224.683 46.0926 224.723 45.7726C224.763 45.4526 224.833 45.1826 224.943 44.9526L224.903 44.9326Z" fill="white"/>
<path d="M142.563 37.5322C143.503 37.5322 144.393 37.6822 145.223 37.9922C146.123 38.3222 146.903 38.8022 147.553 39.4322C148.203 40.0622 148.683 40.8222 148.993 41.6922C149.313 42.5722 149.393 43.5522 149.253 44.6422C149.133 45.5322 148.933 46.3822 148.633 47.1822C148.333 47.9822 147.983 48.7722 147.573 49.5322C147.173 50.2922 146.733 51.0322 146.283 51.7522C145.823 52.4722 145.353 53.2022 144.863 53.9522C144.283 54.8422 143.723 55.7522 143.183 56.6922C142.643 57.6222 142.203 58.6122 141.893 59.6422H149.783C150.013 59.8122 150.163 60.1122 150.233 60.5422C150.302 60.9722 150.333 61.4222 150.323 61.8822C150.303 62.3422 150.263 62.7622 150.173 63.1322C150.083 63.5022 149.973 63.7322 149.833 63.8222C147.673 63.8822 145.573 63.9122 143.523 63.9122H137.253C136.993 63.8822 136.733 63.8722 136.473 63.8722C136.213 63.8722 136.003 63.8322 135.823 63.7622C135.653 63.6922 135.543 63.5522 135.503 63.3522C135.463 63.1522 135.543 62.8322 135.743 62.4022C136.493 60.5622 137.263 58.8422 138.073 57.2322C138.873 55.6222 139.793 53.9722 140.833 52.2722C141.063 51.8722 141.383 51.3322 141.803 50.6522C142.223 49.9822 142.633 49.2722 143.053 48.5222C143.473 47.7722 143.843 47.0522 144.173 46.3422C144.503 45.6422 144.683 45.0722 144.713 44.6422C144.803 43.9222 144.603 43.3122 144.133 42.8122C143.663 42.3122 143.073 42.0422 142.393 42.0122C142.333 42.0122 142.273 42.0122 142.213 42.0122C141.943 42.0122 141.693 42.0622 141.473 42.1722C141.203 42.3022 140.953 42.4822 140.743 42.7122C140.523 42.9422 140.343 43.1922 140.183 43.4722C140.023 43.7422 139.903 44.0222 139.813 44.3122L139.733 44.4422C139.662 44.4622 139.573 44.4722 139.473 44.4722C139.303 44.4722 139.093 44.4422 138.853 44.3722C138.463 44.2722 138.073 44.1322 137.673 43.9422C137.273 43.7522 136.893 43.5522 136.553 43.3422C136.213 43.1222 135.993 42.9322 135.913 42.7622L135.872 42.6722V42.6322C136.242 41.0822 137.033 39.8622 138.243 38.9722C139.453 38.0822 140.823 37.6122 142.383 37.5522C142.463 37.5522 142.553 37.5522 142.633 37.5522M142.633 35.0122C142.523 35.0122 142.423 35.0122 142.313 35.0122C140.233 35.0922 138.363 35.7322 136.743 36.9322C135.043 38.1822 133.923 39.9022 133.413 42.0422L133.343 42.3322V43.2822L133.622 43.8222L133.663 43.9122C133.953 44.5022 134.453 45.0122 135.223 45.4922C135.663 45.7622 136.132 46.0222 136.622 46.2422C137.162 46.4922 137.703 46.6922 138.233 46.8222C138.682 46.9422 139.103 47.0022 139.493 47.0022C139.823 47.0022 140.153 46.9622 140.453 46.8722L141.233 46.6522C141.123 46.8622 141.003 47.0822 140.883 47.2922C140.493 47.9922 140.093 48.6822 139.693 49.3322C139.253 50.0422 138.933 50.5822 138.693 50.9922C137.633 52.7422 136.673 54.4622 135.853 56.1022C135.023 57.7522 134.223 59.5322 133.463 61.4022C133.183 62.0122 132.863 62.9222 133.083 63.9022C133.293 64.9022 133.963 65.7122 134.913 66.1122C135.383 66.3122 135.933 66.4122 136.533 66.4122C136.703 66.4122 136.873 66.4122 137.023 66.4422L137.163 66.4622H143.573C145.643 66.4622 147.783 66.4322 149.953 66.3722L150.622 66.3522L151.193 66.0122C152.333 65.3322 152.613 64.1222 152.703 63.7222C152.823 63.1922 152.893 62.6122 152.923 61.9822C152.943 61.3522 152.903 60.7322 152.803 60.1422C152.583 58.7822 151.903 58.0222 151.383 57.6322L150.703 57.1222H145.963C146.333 56.5122 146.703 55.9222 147.073 55.3422C147.553 54.6022 148.033 53.8622 148.503 53.1322C148.993 52.3522 149.463 51.5522 149.903 50.7322C150.353 49.8822 150.753 48.9922 151.093 48.0822C151.463 47.1022 151.713 46.0622 151.863 44.9722C152.063 43.4922 151.933 42.0922 151.473 40.8322C151.023 39.5922 150.333 38.5122 149.413 37.6122C148.513 36.7322 147.423 36.0522 146.183 35.6022C145.073 35.1922 143.883 34.9922 142.653 34.9922L142.633 35.0122Z" fill="white"/>
<path d="M161.043 38.0121C161.533 38.0121 162.003 38.0821 162.463 38.2321C162.923 38.3721 163.183 38.6121 163.243 38.9221C163.273 42.6021 163.273 46.1621 163.243 49.6121C163.213 53.0621 163.213 56.4121 163.243 59.6521C163.763 59.6221 164.213 59.6121 164.603 59.6121H166.952V59.6922C167.092 60.3521 167.152 61.0121 167.122 61.6721C167.092 62.3321 167.032 62.9921 166.952 63.6521L166.913 63.7822H166.783C164.943 63.8421 162.963 63.8721 160.853 63.8921C158.743 63.9121 156.763 63.9121 154.923 63.9121H154.842L154.803 63.8722C154.683 63.7322 154.593 63.4721 154.523 63.0921C154.453 62.7221 154.403 62.3121 154.393 61.8821C154.373 61.4521 154.393 61.0421 154.433 60.6521C154.473 60.2621 154.543 59.9821 154.633 59.8121L154.673 59.6821H154.762C155.052 59.6921 155.353 59.7021 155.673 59.7021C155.993 59.7021 156.333 59.7021 156.693 59.6821C157.413 59.6521 158.053 59.6421 158.633 59.6421C158.693 57.7421 158.713 55.8622 158.693 53.9921C158.683 52.1221 158.693 50.2422 158.753 48.3521C158.783 47.7722 158.793 47.1922 158.793 46.6021V44.8621C158.423 45.0921 158.043 45.3122 157.673 45.5121C157.293 45.7121 156.923 45.9321 156.553 46.1621L156.512 46.2021H156.423C156.163 46.0921 155.893 45.9021 155.603 45.6421C155.313 45.3821 155.053 45.1021 154.803 44.7822C154.563 44.4622 154.353 44.1321 154.183 43.7721C154.013 43.4121 153.892 43.0921 153.842 42.8021V42.7122L153.883 42.6721C154.113 42.4721 154.323 42.3021 154.503 42.1521C154.693 42.0121 154.902 41.8521 155.122 41.6821C155.872 41.0821 156.643 40.5121 157.433 39.9821C158.223 39.4521 158.992 38.9021 159.732 38.3221C159.962 38.1221 160.393 38.0221 161.023 38.0221M161.023 35.4821C159.793 35.4821 158.853 35.7621 158.143 36.3421C157.453 36.8721 156.743 37.3821 156.003 37.8821C155.163 38.4421 154.343 39.0521 153.553 39.6821C153.333 39.8421 153.143 39.9921 152.963 40.1321C152.713 40.3221 152.463 40.5321 152.193 40.7621L152.133 40.8221L152.073 40.8821L152.033 40.9221L151.293 41.6621V43.0421L151.342 43.2822C151.442 43.7822 151.623 44.3022 151.893 44.8722C152.143 45.3822 152.443 45.8821 152.793 46.3321C153.123 46.7621 153.493 47.1622 153.903 47.5322C154.393 47.9721 154.883 48.3021 155.393 48.5221L155.883 48.7421H156.193C156.143 50.4821 156.123 52.2621 156.143 54.0221C156.143 55.0621 156.143 56.1122 156.143 57.1721C155.973 57.1721 155.813 57.1721 155.663 57.1721C155.383 57.1721 155.122 57.1721 154.872 57.1521H154.812H154.753H152.823L152.253 58.9021C152.083 59.3121 151.973 59.7822 151.913 60.3722C151.853 60.8922 151.833 61.4321 151.853 61.9721C151.873 62.5121 151.933 63.0521 152.023 63.5621C152.173 64.3621 152.423 64.9621 152.812 65.4421L152.913 65.5722L153.033 65.6822L153.073 65.7221L153.812 66.4322H154.923C156.773 66.4322 158.753 66.4321 160.863 66.4121C162.973 66.4021 164.972 66.3621 166.812 66.3021H168.743L169.312 64.5621L169.353 64.4321L169.423 64.2021L169.452 63.9622C169.552 63.2322 169.613 62.4921 169.643 61.7621C169.673 60.9721 169.613 60.1821 169.473 59.4121V57.0421H165.753C165.743 54.6121 165.753 52.1222 165.773 49.6021C165.803 46.1621 165.803 42.5522 165.773 38.8722V38.6521L165.732 38.4321C165.622 37.8321 165.163 36.3822 163.223 35.7822C162.513 35.5622 161.783 35.4521 161.043 35.4521L161.023 35.4821Z" fill="white"/>
<g filter="url(#filter0_d_529_2023)">
<path d="M16.6325 26.3422C15.8925 26.3822 15.0525 26.3322 14.7825 25.8522C14.4825 25.3122 14.6925 23.9822 19.9525 19.3822C24.8725 15.0722 27.0925 13.1022 27.8825 13.6722C28.2125 13.9122 28.0925 14.4422 28.4225 14.5422C29.1325 14.7522 29.8125 12.3122 31.4725 11.7322C32.8225 11.2622 34.2725 12.2222 35.1425 12.7622C36.5825 13.6622 41.1625 15.6522 50.3425 19.6322C51.2625 20.0322 52.9225 20.8922 55.2325 21.8922C56.6925 22.5222 57.6325 22.8922 58.5425 23.2622C59.3625 23.5922 61.3625 24.4222 65.9525 26.6122C70.5225 28.7922 73.0625 30.1322 81.1825 34.2422C82.6625 34.9922 86.1325 36.7522 90.6725 39.1922C98.9625 43.6522 100.363 44.7722 100.413 46.2222C100.463 47.8822 98.7125 48.3522 93.0625 52.7422C86.6125 57.7622 84.3325 60.7022 81.2325 60.1822C80.7225 60.1022 78.4525 59.7222 77.9125 58.3022C77.6425 57.5922 77.9125 56.9022 77.4125 56.3822C76.9625 55.9122 76.2125 55.9022 75.6025 55.9822C66.9125 51.3222 57.9825 46.6622 48.8225 42.0322C37.9225 36.5222 27.1825 31.2922 16.6425 26.3322L16.6325 26.3422Z" fill="#020202" stroke="white" stroke-width="5" stroke-miterlimit="10"/>
</g>
<path d="M97.7825 27.7322C98.5225 27.7522 99.3625 27.6722 99.6125 27.1922C99.8925 26.6422 99.6425 25.3222 94.2625 20.8722C89.2225 16.7122 86.9425 14.8022 86.1725 15.3922C85.8525 15.6422 85.9825 16.1722 85.6625 16.2722C84.9625 16.5022 84.2025 14.0822 82.5325 13.5522C81.1725 13.1222 79.7525 14.1222 78.8925 14.6922C77.4825 15.6322 72.9525 17.7622 63.8925 22.0022C62.9925 22.4222 61.3525 23.3422 59.0725 24.4022C57.6325 25.0722 56.7025 25.4722 55.8025 25.8622C54.9925 26.2222 53.0225 27.1022 48.4925 29.4222C43.9825 31.7422 41.4925 33.1522 33.4925 37.4922C32.0325 38.2822 28.6125 40.1422 24.1425 42.7122C15.9925 47.4022 14.6125 48.5722 14.6125 50.0222C14.6125 51.6822 16.3725 52.1022 22.1525 56.3322C28.7525 61.1622 31.1025 64.0322 34.1925 63.4222C34.6925 63.3222 36.9625 62.8822 37.4625 61.4422C37.7125 60.7322 37.4225 60.0422 37.9025 59.5122C38.3325 59.0322 39.0925 59.0022 39.6925 59.0522C48.2425 54.1422 57.0325 49.2322 66.0525 44.3322C76.7925 38.5022 87.3725 32.9722 97.7625 27.7122L97.7825 27.7322Z" fill="#020202" stroke="white" stroke-width="5" stroke-miterlimit="10"/>
</g>
<defs>
<filter id="filter0_d_529_2023" x="5.19009" y="6.10596" width="110.723" height="73.6362" filterUnits="userSpaceOnUse" color-interpolation-filters="sRGB">
<feFlood flood-opacity="0" result="BackgroundImageFix"/>
<feColorMatrix in="SourceAlpha" type="matrix" values="0 0 0 0 0 0 0 0 0 0 0 0 0 0 0 0 0 0 127 0" result="hardAlpha"/>
<feOffset dx="3" dy="7"/>
<feGaussianBlur stdDeviation="5"/>
<feColorMatrix type="matrix" values="0 0 0 0 0 0 0 0 0 0 0 0 0 0 0 0 0 0 0.1 0"/>
<feBlend mode="normal" in2="BackgroundImageFix" result="effect1_dropShadow_529_2023"/>
<feBlend mode="normal" in="SourceGraphic" in2="effect1_dropShadow_529_2023" result="shape"/>
</filter>
<clipPath id="clip0_529_2023">
<rect width="234.89" height="84" fill="white" transform="translate(0.0825195 0.882324)"/>
</clipPath>
</defs>
</svg>
