<svg width="219" height="59" viewBox="0 0 219 59" fill="none" xmlns="http://www.w3.org/2000/svg">
<path d="M44.5062 46.6116C45.1198 46.3676 45.6312 46.2456 46.0403 46.2456C46.6949 46.2456 47.1858 46.4896 47.5131 46.9775C47.8404 47.4654 48.0041 48.0956 48.0041 48.8681C48.0041 50.0879 47.6972 51.1247 47.0836 51.9785C46.5108 52.8324 45.5085 53.6049 44.0766 54.2961C41.6628 55.4345 38.5331 56.3494 34.6875 57.0406C30.8418 57.6911 27.0576 58.0164 23.3347 58.0164C18.1798 58.0164 13.8637 57.4472 10.3863 56.3087C6.90882 55.1296 4.31096 53.5236 2.5927 51.4906C0.915339 49.4577 0.0766602 47.1604 0.0766602 44.5989C0.0766602 41.1023 1.20172 38.1342 3.45183 35.6946C5.74285 33.2144 9.09757 31.4254 13.516 30.3276C11.1022 29.6364 9.24076 28.4167 7.9316 26.6683C6.66336 24.92 6.02923 22.9684 6.02923 20.8134C6.02923 17.886 6.94973 15.3042 8.79074 13.0679C10.6726 10.791 13.1887 9.04268 16.3388 7.82291C19.489 6.60314 22.946 5.99326 26.7098 5.99326C31.7828 5.99326 35.5875 7.09105 38.124 9.28664C40.6605 11.4416 41.9288 14.247 41.9288 17.703C41.9288 20.1019 41.4787 22.0535 40.5787 23.5579C39.7196 25.0216 38.4718 25.7535 36.8353 25.7535C35.6898 25.7535 34.7898 25.5096 34.1352 25.0217C33.4806 24.4931 33.1533 23.7206 33.1533 22.7041C33.1533 22.0129 33.2556 21.2607 33.4602 20.4475C33.6647 19.1058 33.767 18.1909 33.767 17.703C33.767 16.2393 33.2147 15.0602 32.1101 14.1657C31.0055 13.2306 29.1645 12.763 26.5871 12.763C23.1096 12.763 20.3277 13.4948 18.2412 14.9586C16.1547 16.4223 15.1115 18.3942 15.1115 20.8744C15.1115 22.7854 15.8888 24.3711 17.4434 25.6315C19.039 26.8513 21.6164 27.5222 25.1757 27.6442C26.0757 27.6848 26.7098 27.8881 27.078 28.254C27.4462 28.62 27.6303 29.2299 27.6303 30.0837C27.6303 32.7672 26.403 34.1293 23.9483 34.1699C20.5527 34.2512 17.7298 34.7188 15.4797 35.5727C13.2705 36.4265 11.6545 37.5243 10.6317 38.866C9.64987 40.1671 9.15893 41.5698 9.15893 43.0742C9.15893 45.5951 10.3454 47.5061 12.7182 48.8071C15.0911 50.0676 18.8549 50.6978 24.0097 50.6978C27.4053 50.6978 30.985 50.3115 34.7489 49.539C38.5536 48.7258 41.806 47.75 44.5062 46.6116Z" fill="white"/>
<path d="M64.3286 44.111C64.7786 47.4451 65.4332 50.7384 66.2923 53.9911C66.456 54.5197 66.5378 55.0686 66.5378 55.6378C66.5378 57.4675 65.4127 58.3823 63.1626 58.3823C61.8944 58.3823 60.9125 58.0367 60.217 57.3455C59.5624 56.6543 58.9488 55.3532 58.376 53.4423L58.3146 53.1983C56.76 55.1093 55.3486 56.39 54.0803 57.0406C52.853 57.6911 51.4211 58.0164 49.7847 58.0164C47.2891 58.0164 45.2231 57.1016 43.5866 55.2719C41.9911 53.4016 41.1933 50.9824 41.1933 48.0143C41.1933 44.7616 41.8888 41.7528 43.2798 38.988C44.6708 36.2232 46.5731 33.9666 48.9869 32.2183C51.4007 30.4293 54.1008 29.3518 57.0873 28.9859C57.8646 21.3014 59.3374 14.613 61.5057 8.92071C63.7149 3.22845 66.6401 0.382324 70.2812 0.382324C72.0403 0.382324 73.4927 1.17517 74.6382 2.76087C75.8246 4.34657 76.4178 6.74545 76.4178 9.95751C76.4178 14.43 75.3132 19.6547 73.104 25.6315C70.8948 31.6084 67.9697 37.7682 64.3286 44.111ZM69.6061 6.35919C68.4197 6.35919 67.2946 9.36795 66.2309 15.3855C65.2082 21.403 64.5127 27.9491 64.1445 35.0238C68.6856 25.2656 70.9562 17.3371 70.9562 11.2383C70.9562 9.69323 70.813 8.49379 70.5266 7.63995C70.2811 6.78611 69.9743 6.35919 69.6061 6.35919ZM51.9325 51.8566C52.7507 51.8566 53.528 51.5516 54.2644 50.9417C55.0417 50.3319 56.0236 49.1527 57.21 47.4044C56.8009 44.4363 56.5964 41.3666 56.5964 38.1952C56.5964 36.9347 56.6168 35.9589 56.6577 35.2677C54.4076 35.9182 52.5462 37.4023 51.0734 39.7199C49.6006 42.0374 48.8642 44.5989 48.8642 47.4044C48.8642 50.3725 49.8869 51.8566 51.9325 51.8566Z" fill="white"/>
<path d="M139.982 7.15204C141.128 7.31468 141.905 7.66028 142.314 8.18884C142.764 8.71741 142.989 9.40861 142.989 10.2624C142.989 13.0679 141.475 14.369 138.448 14.1657L136.3 13.9827C133.886 13.7794 131.473 13.6168 129.059 13.4948C126.686 13.3729 124.191 13.3119 121.572 13.3119H118.811C118.32 19.3294 117.808 24.8184 117.277 29.7787L127.832 29.5958C129.345 29.5958 130.348 29.8601 130.839 30.3886C131.37 30.9172 131.636 31.6287 131.636 32.5232C131.636 33.9056 131.227 35.0034 130.409 35.8166C129.591 36.5891 128.425 36.9754 126.911 36.9754H116.417L116.049 39.5979C115.19 46.3066 113.349 51.084 110.526 53.9302C107.744 56.7763 103.899 58.1994 98.9893 58.1994C96.2073 58.1994 93.6504 57.6098 91.3184 56.4307C88.9865 55.2109 87.2682 53.7472 86.1636 52.0395C85.7136 51.3483 85.4886 50.5148 85.4886 49.539C85.4886 48.5632 85.7136 47.7093 86.1636 46.9775C86.6545 46.2456 87.2478 45.8797 87.9433 45.8797C88.4342 45.8797 88.9047 46.0423 89.3547 46.3676C89.8456 46.6929 90.4593 47.3231 91.1957 48.2582C93.1594 50.8198 95.5936 52.1005 98.4983 52.1005C100.83 52.1005 102.774 51.1654 104.328 49.295C105.924 47.3841 106.946 44.3956 107.396 40.3297L107.765 36.9754H104.819C103.878 36.9754 103.06 36.7111 102.364 36.1825C101.71 35.654 101.383 34.9018 101.383 33.926C101.383 32.6655 101.71 31.71 102.364 31.0595C103.019 30.3683 103.98 30.0227 105.249 30.0227C106.394 30.0227 107.519 30.0024 108.624 29.9617C109.115 25.4892 109.647 20.0613 110.219 13.6778C105.801 14.0844 102.692 14.7959 100.892 15.8124C99.0915 16.8289 98.1915 18.3333 98.1915 20.3255C98.1915 21.7079 98.6006 23.0294 99.4188 24.2898C99.6643 24.6557 99.787 25.0216 99.787 25.3876C99.787 26.1194 99.3779 26.77 98.5597 27.3392C97.7415 27.8678 96.821 28.1321 95.7982 28.1321C94.6936 28.1321 93.7526 27.8068 92.9753 27.1562C92.4844 26.7497 92.0139 25.9161 91.5639 24.6557C91.1139 23.3953 90.8889 21.9926 90.8889 20.4475C90.8889 15.4058 93.4867 11.7465 98.6824 9.4696C103.919 7.1927 111.549 6.05425 121.572 6.05425C128.527 6.05425 134.664 6.42018 139.982 7.15204Z" fill="white"/>
<path d="M162.881 38.988C163.413 38.988 163.822 39.2523 164.108 39.7808C164.395 40.3094 164.538 40.9803 164.538 41.7935C164.538 43.7451 163.945 44.9039 162.758 45.2698C160.304 46.1236 157.604 46.6116 154.658 46.7335C153.881 50.1489 152.347 52.8934 150.055 54.967C147.764 56.9999 145.167 58.0164 142.262 58.0164C139.807 58.0164 137.7 57.4268 135.941 56.2477C134.223 55.0686 132.914 53.5032 132.014 51.5516C131.114 49.6 130.664 47.4857 130.664 45.2088C130.664 42.1187 131.257 39.3743 132.443 36.9754C133.63 34.5358 135.266 32.6452 137.353 31.3035C139.439 29.9211 141.751 29.2299 144.287 29.2299C147.396 29.2299 149.892 30.3073 151.774 32.4622C153.697 34.5765 154.822 37.199 155.149 40.3297C157.072 40.2078 159.363 39.8012 162.022 39.11C162.349 39.0287 162.636 38.988 162.881 38.988ZM142.753 51.5516C144.062 51.5516 145.187 51.023 146.128 49.9659C147.11 48.9088 147.764 47.3841 148.092 45.3918C146.824 44.5379 145.842 43.4198 145.146 42.0374C144.492 40.655 144.164 39.1913 144.164 37.6463C144.164 36.9957 144.226 36.3452 144.348 35.6946H144.042C142.405 35.6946 141.035 36.4875 139.93 38.0732C138.866 39.6182 138.334 41.8138 138.334 44.6599C138.334 46.8962 138.764 48.6038 139.623 49.783C140.523 50.9621 141.566 51.5516 142.753 51.5516Z" fill="white"/>
<path d="M182.529 44.111C183.061 44.111 183.47 44.355 183.756 44.8429C184.084 45.3308 184.247 46.0017 184.247 46.8555C184.247 48.4819 183.859 49.7423 183.081 50.6368C181.322 52.7917 179.399 54.5604 177.313 55.9428C175.267 57.3252 172.935 58.0164 170.317 58.0164C166.717 58.0164 164.037 56.39 162.278 53.1373C160.56 49.8846 159.701 45.6764 159.701 40.5127C159.701 35.5523 160.335 29.9007 161.603 23.5579C162.912 17.2151 164.814 11.7668 167.31 7.21303C169.847 2.65923 172.854 0.382324 176.331 0.382324C178.295 0.382324 179.829 1.29715 180.933 3.1268C182.079 4.9158 182.652 7.49764 182.652 10.8723C182.652 15.7107 181.302 21.3217 178.602 27.7051C175.901 34.0886 172.24 40.4111 167.617 46.6725C167.903 48.3396 168.374 49.539 169.028 50.2709C169.683 50.9621 170.542 51.3077 171.606 51.3077C173.283 51.3077 174.756 50.8401 176.024 49.9049C177.292 48.9291 178.908 47.2824 180.872 44.9649C181.363 44.3956 181.915 44.111 182.529 44.111ZM174.981 6.42018C174.04 6.42018 172.976 8.10753 171.79 11.4822C170.603 14.8569 169.56 19.0448 168.66 24.0458C167.76 29.0469 167.269 33.8446 167.187 38.4391C170.092 33.682 172.404 28.9249 174.122 24.1678C175.84 19.3701 176.699 14.9992 176.699 11.0553C176.699 7.96522 176.126 6.42018 174.981 6.42018Z" fill="white"/>
<path d="M186.835 58.0164C184.176 58.0164 182.233 57.0812 181.005 55.2109C179.819 53.3406 179.226 50.8604 179.226 47.7703C179.226 45.9407 179.451 43.6028 179.901 40.7567C180.392 37.8699 181.005 35.1864 181.742 32.7062C182.11 31.4051 182.601 30.5106 183.215 30.0227C183.828 29.5348 184.81 29.2908 186.16 29.2908C188.247 29.2908 189.29 29.982 189.29 31.3644C189.29 32.3809 188.901 34.7391 188.124 38.4391C187.142 42.9116 186.651 45.9407 186.651 47.5264C186.651 48.7462 186.815 49.6813 187.142 50.3318C187.469 50.9824 188.022 51.3077 188.799 51.3077C189.535 51.3077 190.456 50.7994 191.56 49.783C192.665 48.7665 194.138 47.1604 195.979 44.9649C196.47 44.3956 197.022 44.111 197.636 44.111C198.168 44.111 198.577 44.355 198.863 44.8429C199.19 45.3308 199.354 46.0017 199.354 46.8555C199.354 48.4819 198.965 49.7423 198.188 50.6368C194.138 55.5565 190.354 58.0164 186.835 58.0164Z" fill="white"/>
<path d="M204.76 58.0164C202.346 58.0164 200.28 57.4268 198.562 56.2477C196.885 55.028 195.616 53.4423 194.757 51.4906C193.898 49.539 193.469 47.4451 193.469 45.2088C193.469 42.1187 194.041 39.3743 195.187 36.9754C196.373 34.5358 197.969 32.6452 199.973 31.3035C201.978 29.9211 204.228 29.2299 206.724 29.2299C209.138 29.2299 211.204 29.8397 212.922 31.0595C214.64 32.2386 215.929 33.804 216.788 35.7556C217.647 37.7072 218.077 39.8012 218.077 42.0374C218.077 45.1275 217.483 47.8923 216.297 50.3318C215.111 52.7307 213.495 54.6214 211.449 56.0038C209.444 57.3455 207.215 58.0164 204.76 58.0164ZM205.435 51.4296C206.826 51.4296 207.992 50.6774 208.933 49.1731C209.915 47.6687 210.406 45.4731 210.406 42.5863C210.406 40.3501 209.997 38.6627 209.178 37.5243C208.36 36.3858 207.378 35.8166 206.233 35.8166C204.76 35.8166 203.533 36.5688 202.551 38.0732C201.61 39.5369 201.139 41.7325 201.139 44.6599C201.139 46.9775 201.549 48.6852 202.367 49.783C203.185 50.8807 204.208 51.4296 205.435 51.4296Z" fill="white"/>
<path d="M194.962 21.5691C193.221 22.2163 192.415 22.6216 190.837 24.2731C191.241 23.2853 191.942 21.8011 193.606 20.764C195.381 19.6572 196.948 19.7884 197.631 19.8207C197.137 18.9763 196.89 18.5541 196.138 17.9985C195.381 18.2695 194.044 18.8657 192.802 20.118C191.257 21.6767 190.528 23.414 190.332 24.1381C190.036 23.2775 189.47 21.4554 187.645 19.6361C186.821 18.8153 185.938 18.1539 184.518 17.6064C184.169 19.042 183.564 21.0024 183.215 22.438C184.182 22.6806 186.023 23.4003 187.722 25.0005C188.766 25.9832 189.26 26.957 189.641 27.7051C190.273 27.2414 191.387 26.7062 192.678 26.3388C194.97 25.6863 196.976 26.0412 197.867 26.301L199.169 21.4743C198.518 21.3023 196.811 20.8509 194.962 21.5691Z" fill="white"/>
</svg>
