<svg width="218" height="58" viewBox="0 0 218 58" fill="none" xmlns="http://www.w3.org/2000/svg">
<path d="M44.4295 45.7258C45.0432 45.4845 45.5546 45.3639 45.9637 45.3639C46.6183 45.3639 47.1092 45.6052 47.4365 46.0878C47.7638 46.5704 47.9274 47.1937 47.9274 47.9578C47.9274 49.1643 47.6206 50.1898 47.0069 51.0344C46.4342 51.8789 45.4318 52.643 43.9999 53.3267C41.5862 54.4527 38.4565 55.3576 34.6108 56.0413C30.7652 56.6847 26.9809 57.0065 23.258 57.0065C18.1032 57.0065 13.7871 56.4434 10.3096 55.3174C6.83216 54.1511 4.2343 52.5626 2.51604 50.5518C0.838679 48.541 0 46.2687 0 43.7351C0 40.2765 1.12506 37.3407 3.37517 34.9278C5.66619 32.4746 9.02091 30.7051 13.4393 29.6192C11.0256 28.9356 9.1641 27.7291 7.85494 25.9998C6.5867 24.2705 5.95257 22.3401 5.95257 20.2086C5.95257 17.3131 6.87307 14.7593 8.71408 12.5475C10.596 10.2953 13.112 8.56605 16.2622 7.35957C19.4123 6.15308 22.8693 5.54984 26.6332 5.54984C31.7061 5.54984 35.5109 6.63567 38.0474 8.80735C40.5839 10.9388 41.8521 13.7137 41.8521 17.1321C41.8521 19.5049 41.4021 21.4352 40.502 22.9232C39.6429 24.371 38.3951 25.0949 36.7587 25.0949C35.6132 25.0949 34.7131 24.8536 34.0585 24.371C33.404 23.8482 33.0767 23.0841 33.0767 22.0787C33.0767 21.395 33.1789 20.651 33.3835 19.8467C33.5881 18.5196 33.6903 17.6147 33.6903 17.1321C33.6903 15.6843 33.138 14.5181 32.0334 13.6333C30.9288 12.7083 29.0878 12.2458 26.5104 12.2458C23.033 12.2458 20.251 12.9697 18.1646 14.4175C16.0781 15.8653 15.0348 17.8158 15.0348 20.269C15.0348 22.1591 15.8122 23.7276 17.3668 24.9743C18.9623 26.1807 21.5397 26.8443 25.099 26.965C25.999 27.0052 26.6332 27.2063 27.0014 27.5682C27.3696 27.9302 27.5537 28.5334 27.5537 29.3779C27.5537 32.0322 26.3263 33.3795 23.8717 33.4197C20.476 33.5001 17.6532 33.9626 15.403 34.8071C13.1938 35.6517 11.5779 36.7375 10.5551 38.0646C9.57321 39.3516 9.08227 40.739 9.08227 42.227C9.08227 44.7204 10.2687 46.6106 12.6415 47.8975C15.0144 49.1442 18.7782 49.7676 23.933 49.7676C27.3286 49.7676 30.9084 49.3855 34.6722 48.6214C38.4769 47.8171 41.7294 46.8519 44.4295 45.7258Z" fill="url(#paint0_linear_529_237)"/>
<path d="M64.2519 43.2525C64.7019 46.5503 65.3565 49.8078 66.2157 53.0251C66.3793 53.5479 66.4611 54.0908 66.4611 54.6538C66.4611 56.4636 65.3361 57.3684 63.0859 57.3684C61.8177 57.3684 60.8358 57.0266 60.1403 56.3429C59.4858 55.6592 58.8721 54.3723 58.2993 52.4822L58.238 52.2408C56.6834 54.131 55.2719 55.3978 54.0037 56.0413C52.7763 56.6847 51.3444 57.0065 49.708 57.0065C47.2124 57.0065 45.1464 56.1016 43.51 54.2919C41.9144 52.4419 41.1167 50.0491 41.1167 47.1133C41.1167 43.896 41.8121 40.92 43.2031 38.1853C44.5941 35.4506 46.4965 33.2186 48.9102 31.4893C51.324 29.7198 54.0241 28.654 57.0106 28.2921C57.788 20.6912 59.2608 14.0757 61.429 8.44541C63.6382 2.81514 66.5634 0 70.2045 0C71.9637 0 73.416 0.784217 74.5615 2.35265C75.7479 3.92108 76.3412 6.29384 76.3412 9.47092C76.3412 13.8947 75.2366 19.0625 73.0274 24.9743C70.8182 30.886 67.893 36.9788 64.2519 43.2525ZM69.5294 5.91178C68.343 5.91178 67.218 8.88778 66.1543 14.8398C65.1315 20.7918 64.436 27.2666 64.0678 34.2642C68.609 24.6123 70.8795 16.7702 70.8795 10.7377C70.8795 9.20951 70.7363 8.02314 70.45 7.17859C70.2045 6.33405 69.8977 5.91178 69.5294 5.91178ZM51.8558 50.9137C52.6741 50.9137 53.4514 50.6121 54.1878 50.0089C54.9651 49.4056 55.947 48.2393 57.1334 46.51C56.7243 43.5743 56.5197 40.5379 56.5197 37.4011C56.5197 36.1544 56.5402 35.1892 56.5811 34.5055C54.331 35.149 52.4695 36.6169 50.9967 38.9092C49.5239 41.2015 48.7875 43.7351 48.7875 46.51C48.7875 49.4458 49.8103 50.9137 51.8558 50.9137Z" fill="url(#paint1_linear_529_237)"/>
<path d="M139.906 6.696C141.051 6.85686 141.828 7.1987 142.238 7.72151C142.688 8.24432 142.913 8.928 142.913 9.77254C142.913 12.5475 141.399 13.8344 138.371 13.6333L136.224 13.4523C133.81 13.2512 131.396 13.0904 128.982 12.9697C126.609 12.8491 124.114 12.7888 121.496 12.7888H118.734C118.243 18.7408 117.732 24.1699 117.2 29.0763L127.755 28.8953C129.269 28.8953 130.271 29.1567 130.762 29.6796C131.294 30.2024 131.56 30.9062 131.56 31.7909C131.56 33.1583 131.151 34.2441 130.332 35.0484C129.514 35.8125 128.348 36.1946 126.834 36.1946H116.341L115.973 38.7885C115.113 45.4242 113.272 50.1496 110.45 52.9647C107.668 55.7799 103.822 57.1874 98.9126 57.1874C96.1306 57.1874 93.5737 56.6043 91.2418 55.438C88.9098 54.2316 87.1916 52.7838 86.087 51.0947C85.6369 50.411 85.4119 49.5866 85.4119 48.6214C85.4119 47.6562 85.6369 46.8117 86.087 46.0878C86.5779 45.3639 87.1711 45.0019 87.8666 45.0019C88.3575 45.0019 88.828 45.1628 89.278 45.4845C89.769 45.8063 90.3826 46.4296 91.119 47.3546C93.0828 49.8882 95.517 51.155 98.4217 51.155C100.754 51.155 102.697 50.23 104.252 48.3801C105.847 46.4899 106.87 43.534 107.32 39.5124L107.688 36.1946H104.742C103.801 36.1946 102.983 35.9332 102.288 35.4104C101.633 34.8876 101.306 34.1436 101.306 33.1784C101.306 31.9317 101.633 30.9866 102.288 30.3431C102.942 29.6595 103.904 29.3176 105.172 29.3176C106.318 29.3176 107.443 29.2975 108.547 29.2573C109.038 24.8335 109.57 19.4646 110.143 13.1507C105.724 13.5529 102.615 14.2566 100.815 15.2621C99.0149 16.2675 98.1148 17.7555 98.1148 19.726C98.1148 21.0934 98.5239 22.4004 99.3422 23.6471C99.5876 24.0091 99.7104 24.371 99.7104 24.733C99.7104 25.4569 99.3013 26.1003 98.483 26.6633C97.6648 27.1862 96.7443 27.4476 95.7215 27.4476C94.6169 27.4476 93.676 27.1258 92.8987 26.4824C92.4077 26.0802 91.9373 25.2558 91.4872 24.0091C91.0372 22.7624 90.8122 21.3749 90.8122 19.8467C90.8122 14.8599 93.4101 11.2404 98.6058 8.98833C103.842 6.73622 111.472 5.61016 121.496 5.61016C128.45 5.61016 134.587 5.97211 139.906 6.696Z" fill="url(#paint2_linear_529_237)"/>
<path d="M162.804 38.1853C163.336 38.1853 163.745 38.4467 164.032 38.9695C164.318 39.4923 164.461 40.1559 164.461 40.9602C164.461 42.8906 163.868 44.0367 162.682 44.3987C160.227 45.2432 157.527 45.7258 154.581 45.8465C153.804 49.2246 152.27 51.9392 149.979 53.9903C147.688 56.0011 145.09 57.0065 142.185 57.0065C139.731 57.0065 137.624 56.4233 135.864 55.2571C134.146 54.0908 132.837 52.5425 131.937 50.6121C131.037 48.6817 130.587 46.5905 130.587 44.3384C130.587 41.2819 131.18 38.5673 132.367 36.1946C133.553 33.7816 135.189 31.9116 137.276 30.5844C139.362 29.2171 141.674 28.5334 144.21 28.5334C147.32 28.5334 149.815 29.5991 151.697 31.7306C153.62 33.8218 154.745 36.4158 155.072 39.5124C156.995 39.3918 159.286 38.9896 161.945 38.3059C162.273 38.2255 162.559 38.1853 162.804 38.1853ZM142.676 50.6121C143.985 50.6121 145.11 50.0893 146.051 49.0437C147.033 47.998 147.688 46.4899 148.015 44.5193C146.747 43.6748 145.765 42.5689 145.069 41.2015C144.415 39.8342 144.088 38.3864 144.088 36.8582C144.088 36.2147 144.149 35.5712 144.272 34.9278H143.965C142.328 34.9278 140.958 35.712 139.853 37.2804C138.79 38.8086 138.258 40.9803 138.258 43.7955C138.258 46.0073 138.687 47.6964 139.546 48.8627C140.447 50.029 141.49 50.6121 142.676 50.6121Z" fill="url(#paint3_linear_529_237)"/>
<path d="M182.452 43.2525C182.984 43.2525 183.393 43.4938 183.68 43.9764C184.007 44.459 184.171 45.1226 184.171 45.9671C184.171 47.5758 183.782 48.8225 183.005 49.7072C181.245 51.8387 179.323 53.5881 177.236 54.9554C175.191 56.3228 172.859 57.0065 170.24 57.0065C166.64 57.0065 163.961 55.3978 162.201 52.1805C160.483 48.9632 159.624 44.8009 159.624 39.6934C159.624 34.787 160.258 29.197 161.526 22.9232C162.835 16.6495 164.738 11.2605 167.233 6.75632C169.77 2.25211 172.777 0 176.254 0C178.218 0 179.752 0.904865 180.857 2.71459C182.002 4.48411 182.575 7.03784 182.575 10.3758C182.575 15.1615 181.225 20.7113 178.525 27.0253C175.825 33.3392 172.163 39.5929 167.54 45.7862C167.827 47.435 168.297 48.6214 168.952 49.3453C169.606 50.029 170.465 50.3708 171.529 50.3708C173.206 50.3708 174.679 49.9083 175.948 48.9833C177.216 48.0182 178.832 46.3894 180.795 44.0971C181.286 43.534 181.839 43.2525 182.452 43.2525ZM174.904 5.97211C173.963 5.97211 172.9 7.64108 171.713 10.979C170.527 14.317 169.484 18.4592 168.583 23.4058C167.683 28.3524 167.193 33.0979 167.111 37.6424C170.015 32.9371 172.327 28.2318 174.045 23.5265C175.763 18.781 176.623 14.4577 176.623 10.5568C176.623 7.50032 176.05 5.97211 174.904 5.97211Z" fill="url(#paint4_linear_529_237)"/>
<path d="M186.759 57.0065C184.099 57.0065 182.156 56.0815 180.929 54.2316C179.742 52.3816 179.149 49.9284 179.149 46.872C179.149 45.0623 179.374 42.7498 179.824 39.9347C180.315 37.0793 180.929 34.4251 181.665 31.9719C182.033 30.685 182.524 29.8002 183.138 29.3176C183.752 28.835 184.733 28.5937 186.084 28.5937C188.17 28.5937 189.213 29.2774 189.213 30.6448C189.213 31.6502 188.825 33.9827 188.047 37.6424C187.065 42.0662 186.574 45.0623 186.574 46.6307C186.574 47.8372 186.738 48.7621 187.065 49.4056C187.393 50.0491 187.945 50.3708 188.722 50.3708C189.459 50.3708 190.379 49.8681 191.484 48.8627C192.588 47.8573 194.061 46.2687 195.902 44.0971C196.393 43.534 196.945 43.2525 197.559 43.2525C198.091 43.2525 198.5 43.4938 198.786 43.9764C199.114 44.459 199.277 45.1226 199.277 45.9671C199.277 47.5758 198.889 48.8225 198.111 49.7072C194.061 54.5734 190.277 57.0065 186.759 57.0065Z" fill="url(#paint5_linear_529_237)"/>
<path d="M204.683 57.0065C202.27 57.0065 200.204 56.4233 198.485 55.2571C196.808 54.0506 195.54 52.4822 194.681 50.5518C193.822 48.6214 193.392 46.5503 193.392 44.3384C193.392 41.2819 193.965 38.5673 195.11 36.1946C196.297 33.7816 197.892 31.9116 199.897 30.5844C201.901 29.2171 204.152 28.5334 206.647 28.5334C209.061 28.5334 211.127 29.1366 212.845 30.3431C214.563 31.5094 215.852 33.0577 216.711 34.9881C217.57 36.9185 218 38.9896 218 41.2015C218 44.2579 217.407 46.9926 216.22 49.4056C215.034 51.7784 213.418 53.6484 211.372 55.0158C209.368 56.3429 207.138 57.0065 204.683 57.0065ZM205.358 50.4914C206.749 50.4914 207.915 49.7474 208.856 48.2594C209.838 46.7714 210.329 44.5998 210.329 41.7444C210.329 39.5325 209.92 37.8636 209.102 36.7375C208.284 35.6115 207.302 35.0484 206.156 35.0484C204.683 35.0484 203.456 35.7924 202.474 37.2804C201.533 38.7282 201.063 40.8999 201.063 43.7955C201.063 46.0878 201.472 47.7769 202.29 48.8627C203.108 49.9485 204.131 50.4914 205.358 50.4914Z" fill="url(#paint6_linear_529_237)"/>
<path d="M194.886 20.9561C193.144 21.5962 192.338 21.9971 190.761 23.6306C191.164 22.6536 191.865 21.1856 193.529 20.1597C195.304 19.065 196.871 19.1947 197.554 19.2267C197.06 18.3915 196.814 17.9739 196.061 17.4244C195.304 17.6924 193.967 18.2821 192.726 19.5208C191.181 21.0625 190.451 22.7809 190.256 23.497C189.959 22.6459 189.394 20.8436 187.568 19.0441C186.744 18.2322 185.862 17.578 184.442 17.0365C184.092 18.4565 183.487 20.3956 183.138 21.8155C184.105 22.0555 185.946 22.7674 187.646 24.3501C188.689 25.3221 189.183 26.2853 189.564 27.0253C190.196 26.5666 191.311 26.0372 192.602 25.6738C194.894 25.0284 196.899 25.3794 197.79 25.6365L199.092 20.8623C198.442 20.6922 196.734 20.2457 194.886 20.9561Z" fill="url(#paint7_linear_529_237)"/>
<defs>
<linearGradient id="paint0_linear_529_237" x1="218.097" y1="45.2415" x2="0.103798" y2="45.86" gradientUnits="userSpaceOnUse">
<stop offset="0.0572917" stop-color="#F25C5E"/>
<stop offset="0.182292" stop-color="#F49768"/>
<stop offset="0.286458" stop-color="#EDA65C"/>
<stop offset="0.380208" stop-color="#D5B75F"/>
<stop offset="0.507788" stop-color="#AFD08E"/>
<stop offset="0.632801" stop-color="#88D19E"/>
<stop offset="0.745437" stop-color="#48C3A6"/>
<stop offset="0.828125" stop-color="#50BDC3"/>
<stop offset="0.958333" stop-color="#5EB3E0"/>
</linearGradient>
<linearGradient id="paint1_linear_529_237" x1="218.097" y1="45.2415" x2="0.103798" y2="45.86" gradientUnits="userSpaceOnUse">
<stop offset="0.0572917" stop-color="#F25C5E"/>
<stop offset="0.182292" stop-color="#F49768"/>
<stop offset="0.286458" stop-color="#EDA65C"/>
<stop offset="0.380208" stop-color="#D5B75F"/>
<stop offset="0.507788" stop-color="#AFD08E"/>
<stop offset="0.632801" stop-color="#88D19E"/>
<stop offset="0.745437" stop-color="#48C3A6"/>
<stop offset="0.828125" stop-color="#50BDC3"/>
<stop offset="0.958333" stop-color="#5EB3E0"/>
</linearGradient>
<linearGradient id="paint2_linear_529_237" x1="218.097" y1="45.2415" x2="0.103798" y2="45.86" gradientUnits="userSpaceOnUse">
<stop offset="0.0572917" stop-color="#F25C5E"/>
<stop offset="0.182292" stop-color="#F49768"/>
<stop offset="0.286458" stop-color="#EDA65C"/>
<stop offset="0.380208" stop-color="#D5B75F"/>
<stop offset="0.507788" stop-color="#AFD08E"/>
<stop offset="0.632801" stop-color="#88D19E"/>
<stop offset="0.745437" stop-color="#48C3A6"/>
<stop offset="0.828125" stop-color="#50BDC3"/>
<stop offset="0.958333" stop-color="#5EB3E0"/>
</linearGradient>
<linearGradient id="paint3_linear_529_237" x1="218.097" y1="45.2415" x2="0.103798" y2="45.86" gradientUnits="userSpaceOnUse">
<stop offset="0.0572917" stop-color="#F25C5E"/>
<stop offset="0.182292" stop-color="#F49768"/>
<stop offset="0.286458" stop-color="#EDA65C"/>
<stop offset="0.380208" stop-color="#D5B75F"/>
<stop offset="0.507788" stop-color="#AFD08E"/>
<stop offset="0.632801" stop-color="#88D19E"/>
<stop offset="0.745437" stop-color="#48C3A6"/>
<stop offset="0.828125" stop-color="#50BDC3"/>
<stop offset="0.958333" stop-color="#5EB3E0"/>
</linearGradient>
<linearGradient id="paint4_linear_529_237" x1="218.097" y1="45.2415" x2="0.103798" y2="45.86" gradientUnits="userSpaceOnUse">
<stop offset="0.0572917" stop-color="#F25C5E"/>
<stop offset="0.182292" stop-color="#F49768"/>
<stop offset="0.286458" stop-color="#EDA65C"/>
<stop offset="0.380208" stop-color="#D5B75F"/>
<stop offset="0.507788" stop-color="#AFD08E"/>
<stop offset="0.632801" stop-color="#88D19E"/>
<stop offset="0.745437" stop-color="#48C3A6"/>
<stop offset="0.828125" stop-color="#50BDC3"/>
<stop offset="0.958333" stop-color="#5EB3E0"/>
</linearGradient>
<linearGradient id="paint5_linear_529_237" x1="218.097" y1="45.2415" x2="0.103798" y2="45.86" gradientUnits="userSpaceOnUse">
<stop offset="0.0572917" stop-color="#F25C5E"/>
<stop offset="0.182292" stop-color="#F49768"/>
<stop offset="0.286458" stop-color="#EDA65C"/>
<stop offset="0.380208" stop-color="#D5B75F"/>
<stop offset="0.507788" stop-color="#AFD08E"/>
<stop offset="0.632801" stop-color="#88D19E"/>
<stop offset="0.745437" stop-color="#48C3A6"/>
<stop offset="0.828125" stop-color="#50BDC3"/>
<stop offset="0.958333" stop-color="#5EB3E0"/>
</linearGradient>
<linearGradient id="paint6_linear_529_237" x1="218.097" y1="45.2415" x2="0.103798" y2="45.86" gradientUnits="userSpaceOnUse">
<stop offset="0.0572917" stop-color="#F25C5E"/>
<stop offset="0.182292" stop-color="#F49768"/>
<stop offset="0.286458" stop-color="#EDA65C"/>
<stop offset="0.380208" stop-color="#D5B75F"/>
<stop offset="0.507788" stop-color="#AFD08E"/>
<stop offset="0.632801" stop-color="#88D19E"/>
<stop offset="0.745437" stop-color="#48C3A6"/>
<stop offset="0.828125" stop-color="#50BDC3"/>
<stop offset="0.958333" stop-color="#5EB3E0"/>
</linearGradient>
<linearGradient id="paint7_linear_529_237" x1="218.097" y1="45.2415" x2="0.103798" y2="45.86" gradientUnits="userSpaceOnUse">
<stop offset="0.0572917" stop-color="#F25C5E"/>
<stop offset="0.182292" stop-color="#F49768"/>
<stop offset="0.286458" stop-color="#EDA65C"/>
<stop offset="0.380208" stop-color="#D5B75F"/>
<stop offset="0.507788" stop-color="#AFD08E"/>
<stop offset="0.632801" stop-color="#88D19E"/>
<stop offset="0.745437" stop-color="#48C3A6"/>
<stop offset="0.828125" stop-color="#50BDC3"/>
<stop offset="0.958333" stop-color="#5EB3E0"/>
</linearGradient>
</defs>
</svg>
