<svg width="219" height="58" viewBox="0 0 219 58" fill="none" xmlns="http://www.w3.org/2000/svg">
<path d="M44.5063 46.2292C45.12 45.9853 45.6313 45.8633 46.0405 45.8633C46.695 45.8633 47.186 46.1073 47.5133 46.5952C47.8405 47.0831 48.0042 47.7133 48.0042 48.4858C48.0042 49.7056 47.6974 50.7424 47.0837 51.5962C46.5109 52.45 45.5086 53.2226 44.0767 53.9138C41.663 55.0522 38.5333 55.967 34.6876 56.6583C30.842 57.3088 27.0577 57.6341 23.3348 57.6341C18.18 57.6341 13.8638 57.0648 10.3864 55.9264C6.90895 54.7473 4.31109 53.1413 2.59282 51.1083C0.915461 49.0754 0.0767822 46.7781 0.0767822 44.2166C0.0767822 40.7199 1.20184 37.7518 3.45195 35.3123C5.74298 32.8321 9.09769 31.0431 13.5161 29.9453C11.1023 29.2541 9.24088 28.0343 7.93172 26.286C6.66348 24.5377 6.02935 22.586 6.02935 20.4311C6.02935 17.5037 6.94986 14.9218 8.79086 12.6856C10.6728 10.4087 13.1888 8.66036 16.339 7.44059C19.4891 6.22082 22.9461 5.61094 26.7099 5.61094C31.7829 5.61094 35.5877 6.70873 38.1241 8.90431C40.6606 11.0592 41.9289 13.8647 41.9289 17.3207C41.9289 19.7196 41.4789 21.6712 40.5788 23.1756C39.7197 24.6393 38.4719 25.3712 36.8355 25.3712C35.6899 25.3712 34.7899 25.1272 34.1353 24.6393C33.4807 24.1108 33.1534 23.3382 33.1534 22.3218C33.1534 21.6306 33.2557 20.8784 33.4603 20.0652C33.6648 18.7234 33.7671 17.8086 33.7671 17.3207C33.7671 15.857 33.2148 14.6779 32.1102 13.7834C31.0056 12.8482 29.1646 12.3807 26.5872 12.3807C23.1098 12.3807 20.3278 13.1125 18.2413 14.5762C16.1549 16.04 15.1116 18.0119 15.1116 20.4921C15.1116 22.4031 15.8889 23.9888 17.4436 25.2492C19.0391 26.469 21.6165 27.1399 25.1758 27.2618C26.0758 27.3025 26.7099 27.5058 27.0781 27.8717C27.4463 28.2376 27.6304 28.8475 27.6304 29.7014C27.6304 32.3849 26.4031 33.7469 23.9484 33.7876C20.5528 33.8689 17.7299 34.3365 15.4798 35.1903C13.2706 36.0442 11.6546 37.142 10.6319 38.4837C9.64999 39.7848 9.15906 41.1875 9.15906 42.6919C9.15906 45.2128 10.3455 47.1237 12.7183 48.4248C15.0912 49.6852 18.855 50.3155 24.0098 50.3155C27.4054 50.3155 30.9852 49.9292 34.749 49.1567C38.5537 48.3435 41.8062 47.3677 44.5063 46.2292Z" fill="#7D7E81"/>
<path d="M64.3287 43.7287C64.7787 47.0627 65.4333 50.3561 66.2924 53.6088C66.4561 54.1374 66.5379 54.6863 66.5379 55.2555C66.5379 57.0852 65.4128 58 63.1627 58C61.8945 58 60.9126 57.6544 60.2171 56.9632C59.5626 56.272 58.9489 54.9709 58.3761 53.0599L58.3148 52.816C56.7601 54.7269 55.3487 56.0077 54.0805 56.6583C52.8531 57.3088 51.4212 57.6341 49.7848 57.6341C47.2892 57.6341 45.2232 56.7192 43.5867 54.8896C41.9912 53.0193 41.1934 50.6001 41.1934 47.632C41.1934 44.3792 41.8889 41.3705 43.2799 38.6057C44.6709 35.8409 46.5733 33.5843 48.987 31.836C51.4008 30.047 54.1009 28.9695 57.0874 28.6036C57.8647 20.919 59.3375 14.2306 61.5058 8.53838C63.715 2.84613 66.6402 0 70.2813 0C72.0405 0 73.4928 0.79285 74.6383 2.37855C75.8247 3.96425 76.4179 6.36313 76.4179 9.57518C76.4179 14.0477 75.3133 19.2723 73.1041 25.2492C70.8949 31.2261 67.9698 37.3859 64.3287 43.7287ZM69.6062 5.97687C68.4198 5.97687 67.2948 8.98563 66.2311 15.0032C65.2083 21.0207 64.5128 27.5668 64.1446 34.6414C68.6857 24.8833 70.9563 16.9548 70.9563 10.8559C70.9563 9.3109 70.8131 8.11146 70.5267 7.25762C70.2813 6.40378 69.9744 5.97687 69.6062 5.97687ZM51.9326 51.4742C52.7508 51.4742 53.5282 51.1693 54.2646 50.5594C55.0419 49.9495 56.0237 48.7704 57.2102 47.0221C56.801 44.054 56.5965 40.9842 56.5965 37.8128C56.5965 36.5524 56.6169 35.5766 56.6579 34.8854C54.4077 35.5359 52.5463 37.02 51.0735 39.3375C49.6007 41.6551 48.8643 44.2166 48.8643 47.0221C48.8643 49.9902 49.8871 51.4742 51.9326 51.4742Z" fill="#7D7E81"/>
<path d="M139.982 6.76971C141.128 6.93235 141.905 7.27795 142.314 7.80652C142.764 8.33509 142.989 9.02629 142.989 9.88013C142.989 12.6856 141.476 13.9867 138.448 13.7834L136.3 13.6004C133.887 13.3971 131.473 13.2345 129.059 13.1125C126.686 12.9905 124.191 12.9295 121.572 12.9295H118.811C118.32 18.9471 117.809 24.436 117.277 29.3964L127.832 29.2135C129.345 29.2135 130.348 29.4777 130.839 30.0063C131.371 30.5349 131.636 31.2464 131.636 32.1409C131.636 33.5233 131.227 34.6211 130.409 35.4343C129.591 36.2068 128.425 36.5931 126.911 36.5931H116.418L116.049 39.2156C115.19 45.9243 113.349 50.7017 110.526 53.5478C107.744 56.394 103.899 57.817 98.9894 57.817C96.2074 57.817 93.6505 57.2275 91.3185 56.0484C88.9866 54.8286 87.2683 53.3649 86.1637 51.6572C85.7137 50.966 85.4887 50.1325 85.4887 49.1567C85.4887 48.1809 85.7137 47.327 86.1637 46.5952C86.6547 45.8633 87.2479 45.4974 87.9434 45.4974C88.4343 45.4974 88.9048 45.66 89.3548 45.9853C89.8457 46.3105 90.4594 46.9408 91.1958 47.8759C93.1596 50.4374 95.5938 51.7182 98.4985 51.7182C100.83 51.7182 102.774 50.783 104.328 48.9127C105.924 47.0017 106.947 44.0133 107.397 39.9474L107.765 36.5931H104.819C103.878 36.5931 103.06 36.3288 102.365 35.8002C101.71 35.2716 101.383 34.5195 101.383 33.5436C101.383 32.2832 101.71 31.3277 102.365 30.6772C103.019 29.986 103.981 29.6404 105.249 29.6404C106.394 29.6404 107.519 29.62 108.624 29.5794C109.115 25.1069 109.647 19.6789 110.219 13.2955C105.801 13.7021 102.692 14.4136 100.892 15.4301C99.0917 16.4465 98.1916 17.9509 98.1916 19.9432C98.1916 21.3256 98.6007 22.647 99.419 23.9075C99.6644 24.2734 99.7872 24.6393 99.7872 25.0053C99.7872 25.7371 99.378 26.3877 98.5598 26.9569C97.7416 27.4855 96.8211 27.7497 95.7983 27.7497C94.6937 27.7497 93.7528 27.4245 92.9754 26.7739C92.4845 26.3673 92.014 25.5338 91.564 24.2734C91.114 23.013 90.889 21.6102 90.889 20.0652C90.889 15.0235 93.4868 11.3642 98.6826 9.08728C103.919 6.81038 111.549 5.67192 121.572 5.67192C128.527 5.67192 134.664 6.03785 139.982 6.76971Z" fill="#7D7E81"/>
<path d="M162.881 38.6057C163.413 38.6057 163.822 38.87 164.109 39.3985C164.395 39.9271 164.538 40.598 164.538 41.4111C164.538 43.3628 163.945 44.5216 162.759 44.8875C160.304 45.7413 157.604 46.2292 154.658 46.3512C153.881 49.7666 152.347 52.511 150.056 54.5846C147.765 56.6176 145.167 57.6341 142.262 57.6341C139.807 57.6341 137.7 57.0445 135.941 55.8654C134.223 54.6863 132.914 53.1209 132.014 51.1693C131.114 49.2177 130.664 47.1034 130.664 44.8265C130.664 41.7364 131.257 38.9919 132.443 36.5931C133.63 34.1535 135.266 32.2629 137.353 30.9211C139.439 29.5387 141.751 28.8475 144.287 28.8475C147.396 28.8475 149.892 29.925 151.774 32.0799C153.697 34.1942 154.822 36.8167 155.149 39.9474C157.072 39.8254 159.363 39.4189 162.022 38.7277C162.349 38.6463 162.636 38.6057 162.881 38.6057ZM142.753 51.1693C144.062 51.1693 145.187 50.6407 146.128 49.5836C147.11 48.5265 147.765 47.0018 148.092 45.0095C146.824 44.1556 145.842 43.0375 145.146 41.6551C144.492 40.2727 144.164 38.809 144.164 37.2639C144.164 36.6134 144.226 35.9628 144.349 35.3123H144.042C142.405 35.3123 141.035 36.1051 139.93 37.6908C138.866 39.2359 138.335 41.4315 138.335 44.2776C138.335 46.5138 138.764 48.2215 139.623 49.4006C140.523 50.5797 141.567 51.1693 142.753 51.1693Z" fill="#7D7E81"/>
<path d="M182.529 43.7287C183.061 43.7287 183.47 43.9727 183.756 44.4606C184.084 44.9485 184.247 45.6193 184.247 46.4732C184.247 48.0995 183.859 49.36 183.081 50.2545C181.322 52.4094 179.399 54.1781 177.313 55.5605C175.267 56.9429 172.935 57.6341 170.317 57.6341C166.717 57.6341 164.037 56.0077 162.278 52.755C160.56 49.5023 159.701 45.2941 159.701 40.1304C159.701 35.17 160.335 29.5184 161.603 23.1756C162.912 16.8328 164.815 11.3845 167.31 6.8307C169.847 2.2769 172.854 0 176.331 0C178.295 0 179.829 0.914827 180.934 2.74448C182.079 4.53348 182.652 7.11532 182.652 10.49C182.652 15.3284 181.302 20.9394 178.602 27.3228C175.902 33.7063 172.24 40.0287 167.617 46.2902C167.903 47.9572 168.374 49.1567 169.028 49.8885C169.683 50.5797 170.542 50.9253 171.606 50.9253C173.283 50.9253 174.756 50.4578 176.024 49.5226C177.293 48.5468 178.909 46.9001 180.872 44.5825C181.363 44.0133 181.915 43.7287 182.529 43.7287ZM174.981 6.03786C174.04 6.03786 172.976 7.7252 171.79 11.0999C170.604 14.4746 169.56 18.6625 168.66 23.6635C167.76 28.6646 167.269 33.4623 167.187 38.0568C170.092 33.2997 172.404 28.5426 174.122 23.7855C175.84 18.9877 176.699 14.6169 176.699 10.673C176.699 7.5829 176.127 6.03786 174.981 6.03786Z" fill="#7D7E81"/>
<path d="M186.835 57.6341C184.176 57.6341 182.233 56.6989 181.006 54.8286C179.819 52.9583 179.226 50.4781 179.226 47.388C179.226 45.5584 179.451 43.2205 179.901 40.3743C180.392 37.4876 181.006 34.8041 181.742 32.3239C182.11 31.0228 182.601 30.1283 183.215 29.6404C183.828 29.1525 184.81 28.9085 186.16 28.9085C188.247 28.9085 189.29 29.5997 189.29 30.9821C189.29 31.9986 188.901 34.3568 188.124 38.0568C187.142 42.5293 186.651 45.5584 186.651 47.1441C186.651 48.3638 186.815 49.299 187.142 49.9495C187.469 50.6001 188.022 50.9253 188.799 50.9253C189.535 50.9253 190.456 50.4171 191.561 49.4006C192.665 48.3842 194.138 46.7781 195.979 44.5825C196.47 44.0133 197.022 43.7287 197.636 43.7287C198.168 43.7287 198.577 43.9727 198.863 44.4606C199.191 44.9485 199.354 45.6193 199.354 46.4732C199.354 48.0995 198.966 49.36 198.188 50.2545C194.138 55.1742 190.354 57.6341 186.835 57.6341Z" fill="#7D7E81"/>
<path d="M204.76 57.6341C202.346 57.6341 200.28 57.0445 198.562 55.8654C196.885 54.6456 195.617 53.0599 194.757 51.1083C193.898 49.1567 193.469 47.0627 193.469 44.8265C193.469 41.7364 194.041 38.9919 195.187 36.5931C196.373 34.1535 197.969 32.2629 199.974 30.9211C201.978 29.5387 204.228 28.8475 206.724 28.8475C209.138 28.8475 211.204 29.4574 212.922 30.6772C214.64 31.8563 215.929 33.4217 216.788 35.3733C217.647 37.3249 218.077 39.4189 218.077 41.6551C218.077 44.7452 217.484 47.51 216.297 49.9495C215.111 52.3484 213.495 54.239 211.449 55.6214C209.445 56.9632 207.215 57.6341 204.76 57.6341ZM205.435 51.0473C206.826 51.0473 207.992 50.2951 208.933 48.7907C209.915 47.2864 210.406 45.0908 210.406 42.204C210.406 39.9678 209.997 38.2804 209.179 37.142C208.36 36.0035 207.379 35.4343 206.233 35.4343C204.76 35.4343 203.533 36.1865 202.551 37.6908C201.61 39.1546 201.14 41.3502 201.14 44.2776C201.14 46.5952 201.549 48.3028 202.367 49.4006C203.185 50.4984 204.208 51.0473 205.435 51.0473Z" fill="#7D7E81"/>
<path d="M194.962 21.1868C193.221 21.8339 192.415 22.2392 190.837 23.8907C191.241 22.903 191.942 21.4188 193.606 20.3816C195.381 19.2749 196.948 19.4061 197.631 19.4383C197.137 18.594 196.89 18.1718 196.138 17.6162C195.381 17.8872 194.044 18.4833 192.802 19.7357C191.258 21.2944 190.528 23.0317 190.333 23.7557C190.036 22.8952 189.47 21.0731 187.645 19.2538C186.821 18.4329 185.939 17.7716 184.518 17.2241C184.169 18.6597 183.564 20.6201 183.215 22.0557C184.182 22.2983 186.023 23.018 187.722 24.6181C188.766 25.6008 189.26 26.5747 189.641 27.3228C190.273 26.8591 191.387 26.3239 192.678 25.9564C194.971 25.304 196.976 25.6589 197.867 25.9187L199.169 21.0919C198.518 20.92 196.811 20.4686 194.962 21.1868Z" fill="#7D7E81"/>
</svg>
