<svg width="226" height="51" viewBox="0 0 226 51" fill="none" xmlns="http://www.w3.org/2000/svg">
<g clip-path="url(#clip0_529_1565)">
<path d="M46.942 33.8802L46.5536 31.5159L44.3103 17.827L42.5424 7.00622C42.5156 6.85845 42.4487 6.72412 42.3348 6.63008C38.9665 3.62094 34.8482 1.43798 30.2946 0.403585C29.8661 0.302833 29.471 0.678975 29.5312 1.12229L31.8281 17.2964C32.5045 22.0922 28.8214 26.3775 24 26.4313C19.1786 26.3775 15.4955 22.0922 16.1719 17.2964L18.4688 1.11557C18.529 0.678975 18.1406 0.302833 17.7054 0.396869C13.1518 1.43126 9.03348 3.61423 5.66518 6.62336C5.55804 6.72412 5.48438 6.85845 5.45759 6.99951L3.68973 17.8203L1.44643 31.4958L1.05804 33.8668L0.00669643 40.2747H0C2.30357 44.3921 5.6317 47.8445 9.63616 50.2894C10.0112 50.5178 10.5067 50.2894 10.5871 49.8528L10.6808 49.3357C11.2031 46.2862 12.7098 43.6331 14.846 41.6583C17.2701 39.4082 20.4978 38.0514 24 38.0312C27.5022 38.0514 30.7366 39.4082 33.154 41.6583C35.2902 43.6331 36.7902 46.2862 37.3192 49.3357L37.4129 49.8528C37.4933 50.2894 37.9821 50.5245 38.3638 50.2894C42.3683 47.8445 45.6964 44.3921 48 40.2747L46.9487 33.8601L46.942 33.8802Z" fill="white"/>
<path d="M50 25.422C50 23.6677 50.2229 21.9778 50.6735 20.3622C51.1192 18.7467 51.7581 17.2303 52.5852 15.8129C53.4122 14.3956 54.4027 13.1072 55.5566 11.9475C56.7105 10.7879 57.9883 9.79677 59.3948 8.97909C60.8013 8.16141 62.3167 7.52213 63.9312 7.06621C65.5457 6.61028 67.2345 6.38232 68.9876 6.38232C70.7408 6.38232 72.4097 6.61028 74.0341 7.06621C75.6585 7.52213 77.174 8.16141 78.5805 8.97909C79.987 9.80173 81.2746 10.7879 82.4335 11.9475C83.5923 13.1072 84.5828 14.3956 85.4049 15.8129C86.227 17.2303 86.8609 18.7467 87.3166 20.3622C87.7722 21.9778 88 23.6627 88 25.422C88 27.1812 87.7722 28.8662 87.3166 30.4817C86.8609 32.0972 86.2221 33.6038 85.4049 35.0062C84.5828 36.4087 83.5923 37.6823 82.4335 38.832C81.2746 39.9817 79.987 40.9728 78.5805 41.8004C77.174 42.628 75.6536 43.2673 74.0341 43.7133C72.4097 44.1593 70.7309 44.3823 68.9876 44.3823C67.2444 44.3823 65.5457 44.1593 63.9312 43.7133C62.3167 43.2673 60.8013 42.628 59.3948 41.8004C57.9883 40.9728 56.7056 39.9817 55.5566 38.832C54.4027 37.6823 53.4122 36.4037 52.5852 35.0062C51.7581 33.6038 51.1192 32.0972 50.6735 30.4817C50.2278 28.8662 50 27.1812 50 25.422ZM59.6127 25.3972C59.6127 26.7749 59.8454 28.0584 60.306 29.2477C60.7666 30.4421 61.4203 31.4827 62.2523 32.3648C63.0893 33.2519 64.0748 33.9457 65.2188 34.4512C66.3579 34.9567 67.6158 35.2094 68.9876 35.2094C70.3594 35.2094 71.6223 34.9567 72.7713 34.4512C73.9202 33.9457 74.9107 33.2519 75.7477 32.3648C76.5846 31.4778 77.2334 30.4371 77.694 29.2477C78.1546 28.0534 78.3873 26.7699 78.3873 25.3972C78.3873 24.0245 78.1546 22.7608 77.694 21.5566C77.2285 20.3573 76.5797 19.3067 75.7477 18.4147C74.9157 17.5226 73.9202 16.814 72.7713 16.3036C71.6223 15.7882 70.3594 15.5354 68.9876 15.5354C67.6158 15.5354 66.3579 15.7931 65.2188 16.3036C64.0798 16.8189 63.0893 17.5226 62.2523 18.4147C61.4154 19.3067 60.7666 20.3573 60.306 21.5566C59.8405 22.7558 59.6127 24.0393 59.6127 25.3972Z" fill="white"/>
<path d="M90 25.422C90 23.6677 90.2229 21.9778 90.6735 20.3622C91.1192 18.7467 91.7581 17.2303 92.5852 15.8129C93.4122 14.3956 94.4027 13.1072 95.5566 11.9475C96.7105 10.7879 97.9883 9.79677 99.3948 8.97909C100.801 8.16141 102.317 7.52213 103.931 7.06621C105.546 6.61028 107.234 6.38232 108.988 6.38232C110.741 6.38232 112.41 6.61028 114.034 7.06621C115.659 7.52213 117.174 8.16141 118.58 8.97909C119.987 9.80173 121.275 10.7879 122.433 11.9475C123.592 13.1072 124.583 14.3956 125.405 15.8129C126.227 17.2303 126.861 18.7467 127.317 20.3622C127.772 21.9778 128 23.6627 128 25.422C128 27.1812 127.772 28.8662 127.317 30.4817C126.861 32.0972 126.222 33.6038 125.405 35.0062C124.583 36.4087 123.592 37.6823 122.433 38.832C121.275 39.9817 119.987 40.9728 118.58 41.8004C117.174 42.628 115.654 43.2673 114.034 43.7133C112.41 44.1593 110.731 44.3823 108.988 44.3823C107.244 44.3823 105.546 44.1593 103.931 43.7133C102.317 43.2673 100.801 42.628 99.3948 41.8004C97.9883 40.9728 96.7056 39.9817 95.5566 38.832C94.4027 37.6823 93.4122 36.4037 92.5852 35.0062C91.7581 33.6038 91.1192 32.0972 90.6735 30.4817C90.2278 28.8662 90 27.1812 90 25.422ZM99.6127 25.3972C99.6127 26.7749 99.8454 28.0584 100.306 29.2477C100.767 30.4421 101.42 31.4827 102.252 32.3648C103.089 33.2519 104.075 33.9457 105.219 34.4512C106.358 34.9567 107.616 35.2094 108.988 35.2094C110.359 35.2094 111.622 34.9567 112.771 34.4512C113.92 33.9457 114.911 33.2519 115.748 32.3648C116.585 31.4778 117.233 30.4371 117.694 29.2477C118.155 28.0534 118.387 26.7699 118.387 25.3972C118.387 24.0245 118.155 22.7608 117.694 21.5566C117.228 20.3573 116.58 19.3067 115.748 18.4147C114.916 17.5226 113.92 16.814 112.771 16.3036C111.622 15.7882 110.359 15.5354 108.988 15.5354C107.616 15.5354 106.358 15.7931 105.219 16.3036C104.08 16.8189 103.089 17.5226 102.252 18.4147C101.415 19.3067 100.767 20.3573 100.306 21.5566C99.8405 22.7558 99.6127 24.0393 99.6127 25.3972Z" fill="white"/>
<path d="M143.871 43.8415C143.686 43.5354 143.526 43.2191 143.38 42.8925C143.24 42.5711 143.1 42.2344 142.965 41.8925L130.08 7.53028C130.08 7.44355 130.065 7.36702 130.04 7.30069C130.015 7.23437 130 7.16294 130 7.09661C130 6.61702 130.31 6.38232 130.931 6.38232H139.019C139.655 6.38232 140.09 6.70885 140.326 7.35681L147.987 30.6425C148.674 28.6987 149.33 26.7599 149.96 24.8211C150.586 22.8874 151.207 20.9436 151.818 18.9997C152.429 17.0558 153.05 15.1119 153.676 13.1782C154.302 11.2446 154.963 9.30069 155.649 7.35681C155.885 6.70885 156.345 6.38232 157.031 6.38232H164.943C165.329 6.38232 165.599 6.45375 165.76 6.60171C165.92 6.74457 166 6.93845 166 7.17824C166 7.316 165.99 7.40783 165.975 7.45886V7.53539L153.015 41.9027C152.93 42.1425 152.83 42.4078 152.715 42.6936C152.6 42.9844 152.464 43.2548 152.314 43.4997C152.164 43.7497 151.989 43.9589 151.788 44.1272C151.588 44.2956 151.363 44.3823 151.112 44.3823H144.908C144.387 44.3823 144.046 44.2038 143.876 43.8466L143.871 43.8415Z" fill="white"/>
<path d="M168 7.56121C168 7.20397 168.093 6.91818 168.283 6.70384C168.468 6.4895 168.736 6.38232 169.077 6.38232H193.333C193.689 6.38232 193.967 6.4946 194.166 6.71405C194.366 6.93349 194.459 7.23459 194.459 7.60714V13.9354C194.459 14.2263 194.361 14.5019 194.166 14.7621C193.971 15.0275 193.684 15.1602 193.309 15.1602H177.466V21.5088H189.692C189.999 21.5088 190.257 21.5854 190.462 21.7385C190.667 21.8916 190.769 22.1468 190.769 22.504V28.031C190.769 28.2709 190.681 28.5005 190.501 28.72C190.32 28.9445 190.062 29.0517 189.721 29.0517H177.471V35.6045H193.898C194.63 35.6045 195 35.9974 195 36.7782V43.2085C195 43.377 194.937 43.5301 194.805 43.6678C194.742 44.1425 194.405 44.3823 193.801 44.3823H169.082C168.756 44.3823 168.497 44.2905 168.302 44.1118C168.107 43.9332 168.01 43.6576 168.01 43.28V7.56121H168Z" fill="white"/>
<path d="M203.816 32.0296C204.1 32.2614 204.46 32.572 204.904 32.9567C205.348 33.3462 205.852 33.726 206.416 34.1057C207.269 34.6678 208.107 35.1018 208.945 35.4174C209.779 35.733 210.657 35.8858 211.575 35.8858C212.428 35.8858 213.137 35.7921 213.715 35.5998C214.289 35.4124 214.743 35.1609 215.078 34.8453C215.412 34.5297 215.651 34.1698 215.791 33.7605C215.931 33.3462 216.006 32.9123 216.006 32.4488C216.006 31.9359 215.811 31.4822 215.417 31.0779C215.023 30.6735 214.544 30.3185 213.98 30.0029C213.411 29.6922 212.817 29.421 212.204 29.1991C211.585 28.9772 211.051 28.7898 210.602 28.6419C208.601 27.9515 206.85 27.2069 205.348 26.4031C203.846 25.6042 202.593 24.7166 201.595 23.7353C200.593 22.754 199.844 21.674 199.345 20.5004C198.846 19.3219 198.597 18.0101 198.597 16.5604C198.597 15.0268 198.911 13.6362 199.535 12.3836C200.158 11.1311 201.052 10.061 202.214 9.1734C203.372 8.28578 204.769 7.5954 206.406 7.11215C208.042 6.62395 209.868 6.38232 211.884 6.38232C213.401 6.38232 214.858 6.54999 216.25 6.89024C217.642 7.23049 219.014 7.768 220.367 8.51261C220.935 8.843 221.469 9.18326 221.983 9.53831C222.492 9.89335 222.936 10.2336 223.321 10.564C223.705 10.8944 224.009 11.2051 224.234 11.5059C224.458 11.8017 224.573 12.0582 224.573 12.2702C224.573 12.4822 224.518 12.6844 224.408 12.862C224.299 13.0444 224.139 13.2515 223.919 13.4784L220.092 17.5121C219.808 17.7932 219.523 17.9312 219.239 17.9312C219.004 17.9312 218.795 17.8671 218.6 17.734C218.411 17.6009 218.196 17.4381 217.962 17.2409L217.737 17.0436C217.403 16.7625 217.034 16.4765 216.624 16.1807C216.215 15.8848 215.776 15.6136 215.312 15.3769C214.843 15.1402 214.354 14.9429 213.835 14.7851C213.316 14.6273 212.792 14.5484 212.258 14.5484C211.725 14.5484 211.191 14.5928 210.707 14.6865C210.223 14.7753 209.799 14.9232 209.429 15.1205C209.06 15.3177 208.771 15.5791 208.556 15.8996C208.337 16.2201 208.232 16.6146 208.232 17.0732C208.232 17.5318 208.347 17.9362 208.581 18.2715C208.816 18.6118 209.165 18.9224 209.634 19.2134C210.103 19.5043 210.682 19.7755 211.375 20.0319C212.069 20.2884 212.872 20.5645 213.79 20.8604C215.557 21.4373 217.188 22.0439 218.68 22.68C220.172 23.3161 221.464 24.0657 222.547 24.9287C223.63 25.7916 224.478 26.8272 225.087 28.0304C225.696 29.2336 226 30.6933 226 32.4093C226 34.224 225.626 35.8661 224.872 37.3455C224.124 38.8199 223.091 40.0774 221.784 41.1179C220.476 42.1583 218.935 42.9621 217.168 43.5292C215.402 44.0963 213.496 44.3823 211.46 44.3823C209.544 44.3823 207.658 44.0421 205.807 43.3665C203.956 42.6909 202.229 41.7786 200.627 40.6395C199.959 40.1612 199.395 39.6878 198.936 39.2243C198.477 38.7607 198.113 38.3909 197.848 38.1098L197.773 38.0358C197.758 38.0013 197.738 37.9816 197.723 37.9767C197.709 37.9668 197.689 37.9569 197.674 37.9372C197.659 37.9027 197.639 37.883 197.624 37.878C197.609 37.8682 197.589 37.8583 197.574 37.8386C197.19 37.4244 197 37.094 197 36.8474C197 36.5663 197.19 36.2507 197.574 35.9056L201.905 31.8225C202.254 31.5759 202.539 31.4527 202.758 31.4527C202.908 31.4527 203.067 31.502 203.232 31.6006C203.397 31.6992 203.601 31.8472 203.831 32.0444L203.816 32.0296Z" fill="white"/>
</g>
<defs>
<clipPath id="clip0_529_1565">
<rect width="226" height="50" fill="white" transform="translate(0 0.382324)"/>
</clipPath>
</defs>
</svg>
