<svg width="226" height="50" viewBox="0 0 226 50" fill="none" xmlns="http://www.w3.org/2000/svg">
<g clip-path="url(#clip0_102_230)">
<path d="M46.942 33.4979L46.5536 31.1336L44.3103 17.4447L42.5424 6.6239C42.5156 6.47613 42.4487 6.34179 42.3348 6.24776C38.9665 3.23862 34.8482 1.05565 30.2946 0.0212613C29.8661 -0.0794911 29.471 0.296651 29.5313 0.739962L31.8281 16.9141C32.5045 21.7099 28.8214 25.9952 24 26.049C19.1786 25.9952 15.4955 21.7099 16.1719 16.9141L18.4687 0.733245C18.529 0.296651 18.1406 -0.0794911 17.7054 0.0145444C13.1518 1.04894 9.03348 3.2319 5.66518 6.24104C5.55804 6.34179 5.48438 6.47613 5.45759 6.61718L3.68973 17.438L1.44643 31.1134L1.05804 33.4845L0.00669643 39.8923H0C2.30357 44.0097 5.6317 47.4622 9.63616 49.9071C10.0112 50.1355 10.5067 49.9071 10.5871 49.4705L10.6808 48.9533C11.2031 45.9039 12.7098 43.2507 14.846 41.276C17.2701 39.0259 20.4978 37.6691 24 37.6489C27.5022 37.6691 30.7366 39.0259 33.154 41.276C35.2902 43.2507 36.7902 45.9039 37.3192 48.9533L37.4129 49.4705C37.4933 49.9071 37.9821 50.1422 38.3638 49.9071C42.3683 47.4622 45.6964 44.0097 48 39.8923L46.9487 33.4778L46.942 33.4979Z" fill="#7E7E82"/>
<path d="M50 25.0396C50 23.2853 50.2229 21.5955 50.6735 19.9799C51.1192 18.3644 51.7581 16.8479 52.5852 15.4306C53.4122 14.0133 54.4027 12.7248 55.5566 11.5652C56.7105 10.4056 57.9883 9.41445 59.3948 8.59677C60.8013 7.77908 62.3167 7.1398 63.9312 6.68388C65.5457 6.22796 67.2345 6 68.9876 6C70.7408 6 72.4097 6.22796 74.0341 6.68388C75.6585 7.1398 77.174 7.77908 78.5805 8.59677C79.987 9.41941 81.2746 10.4056 82.4335 11.5652C83.5923 12.7248 84.5828 14.0133 85.4049 15.4306C86.227 16.8479 86.8609 18.3644 87.3166 19.9799C87.7722 21.5955 88 23.2804 88 25.0396C88 26.7989 87.7722 28.4838 87.3166 30.0994C86.8609 31.7149 86.2221 33.2214 85.4049 34.6239C84.5828 36.0263 83.5923 37.2999 82.4335 38.4497C81.2746 39.5994 79.987 40.5905 78.5805 41.4181C77.174 42.2457 75.6536 42.885 74.0341 43.331C72.4097 43.777 70.7309 44 68.9876 44C67.2444 44 65.5457 43.777 63.9312 43.331C62.3167 42.885 60.8013 42.2457 59.3948 41.4181C57.9883 40.5905 56.7056 39.5994 55.5566 38.4497C54.4027 37.2999 53.4122 36.0214 52.5852 34.6239C51.7581 33.2214 51.1192 31.7149 50.6735 30.0994C50.2278 28.4838 50 26.7989 50 25.0396ZM59.6127 25.0149C59.6127 26.3925 59.8454 27.6761 60.306 28.8654C60.7666 30.0597 61.4203 31.1004 62.2523 31.9825C63.0893 32.8696 64.0748 33.5634 65.2188 34.0689C66.3579 34.5743 67.6158 34.8271 68.9876 34.8271C70.3594 34.8271 71.6223 34.5743 72.7713 34.0689C73.9202 33.5634 74.9107 32.8696 75.7477 31.9825C76.5846 31.0955 77.2334 30.0548 77.694 28.8654C78.1546 27.6711 78.3873 26.3876 78.3873 25.0149C78.3873 23.6421 78.1546 22.3785 77.694 21.1742C77.2285 19.975 76.5797 18.9244 75.7477 18.0323C74.9157 17.1403 73.9202 16.4317 72.7713 15.9212C71.6223 15.4058 70.3594 15.1531 68.9876 15.1531C67.6158 15.1531 66.3579 15.4108 65.2188 15.9212C64.0798 16.4366 63.0893 17.1403 62.2523 18.0323C61.4154 18.9244 60.7666 19.975 60.306 21.1742C59.8405 22.3735 59.6127 23.657 59.6127 25.0149Z" fill="#7E7E82"/>
<path d="M90 25.0396C90 23.2853 90.2229 21.5955 90.6735 19.9799C91.1192 18.3644 91.7581 16.8479 92.5852 15.4306C93.4122 14.0133 94.4027 12.7248 95.5566 11.5652C96.7105 10.4056 97.9883 9.41445 99.3948 8.59677C100.801 7.77908 102.317 7.1398 103.931 6.68388C105.546 6.22796 107.234 6 108.988 6C110.741 6 112.41 6.22796 114.034 6.68388C115.659 7.1398 117.174 7.77908 118.58 8.59677C119.987 9.41941 121.275 10.4056 122.433 11.5652C123.592 12.7248 124.583 14.0133 125.405 15.4306C126.227 16.8479 126.861 18.3644 127.317 19.9799C127.772 21.5955 128 23.2804 128 25.0396C128 26.7989 127.772 28.4838 127.317 30.0994C126.861 31.7149 126.222 33.2214 125.405 34.6239C124.583 36.0263 123.592 37.2999 122.433 38.4497C121.275 39.5994 119.987 40.5905 118.58 41.4181C117.174 42.2457 115.654 42.885 114.034 43.331C112.41 43.777 110.731 44 108.988 44C107.244 44 105.546 43.777 103.931 43.331C102.317 42.885 100.801 42.2457 99.3948 41.4181C97.9883 40.5905 96.7056 39.5994 95.5566 38.4497C94.4027 37.2999 93.4122 36.0214 92.5852 34.6239C91.7581 33.2214 91.1192 31.7149 90.6735 30.0994C90.2278 28.4838 90 26.7989 90 25.0396ZM99.6127 25.0149C99.6127 26.3925 99.8454 27.6761 100.306 28.8654C100.767 30.0597 101.42 31.1004 102.252 31.9825C103.089 32.8696 104.075 33.5634 105.219 34.0689C106.358 34.5743 107.616 34.8271 108.988 34.8271C110.359 34.8271 111.622 34.5743 112.771 34.0689C113.92 33.5634 114.911 32.8696 115.748 31.9825C116.585 31.0955 117.233 30.0548 117.694 28.8654C118.155 27.6711 118.387 26.3876 118.387 25.0149C118.387 23.6421 118.155 22.3785 117.694 21.1742C117.228 19.975 116.58 18.9244 115.748 18.0323C114.916 17.1403 113.92 16.4317 112.771 15.9212C111.622 15.4058 110.359 15.1531 108.988 15.1531C107.616 15.1531 106.358 15.4108 105.219 15.9212C104.08 16.4366 103.089 17.1403 102.252 18.0323C101.415 18.9244 100.767 19.975 100.306 21.1742C99.8405 22.3735 99.6127 23.657 99.6127 25.0149Z" fill="#7E7E82"/>
<path d="M143.871 43.4592C143.686 43.1531 143.526 42.8367 143.38 42.5102C143.24 42.1888 143.1 41.852 142.965 41.5102L130.08 7.14796C130.08 7.06122 130.065 6.98469 130.04 6.91837C130.015 6.85204 130 6.78061 130 6.71429C130 6.23469 130.31 6 130.931 6H139.019C139.655 6 140.09 6.32653 140.326 6.97449L147.987 30.2602C148.674 28.3163 149.33 26.3776 149.96 24.4388C150.586 22.5051 151.207 20.5612 151.818 18.6173C152.429 16.6735 153.05 14.7296 153.676 12.7959C154.302 10.8622 154.963 8.91837 155.649 6.97449C155.885 6.32653 156.345 6 157.031 6H164.943C165.329 6 165.599 6.07143 165.76 6.21939C165.92 6.36224 166 6.55612 166 6.79592C166 6.93367 165.99 7.02551 165.975 7.07653V7.15306L153.015 41.5204C152.93 41.7602 152.83 42.0255 152.715 42.3112C152.6 42.602 152.464 42.8725 152.314 43.1174C152.164 43.3674 151.989 43.5765 151.788 43.7449C151.588 43.9133 151.363 44 151.112 44H144.908C144.387 44 144.046 43.8214 143.876 43.4643L143.871 43.4592Z" fill="#7E7E82"/>
<path d="M168 7.17889C168 6.82165 168.093 6.53586 168.283 6.32151C168.468 6.10717 168.736 6 169.077 6H193.333C193.689 6 193.967 6.11228 194.166 6.33172C194.366 6.55117 194.459 6.85227 194.459 7.22482V13.553C194.459 13.8439 194.361 14.1195 194.166 14.3798C193.971 14.6452 193.684 14.7779 193.309 14.7779H177.466V21.1265H189.692C189.999 21.1265 190.257 21.2031 190.462 21.3562C190.667 21.5093 190.769 21.7644 190.769 22.1217V27.6487C190.769 27.8885 190.681 28.1182 190.501 28.3376C190.32 28.5622 190.062 28.6694 189.721 28.6694H177.471V35.2221H193.898C194.63 35.2221 195 35.6151 195 36.3959V42.8262C195 42.9946 194.937 43.1477 194.805 43.2855C194.742 43.7601 194.405 44 193.801 44H169.082C168.756 44 168.497 43.9081 168.302 43.7295C168.107 43.5509 168.01 43.2753 168.01 42.8977V7.17889H168Z" fill="#7E7E82"/>
<path d="M203.816 31.6473C204.1 31.8791 204.46 32.1897 204.904 32.5744C205.348 32.9639 205.852 33.3436 206.416 33.7233C207.269 34.2855 208.107 34.7194 208.945 35.035C209.779 35.3506 210.657 35.5035 211.575 35.5035C212.428 35.5035 213.137 35.4098 213.715 35.2175C214.289 35.0301 214.743 34.7786 215.078 34.463C215.412 34.1474 215.651 33.7874 215.791 33.3781C215.931 32.9639 216.006 32.53 216.006 32.0664C216.006 31.5536 215.811 31.0999 215.417 30.6956C215.023 30.2912 214.544 29.9362 213.98 29.6206C213.411 29.3099 212.817 29.0387 212.204 28.8168C211.585 28.5949 211.051 28.4075 210.602 28.2595C208.601 27.5692 206.85 26.8246 205.348 26.0208C203.846 25.2219 202.593 24.3343 201.595 23.353C200.593 22.3717 199.844 21.2917 199.345 20.1181C198.846 18.9395 198.597 17.6278 198.597 16.178C198.597 14.6444 198.911 13.2538 199.535 12.0013C200.158 10.7488 201.052 9.67869 202.214 8.79107C203.372 7.90345 204.769 7.21308 206.406 6.72982C208.042 6.24163 209.868 6 211.884 6C213.401 6 214.858 6.16766 216.25 6.50792C217.642 6.84817 219.014 7.38567 220.367 8.13029C220.935 8.46068 221.469 8.80093 221.983 9.15598C222.492 9.51103 222.936 9.85128 223.321 10.1817C223.705 10.5121 224.009 10.8227 224.234 11.1235C224.458 11.4194 224.573 11.6758 224.573 11.8879C224.573 12.0999 224.518 12.3021 224.408 12.4796C224.299 12.6621 224.139 12.8692 223.919 13.096L220.092 17.1298C219.808 17.4108 219.523 17.5489 219.239 17.5489C219.004 17.5489 218.795 17.4848 218.6 17.3517C218.411 17.2185 218.196 17.0558 217.962 16.8586L217.737 16.6613C217.403 16.3802 217.034 16.0942 216.624 15.7983C216.215 15.5025 215.776 15.2312 215.312 14.9945C214.843 14.7579 214.354 14.5606 213.835 14.4028C213.316 14.245 212.792 14.1661 212.258 14.1661C211.725 14.1661 211.191 14.2105 210.707 14.3042C210.223 14.3929 209.799 14.5409 209.429 14.7381C209.06 14.9354 208.771 15.1967 208.556 15.5173C208.337 15.8378 208.232 16.2323 208.232 16.6909C208.232 17.1495 208.347 17.5539 208.581 17.8892C208.816 18.2294 209.165 18.5401 209.634 18.831C210.103 19.122 210.682 19.3932 211.375 19.6496C212.069 19.906 212.872 20.1822 213.79 20.4781C215.557 21.055 217.188 21.6616 218.68 22.2977C220.172 22.9338 221.464 23.6834 222.547 24.5463C223.63 25.4093 224.478 26.4448 225.087 27.6481C225.696 28.8513 226 30.3109 226 32.027C226 33.8417 225.626 35.4838 224.872 36.9631C224.124 38.4376 223.091 39.695 221.784 40.7355C220.476 41.776 218.935 42.5798 217.168 43.1469C215.402 43.714 213.496 44 211.46 44C209.544 44 207.658 43.6597 205.807 42.9842C203.956 42.3086 202.229 41.3963 200.627 40.2572C199.959 39.7789 199.395 39.3055 198.936 38.8419C198.477 38.3784 198.113 38.0086 197.848 37.7275L197.773 37.6535C197.758 37.619 197.738 37.5993 197.723 37.5943C197.709 37.5845 197.689 37.5746 197.674 37.5549C197.659 37.5204 197.639 37.5006 197.624 37.4957C197.609 37.4859 197.589 37.476 197.574 37.4563C197.19 37.042 197 36.7117 197 36.4651C197 36.184 197.19 35.8684 197.574 35.5232L201.905 31.4402C202.254 31.1936 202.539 31.0703 202.758 31.0703C202.908 31.0703 203.067 31.1196 203.232 31.2183C203.397 31.3169 203.601 31.4648 203.831 31.6621L203.816 31.6473Z" fill="#7E7E82"/>
</g>
<defs>
<clipPath id="clip0_102_230">
<rect width="226" height="50" fill="white"/>
</clipPath>
</defs>
</svg>
