<svg width="228" height="72" viewBox="0 0 228 72" fill="none" xmlns="http://www.w3.org/2000/svg">
<path d="M25.6506 41.9116C22.0759 40.5132 18.3893 39.4231 14.6308 38.6528C10.4936 37.6327 9.12253 36.2954 9.12253 33.9408C9.12253 31.1131 11.1655 29.5321 15.5301 29.5321C20.2174 29.5321 22.3701 31.5449 22.788 35.3137H30.3041C30.0239 28.1756 24.636 22.9569 15.272 22.9569C6.20426 22.9569 0.923218 27.6929 0.923218 34.3849C0.923218 37.84 1.71677 38.7887 2.51033 39.9661C3.30389 41.1434 6.09302 43.0024 7.9859 43.6498C11.2706 44.95 14.6772 45.9152 18.1541 46.5303C22.8044 47.5298 24.1546 48.8973 24.1546 51.103C24.1546 54.4194 21.2807 56.5393 16.6939 56.5393C11.7315 56.5393 8.55035 54.2437 8.43925 50.4165H0.923218C1.0872 58.8041 7.53091 62.7733 16.6939 62.7733C25.365 62.7733 31.6706 59.3203 31.6706 51.103C31.6706 49.1273 31.1206 47.1159 30.0786 45.4834C29.0325 43.8365 27.4767 42.5816 25.6506 41.9116Z" fill="#7D7E81"/>
<path d="M227.154 31.8813H218.271L208.022 44.2223V22.9569H200.506V62.7733H208.022V53.1625L212.121 49.0435L218.271 62.7733H226.47L217.588 43.5516L227.154 31.8813Z" fill="#7D7E81"/>
<path d="M62.4181 31.8813H53.5355L43.2864 44.2381V22.9569H35.7704V62.7733H43.2864V53.1625L47.386 49.0435L53.5355 62.7733H61.7348L52.8523 43.5516L62.4181 31.8813Z" fill="#7D7E81"/>
<path d="M139.011 22.9569H131.495V62.7733H139.011V22.9569Z" fill="#7D7E81"/>
<path d="M175.225 22.9569H143.111V29.8218H154.726V62.7733H162.926V29.8218H175.225V22.9569Z" fill="#7D7E81"/>
<path d="M182.903 31.881C174.138 31.881 169.075 37.7313 169.075 46.7902C169.075 57.3868 173.845 62.7552 183.374 62.7552C186.214 62.9097 189.019 62.0584 191.317 60.3442C193.616 58.6266 195.269 56.1525 195.998 53.3372H188.201C187.817 54.3821 187.107 55.269 186.18 55.8601C185.255 56.4491 184.167 56.712 183.081 56.6104C179.359 56.6104 176.827 53.4526 176.591 49.0432H196.406C196.349 37.4285 191.694 31.881 182.903 31.881ZM176.688 44.4492C176.981 40.458 179.473 38.0203 182.531 38.0203C183.337 38.0168 184.312 38.1898 185.05 38.5187C185.79 38.8468 186.454 39.328 187.003 39.9328C187.552 40.5342 187.973 41.2454 188.238 42.0225C188.506 42.8003 188.613 43.6268 188.553 44.4492H176.688Z" fill="#7D7E81"/>
<path d="M93.8488 47.314C93.8488 42.2765 92.2178 38.1816 89.292 35.4837C85.6084 32.0684 81.1152 31.9558 79.2417 31.9022C77.1898 31.8384 72.359 31.699 68.5867 35.2104C64.3032 39.1928 64.4296 45.0492 64.4822 47.314C64.5294 49.4551 64.6558 54.9896 68.9235 59.0262C71.4435 61.4186 74.9746 62.773 79.3209 62.773C88.2712 62.7463 93.8488 56.585 93.8488 47.314ZM79.1153 54.5132C77.3941 54.2818 75.6552 54.2173 73.9224 54.321C72.7834 52.1077 72.1787 49.6508 72.1595 47.1533C72.1595 45.1941 72.1595 40.7882 75.1851 38.647C76.3883 37.8527 77.7965 37.4395 79.2314 37.4587C80.6663 37.3969 82.0821 37.8143 83.2621 38.647C85.9877 40.6866 86.1298 44.5941 86.1872 47.0888C86.2439 50.0798 85.5825 53.04 84.2617 55.7125C82.5931 55.142 80.8754 54.7328 79.1317 54.4919L79.1153 54.5132Z" fill="#7D7E81"/>
<path d="M112.476 62.773C116.828 62.773 120.369 61.4241 122.874 59.0262C127.141 54.9896 127.267 49.4599 127.315 47.3133C127.368 45.0492 127.499 39.1935 123.216 35.2104C119.443 31.699 114.607 31.8384 112.555 31.9022C110.682 31.9558 106.199 32.0684 102.505 35.4837C99.5794 38.1603 97.9484 42.2765 97.9484 47.3133C97.9484 56.6118 103.526 62.773 112.476 62.773ZM107.52 55.718C106.199 53.0448 105.538 50.0853 105.594 47.0943C105.652 44.5996 105.799 40.6708 108.519 38.6525C109.699 37.8198 111.115 37.4024 112.55 37.4642C113.984 37.4443 115.392 37.8582 116.596 38.6525C119.622 40.7937 119.622 45.1989 119.622 47.1581C119.602 49.6563 118.998 52.1132 117.859 54.3258C116.126 54.2228 114.387 54.2873 112.665 54.5187C110.917 54.7521 109.194 55.1537 107.52 55.718Z" fill="#7D7E81"/>
<path d="M110.247 18.8376L95.8986 22.9566L82.2331 18.8376C81.2266 19.7853 80.1293 21.0376 79.5 22.2701C78.7388 23.6259 78.3323 24.8458 78.1334 26.389C80.7272 26.4117 83.4316 26.9778 85.8907 27.806C89.8106 29.1419 93.0801 31.5858 95.8986 34.6269C98.7349 31.5947 102.526 29.1522 106.448 27.806C108.909 26.978 111.752 26.4118 114.347 26.389C114.159 24.8499 113.722 23.631 112.981 22.2701C112.351 21.0376 111.254 19.7853 110.247 18.8376Z" fill="#7D7E81"/>
<path d="M103.415 63.3683L95.8986 71.6975L88.3826 63.3683C90.4324 62.7271 93.1655 62.0866 95.8597 62.0866C98.6317 62.0866 101.365 62.7271 103.415 63.3683Z" fill="#7D7E81"/>
<path d="M119.13 19.7669C119.394 19.7669 119.284 19.7669 119.813 19.7669C120.342 19.7669 120.232 19.7669 120.497 19.7669V10.8425L126.646 8.54037L95.8986 0.30249L65.1512 8.54037L95.8986 18.8377L119.13 11.529V19.7669ZM95.8986 11.2863C94.532 11.2863 93.1655 10.5998 93.1655 9.57011C93.1655 8.54037 94.532 7.85388 95.8986 7.85388C97.2651 7.85388 98.6317 8.54037 98.6317 9.57011C98.6317 10.5998 97.2651 11.2863 95.8986 11.2863Z" fill="#7D7E81"/>
<path d="M121.863 19.5243C121.863 18.3868 120.945 17.4648 119.813 17.4648C118.681 17.4648 117.763 18.3868 117.763 19.5243V27.0756C117.763 28.2131 118.681 29.1351 119.813 29.1351C120.945 29.1351 121.863 28.2131 121.863 27.0756V19.5243Z" fill="#7D7E81"/>
</svg>
