<svg width="228" height="73" viewBox="0 0 228 73" fill="none" xmlns="http://www.w3.org/2000/svg">
<path d="M25.6506 42.2938C22.0759 40.8954 18.3893 39.8053 14.6308 39.035C10.4936 38.0149 9.12253 36.6776 9.12253 34.323C9.12253 31.4953 11.1655 29.9143 15.5301 29.9143C20.2174 29.9143 22.3701 31.9271 22.788 35.6959H30.3041C30.0239 28.5578 24.636 23.3391 15.272 23.3391C6.20426 23.3391 0.923218 28.0751 0.923218 34.7671C0.923218 38.2222 1.71677 39.171 2.51033 40.3483C3.30389 41.5256 6.09302 43.3846 7.9859 44.032C11.2706 45.3322 14.6772 46.2974 18.1541 46.9125C22.8044 47.912 24.1546 49.2795 24.1546 51.4852C24.1546 54.8016 21.2807 56.9215 16.6939 56.9215C11.7316 56.9215 8.55035 54.6259 8.43925 50.7987H0.923218C1.0872 59.1863 7.53091 63.1555 16.6939 63.1555C25.365 63.1555 31.6706 59.7025 31.6706 51.4852C31.6706 49.5095 31.1206 47.4981 30.0786 45.8656C29.0325 44.2187 27.4767 42.9638 25.6506 42.2938Z" fill="white"/>
<path d="M227.154 32.2635H218.271L208.022 44.6045V23.3391H200.506V63.1555H208.022V53.5447L212.121 49.4257L218.271 63.1555H226.47L217.588 43.9338L227.154 32.2635Z" fill="white"/>
<path d="M62.4181 32.2635H53.5356L43.2864 44.6203V23.3391H35.7704V63.1555H43.2864V53.5447L47.3861 49.4257L53.5356 63.1555H61.7349L52.8523 43.9338L62.4181 32.2635Z" fill="white"/>
<path d="M139.011 23.3391H131.495V63.1555H139.011V23.3391Z" fill="white"/>
<path d="M175.225 23.3391H143.111V30.204H154.726V63.1555H162.926V30.204H175.225V23.3391Z" fill="white"/>
<path d="M182.903 32.2634C174.138 32.2634 169.075 38.1137 169.075 47.1726C169.075 57.7693 173.845 63.1376 183.374 63.1376C186.214 63.2921 189.019 62.4409 191.317 60.7267C193.616 59.0091 195.269 56.535 195.998 53.7197H188.201C187.817 54.7645 187.107 55.6515 186.18 56.2425C185.254 56.8315 184.167 57.0945 183.081 56.9929C179.358 56.9929 176.827 53.835 176.591 49.4257H196.406C196.349 37.811 191.694 32.2634 182.903 32.2634ZM176.688 44.8317C176.981 40.8404 179.473 38.4027 182.531 38.4027C183.337 38.3993 184.312 38.5723 185.05 38.9011C185.789 39.2292 186.454 39.7105 187.003 40.3153C187.552 40.9166 187.973 41.6278 188.238 42.405C188.506 43.1827 188.613 44.0093 188.553 44.8317H176.688Z" fill="white"/>
<path d="M93.8487 47.6964C93.8487 42.6589 92.2177 38.564 89.2919 35.8661C85.6084 32.4508 81.1152 32.3382 79.2416 32.2847C77.1898 32.2208 72.359 32.0815 68.5866 35.5929C64.3032 39.5752 64.4296 45.4317 64.4822 47.6964C64.5294 49.8376 64.6558 55.372 68.9235 59.4086C71.4434 61.801 74.9746 63.1555 79.3209 63.1555C88.2711 63.1287 93.8487 56.9674 93.8487 47.6964ZM79.1152 54.8956C77.3941 54.6643 75.6551 54.5997 73.9224 54.7034C72.7833 52.4902 72.1786 50.0332 72.1595 47.5358C72.1595 45.5765 72.1595 41.1706 75.185 39.0295C76.3883 38.2352 77.7965 37.8219 79.2314 37.8411C80.6663 37.7794 82.082 38.1967 83.262 39.0295C85.9876 41.069 86.1298 44.9765 86.1872 47.4712C86.2439 50.4623 85.5824 53.4224 84.2617 56.0949C82.5931 55.5244 80.8754 55.1153 79.1316 54.8743L79.1152 54.8956Z" fill="white"/>
<path d="M112.476 63.1555C116.828 63.1555 120.369 61.8065 122.874 59.4086C127.141 55.372 127.267 49.8424 127.315 47.6957C127.367 45.4317 127.499 39.5759 123.216 35.5929C119.443 32.0815 114.607 32.2208 112.555 32.2847C110.682 32.3382 106.199 32.4508 102.505 35.8661C99.5793 38.5427 97.9484 42.6589 97.9484 47.6957C97.9484 56.9942 103.526 63.1555 112.476 63.1555ZM107.52 56.1004C106.199 53.4272 105.538 50.4678 105.594 47.4767C105.652 44.982 105.799 41.0532 108.519 39.0349C109.699 38.2022 111.115 37.7849 112.55 37.8466C113.984 37.8267 115.392 38.2407 116.596 39.0349C119.622 41.1761 119.622 45.5813 119.622 47.5406C119.602 50.0387 118.998 52.4957 117.859 54.7082C116.126 54.6052 114.387 54.6698 112.665 54.9011C110.917 55.1345 109.194 55.5361 107.52 56.1004Z" fill="white"/>
<path d="M110.247 19.22L95.8986 23.3389L82.2331 19.22C81.2266 20.1677 80.1293 21.42 79.5 22.6524C78.7388 24.0082 78.3323 25.2281 78.1334 26.7714C80.7271 26.794 83.4315 27.3602 85.8907 28.1883C89.8106 29.5242 93.0801 31.9681 95.8986 35.0093C98.7349 31.977 102.526 29.5345 106.448 28.1883C108.909 27.3603 111.752 26.7942 114.347 26.7714C114.159 25.2323 113.722 24.0133 112.98 22.6524C112.351 21.42 111.254 20.1677 110.247 19.22Z" fill="white"/>
<path d="M103.415 63.7507L95.8986 72.0799L88.3826 63.7507C90.4324 63.1095 93.1655 62.469 95.8597 62.469C98.6317 62.469 101.365 63.1095 103.415 63.7507Z" fill="white"/>
<path d="M119.13 20.1492C119.394 20.1492 119.284 20.1492 119.813 20.1492C120.342 20.1492 120.232 20.1492 120.496 20.1492V11.2248L126.646 8.9227L95.8985 0.684814L65.1511 8.9227L95.8985 19.22L119.13 11.9113V20.1492ZM95.8985 11.6687C94.532 11.6687 93.1654 10.9822 93.1654 9.95243C93.1654 8.9227 94.532 8.23621 95.8985 8.23621C97.2651 8.23621 98.6316 8.9227 98.6316 9.95243C98.6316 10.9822 97.2651 11.6687 95.8985 11.6687Z" fill="white"/>
<path d="M121.863 19.9066C121.863 18.7692 120.945 17.8472 119.813 17.8472C118.681 17.8472 117.763 18.7692 117.763 19.9066V27.458C117.763 28.5954 118.681 29.5175 119.813 29.5175C120.945 29.5175 121.863 28.5954 121.863 27.458V19.9066Z" fill="white"/>
</svg>
