<svg width="217" height="87" viewBox="0 0 217 87" fill="none" xmlns="http://www.w3.org/2000/svg">
<g clip-path="url(#clip0_529_1916)">
<path d="M187.282 8.18079C188.273 8.18079 189.245 8.26526 190.19 8.42543H192.436C201.961 8.42543 209.683 16.127 209.683 25.6272V73.5003C209.683 76.86 206.952 79.5839 203.583 79.5839H18.5707C17.9761 79.5839 17.4018 79.4972 16.8586 79.3392H13.4168C10.0484 79.3392 7.31743 76.6154 7.31743 73.2556V25.3825C7.31743 15.8823 15.039 8.18079 24.5639 8.18079H187.282ZM187.282 0.882324H24.5639C21.2511 0.882324 18.0332 1.5309 15.0004 2.81055C12.0746 4.04469 9.44812 5.81055 7.19457 8.05825C4.94103 10.306 3.17102 12.9252 1.93324 15.8438C0.650263 18.8688 0 22.0784 0 25.3825V73.2556C0 75.0591 0.355846 76.8123 1.05744 78.4666C1.7336 80.0609 2.69978 81.4915 3.92966 82.7178C5.15954 83.9445 6.59345 84.9081 8.19191 85.5826C9.85047 86.2823 11.6086 86.6373 13.4164 86.6373H16.0166C16.8573 86.8001 17.712 86.8819 18.5702 86.8819H203.583C205.391 86.8819 207.149 86.527 208.808 85.8272C210.406 85.1528 211.84 84.1891 213.07 82.9624C214.3 81.7357 215.266 80.3055 215.942 78.7112C216.644 77.0569 217 75.3033 217 73.5003V25.6272C217 22.323 216.349 19.1134 215.066 16.0885C213.829 13.1703 212.059 10.5506 209.805 8.30289C207.551 6.05519 204.925 4.28976 201.999 3.05519C198.966 1.77554 195.748 1.12696 192.436 1.12696H190.752C189.603 0.9646 188.439 0.882324 187.281 0.882324L187.282 0.882324Z" fill="white"/>
<path d="M32.9405 46.8586H30.5935C29.1543 46.8586 27.8999 46.7995 26.8301 46.6809C25.76 46.5627 24.6854 46.326 23.6065 45.9715C22.5275 45.6166 21.628 45.1238 20.9089 44.4931C20.1893 43.8625 19.5645 43.0148 19.034 41.9505C18.5035 40.8861 18.1481 39.6187 17.9682 38.1465H26.6546C26.8525 38.8301 27.311 39.2835 28.0302 39.5067C28.7493 39.7303 30.1613 39.8419 32.2657 39.8419C33.7584 39.8419 34.8825 39.7702 35.6377 39.6253C36.3928 39.4813 36.8829 39.284 37.108 39.0341C37.3326 38.7846 37.4454 38.41 37.4454 37.9106V37.7531C37.4454 37.2012 37.3146 36.8205 37.054 36.61C36.7929 36.3999 36.2941 36.2818 35.5569 36.2551L27.4102 35.8608C25.018 35.7562 23.1839 35.4341 21.9071 34.8949C20.6298 34.3566 19.7396 33.5544 19.2363 32.4901C18.7326 31.4257 18.4807 29.9347 18.4807 28.0161V27.6218C18.4807 24.0739 19.4021 21.6634 21.2459 20.3881C23.0892 19.1137 26.3848 18.4761 31.1328 18.4761H32.7242C34.1629 18.4761 35.4174 18.5352 36.4876 18.6533C37.5573 18.7715 38.6411 19.0218 39.7384 19.4021C40.8354 19.7833 41.748 20.2958 42.4764 20.9395C43.2047 21.5837 43.8296 22.4638 44.3513 23.5807C44.8725 24.698 45.2051 26.0314 45.3495 27.582H36.6363C36.4744 26.7938 36.047 26.2485 35.3551 25.9461C34.6627 25.6441 33.381 25.4927 31.511 25.4927C29.6409 25.4927 28.3097 25.6306 27.6805 25.9067C27.0508 26.1824 26.7362 26.7146 26.7362 27.5032V27.582C26.7362 28.1338 26.8666 28.515 27.1276 28.7251C27.3883 28.9356 27.8872 29.0542 28.6247 29.08L36.6635 29.4743C39.0733 29.5798 40.9165 29.8883 42.1938 30.4008C43.4706 30.9133 44.3561 31.6691 44.851 32.6673C45.3455 33.6664 45.593 35.0857 45.593 36.9247V37.2004C45.593 40.9588 44.6711 43.5076 42.8278 44.8476C40.9841 46.1881 37.6889 46.8581 32.9409 46.8581L32.9405 46.8586Z" fill="white"/>
<path d="M55.6813 39.1323V46.4645H47.5885V18.8706H64.7455C68.432 18.8706 71.0129 19.58 72.4876 20.9993C73.9619 22.4185 74.6999 24.994 74.6999 28.7253V29.2772C74.6999 32.7726 73.9488 35.2885 72.4473 36.826C70.9453 38.3634 68.3781 39.1319 64.7455 39.1319H55.6813V39.1323ZM63.6121 26.0846H55.6813V31.9187H63.6121C64.8166 31.9187 65.6173 31.7284 66.0131 31.3472C66.4084 30.9664 66.6067 30.2373 66.6067 29.1594V28.8439C66.6067 27.7669 66.4089 27.0373 66.0131 26.6562C65.6173 26.2754 64.817 26.0846 63.6121 26.0846Z" fill="white"/>
<path d="M99.6521 39.2505V46.4645H76.4256V18.8706H99.6521V26.0846H84.5184V29.0413H99.6521V36.2553H84.5184V39.2513H99.6521V39.2505Z" fill="white"/>
<path d="M117.294 46.8586H114.597C109.885 46.8586 106.576 45.8998 104.67 43.9812C102.763 42.063 101.81 38.5549 101.81 33.456V31.8792C101.81 26.7812 102.763 23.2726 104.67 21.354C106.576 19.4359 109.885 18.4766 114.597 18.4766H117.294C121.647 18.4766 124.785 19.2783 126.709 20.8814C128.633 22.4844 129.739 25.323 130.027 29.396H121.772C121.503 28.1089 121.008 27.2674 120.289 26.8731C119.569 26.4788 118.157 26.2818 116.053 26.2818H115.838C114.56 26.2818 113.545 26.3803 112.789 26.5772C112.034 26.7742 111.454 27.1291 111.049 27.6416C110.645 28.154 110.379 28.7523 110.253 29.435C110.127 30.1186 110.065 31.0512 110.065 32.2337V33.1405C110.065 34.7173 110.19 35.8936 110.442 36.6687C110.694 37.4442 111.238 38.0354 112.075 38.4424C112.911 38.8503 114.165 39.0534 115.838 39.0534H116.054C118.158 39.0534 119.57 38.8564 120.289 38.4621C121.008 38.0678 121.503 37.2271 121.773 35.9391H130.028C129.74 40.0127 128.634 42.8512 126.71 44.4538C124.785 46.0569 121.647 46.8586 117.295 46.8586H117.294Z" fill="white"/>
<path d="M140.332 18.8706V46.4645H132.239V18.8706H140.332Z" fill="white"/>
<path d="M164.907 18.8706L175.697 46.4645H166.391L164.583 41.6159H152.39L150.583 46.4645H141.734L152.525 18.8706H164.907ZM158.622 25.7691H158.352L155.114 34.4019H161.858L158.621 25.7691H158.622Z" fill="white"/>
<path d="M199.248 38.068V46.4645H177.1V18.8706H185.193V38.068H199.248Z" fill="white"/>
<path d="M34.9422 65.9715V66.1605C34.9422 68.1435 34.5192 69.5268 33.6741 70.3111C32.8286 71.0953 31.3148 71.4875 29.1324 71.4875H17.7181V52.5605H28.7897C30.9147 52.5605 32.4144 52.8809 33.2885 53.5203C34.1625 54.1601 34.5995 55.3452 34.5995 57.0756V57.2651C34.5995 58.7251 34.3569 59.7934 33.8711 60.4691C33.3854 61.1452 32.5772 61.5465 31.446 61.6721V61.9426C32.7141 62.0332 33.614 62.3798 34.1454 62.9837C34.6767 63.5877 34.9422 64.5837 34.9422 65.9715ZM27.5212 57.5085H22.8597V60.0231H27.9499C28.544 60.0231 28.9437 59.9422 29.1495 59.7798C29.3553 59.6174 29.458 59.3295 29.458 58.9146V58.8065C29.458 58.3198 29.332 57.982 29.0811 57.7925C28.8296 57.603 28.3097 57.5085 27.5216 57.5085H27.5212ZM27.3843 63.8897H22.8597V66.5395H27.3843C28.3667 66.5395 29.0152 66.4494 29.3294 66.2691C29.6436 66.0892 29.8006 65.7465 29.8006 65.2415V65.1606C29.8006 64.656 29.6519 64.3181 29.3548 64.1465C29.0578 63.9754 28.401 63.8897 27.3839 63.8897H27.3843Z" fill="white"/>
<path d="M45.2937 71.7579H43.2372C42.1973 71.7579 41.3092 71.6992 40.5721 71.5819C39.835 71.4651 39.1895 71.2533 38.6354 70.9465C38.0812 70.6401 37.6354 70.2703 37.2984 69.838C36.9614 69.4051 36.6925 68.824 36.4928 68.094C36.2927 67.364 36.1558 66.571 36.0817 65.7145C36.0071 64.8585 35.9702 63.8082 35.9702 62.5644V52.5601H41.2145V62.3478C41.2145 64.1145 41.3887 65.2318 41.737 65.7005C42.0854 66.1697 42.8822 66.4034 44.1279 66.4034H44.4022C45.6474 66.4034 46.4442 66.1692 46.793 65.7005C47.1414 65.2318 47.3156 64.1145 47.3156 62.3478V52.5601H52.5598V62.5644C52.5598 63.8082 52.5225 64.8585 52.4484 65.7145C52.3738 66.571 52.2369 67.364 52.0373 68.094C51.8372 68.824 51.5686 69.4051 51.2317 69.838C50.8947 70.2708 50.4489 70.6401 49.8947 70.9465C49.3406 71.2533 48.6951 71.4647 47.958 71.5819C47.2208 71.6992 46.3323 71.7579 45.2929 71.7579H45.2937Z" fill="white"/>
<path d="M63.5463 58.3198V71.4875H58.4047V58.3198H53.2461V52.5605H68.705V58.3198H63.5463Z" fill="white"/>
<path d="M78.9196 71.7579H77.2058C74.212 71.7579 72.1099 71.1002 70.8988 69.7842C69.6878 68.4686 69.0819 66.0621 69.0819 62.5649V61.4835C69.0819 57.9868 69.6874 55.5802 70.8988 54.2643C72.1099 52.9487 74.212 52.2905 77.2058 52.2905H78.9196C81.6843 52.2905 83.6781 52.8406 84.901 53.94C86.1234 55.0398 86.8259 56.9864 87.0089 59.7802H81.7646C81.5931 58.8971 81.2789 58.3203 80.8221 58.0498C80.3649 57.7794 79.4681 57.6441 78.1316 57.6441H77.9947C77.1834 57.6441 76.538 57.7115 76.0579 57.8468C75.5779 57.982 75.2098 58.2253 74.9527 58.5767C74.6955 58.9282 74.5271 59.3382 74.4472 59.8069C74.3669 60.2761 74.327 60.9155 74.327 61.7264V62.3483C74.327 63.4297 74.4068 64.2367 74.567 64.768C74.7267 65.2997 75.0725 65.7054 75.6038 65.9846C76.1352 66.2643 76.932 66.4039 77.9947 66.4039H78.1316C79.4685 66.4039 80.3649 66.2686 80.8221 65.9982C81.2789 65.7277 81.5935 65.1514 81.7646 64.2678H87.0089C86.8259 67.0621 86.1234 69.0087 84.901 70.108C83.6781 71.2078 81.6848 71.7575 78.9196 71.7575V71.7579Z" fill="white"/>
<path d="M106.358 52.5605V71.4875H101.216V64.8901H93.5554V71.4875H88.4138V52.5605H93.5554V59.1308H101.216V52.5605H106.358Z" fill="white"/>
<path d="M122.896 66.5395V71.4875H108.14V52.5605H122.896V57.5085H113.282V59.5365H122.896V64.4844H113.282V66.5391H122.896V66.5395Z" fill="white"/>
<path d="M129.752 65.9177V71.4875H124.61V52.5605H136.025C138.161 52.5605 139.664 52.9304 140.532 53.6691C141.401 54.4083 141.835 55.652 141.835 57.4004V58.347C141.835 59.8612 141.62 60.9339 141.192 61.5645C140.763 62.1956 140.018 62.5921 138.955 62.754V63.0244C139.515 63.1325 139.95 63.2542 140.258 63.3894C140.566 63.5247 140.855 63.7505 141.123 64.0656C141.392 64.3811 141.577 64.8183 141.68 65.3767C141.783 65.9356 141.835 66.6568 141.835 67.54V71.4875H136.693V67.81C136.693 67.3054 136.647 66.9312 136.556 66.6879C136.464 66.4446 136.245 66.2551 135.896 66.1199C135.547 65.9846 135.008 65.9172 134.277 65.9172H129.752V65.9177ZM134.277 57.5089H129.752V60.9697H135.339C135.819 60.9697 136.165 60.8525 136.376 60.6183C136.588 60.3842 136.693 59.9964 136.693 59.456V59.2936C136.693 58.6087 136.533 58.1404 136.213 57.8875C135.894 57.6354 135.248 57.5089 134.277 57.5089Z" fill="white"/>
<path d="M153.317 71.7579H151.534C148.415 71.7579 146.224 71.1002 144.962 69.7842C143.699 68.4686 143.068 66.0621 143.068 62.5649V61.4835C143.068 57.9868 143.699 55.5802 144.962 54.2643C146.224 52.9487 148.415 52.2905 151.534 52.2905H153.317C156.436 52.2905 158.627 52.9487 159.889 54.2643C161.152 55.5802 161.783 57.9868 161.783 61.4835V62.5649C161.783 66.0621 161.152 68.4686 159.889 69.7842C158.627 71.1002 156.436 71.7579 153.317 71.7579ZM152.254 66.4043H152.597C153.305 66.4043 153.893 66.3549 154.362 66.2555C154.83 66.1566 155.211 66.017 155.502 65.8363C155.793 65.6564 156.013 65.3903 156.162 65.0384C156.31 64.687 156.41 64.3133 156.462 63.9163C156.513 63.5203 156.539 62.9969 156.539 62.3483V61.7264C156.539 61.0599 156.513 60.5277 156.462 60.1312C156.411 59.7352 156.313 59.3605 156.171 59.0091C156.028 58.6577 155.808 58.3921 155.511 58.2113C155.214 58.0314 154.831 57.8914 154.362 57.7921C153.894 57.6932 153.305 57.6433 152.597 57.6433H152.255C151.546 57.6433 150.957 57.6932 150.489 57.7921C150.021 57.8914 149.638 58.031 149.341 58.2113C149.044 58.3916 148.824 58.6573 148.681 59.0091C148.538 59.3605 148.441 59.7347 148.39 60.1312C148.338 60.5282 148.313 61.0599 148.313 61.7264V62.3483C148.313 63.1597 148.352 63.7947 148.433 64.2546C148.513 64.7142 148.69 65.1198 148.964 65.4713C149.238 65.8227 149.635 66.066 150.155 66.2012C150.675 66.3365 151.375 66.4039 152.255 66.4039L152.254 66.4043Z" fill="white"/>
<path d="M181.955 52.5605V71.4875H174.174L168.193 59.1579H168.021V71.4875H163.223V52.5605H171.003L176.985 64.9172H177.156V52.5605H181.955Z" fill="white"/>
<path d="M199.659 65.9986V71.4875H183.361V66.5395L191.81 58.0494H184.132V52.5605H199.231V57.5085L190.782 65.9986H199.659Z" fill="white"/>
</g>
<defs>
<clipPath id="clip0_529_1916">
<rect width="217" height="86" fill="white" transform="translate(0 0.882324)"/>
</clipPath>
</defs>
</svg>
