<svg width="235" height="152" viewBox="0 0 235 152" fill="none" xmlns="http://www.w3.org/2000/svg">
<g clip-path="url(#clip0_529_1979)">
<path d="M117.203 98.697C108.987 112.341 93.984 121.474 76.8391 121.474C59.6942 121.474 43.5025 111.604 35.5267 97.0541C35.6905 96.9134 35.8425 96.7774 35.9838 96.6472C36.8061 95.8932 37.3021 95.4429 38.4567 95.4429C39.6112 95.4429 40.1072 95.8932 40.9354 96.6472C41.8838 97.5091 43.1914 98.697 45.6148 98.697C48.0381 98.697 49.3411 97.5091 50.2942 96.6472C51.1165 95.8932 51.6125 95.4429 52.767 95.4429C53.9216 95.4429 54.4234 95.8932 55.2457 96.6472C56.1988 97.5091 57.5018 98.697 59.9252 98.697C62.3485 98.697 63.6515 97.5091 64.6046 96.6472C65.4269 95.8932 65.9287 95.4429 67.0833 95.4429C68.2378 95.4429 68.7338 95.8932 69.5561 96.6472C70.5092 97.5091 71.8169 98.697 74.2414 98.697C76.6659 98.697 77.9677 97.5091 78.9208 96.6472C79.7431 95.8932 80.2391 95.4429 81.3936 95.4429C82.5482 95.4429 83.0442 95.8932 83.8724 96.6472C84.8207 97.5091 86.1284 98.697 88.5518 98.697C90.9751 98.697 92.2781 97.5091 93.2312 96.6472C94.0535 95.8932 94.5495 95.4429 95.704 95.4429C96.8585 95.4429 97.3545 95.8932 98.1827 96.6472C99.1358 97.5091 100.438 98.697 102.862 98.697C105.287 98.697 106.588 97.5091 107.542 96.6472C108.364 95.8932 108.86 95.4429 110.014 95.4429C111.169 95.4429 111.665 95.8932 112.493 96.6472C113.441 97.5091 114.748 98.697 117.168 98.697H117.195H117.203Z" fill="white"/>
<path d="M117.16 50.6074C114.735 50.6074 113.433 51.7953 112.48 52.6631C111.658 53.4113 111.162 53.8616 110.007 53.8616C108.853 53.8616 108.351 53.4113 107.529 52.6631C106.575 51.7953 105.274 50.6074 102.849 50.6074C100.425 50.6074 99.117 51.7953 98.1698 52.6631C97.3416 53.4113 96.8456 53.8616 95.691 53.8616C94.5365 53.8616 94.0405 53.4113 93.2182 52.6631C92.2651 51.7953 90.9574 50.6074 88.5329 50.6074C86.1084 50.6074 84.8066 51.7953 83.8535 52.6631C83.0312 53.4113 82.5352 53.8616 81.3807 53.8616C80.2262 53.8616 79.7243 53.4113 78.902 52.6631C77.9489 51.7953 76.6459 50.6074 74.2226 50.6074C71.7992 50.6074 70.4962 51.7953 69.5431 52.6631C68.7208 53.4113 68.2249 53.8616 67.0703 53.8616C65.9158 53.8616 65.4139 53.4113 64.5916 52.6631C63.6385 51.7953 62.3355 50.6074 59.9122 50.6074C57.4888 50.6074 56.1859 51.7953 55.2328 52.6631C54.4105 53.4113 53.9145 53.8616 52.76 53.8616C51.6054 53.8616 51.1036 53.4113 50.2812 52.6631C49.3329 51.7953 48.0252 50.6074 45.6018 50.6074C43.1785 50.6074 41.8755 51.7953 40.9224 52.6631C40.1001 53.4113 39.6041 53.8616 38.4496 53.8616C37.2951 53.8616 36.7991 53.4113 35.9768 52.6631C35.8354 52.533 35.6822 52.3969 35.5244 52.2621C43.506 37.707 59.0157 27.832 76.8474 27.832C94.6791 27.832 108.996 36.9635 117.217 50.6086H117.168L117.16 50.6074Z" fill="white"/>
<path d="M60.5873 61.2576L56.8774 66.6214L55.4119 68.7415C54.8829 68.3886 54.1584 68.0368 53.3302 67.7225C51.8917 67.169 50.1375 66.7304 48.5801 66.5885H48.5742C48.2314 66.5557 47.8932 66.5393 47.5775 66.5393C45.6325 66.5393 44.3248 67.1573 43.9054 68.2092C43.3493 69.6187 45.1589 70.6272 47.3761 71.7283C50.9551 73.404 55.5638 75.6004 53.1405 81.717C52.879 82.3784 52.5632 83.0128 52.198 83.6156C49.7405 87.6777 45.0175 90.3126 38.796 90.6867H38.7901C38.545 90.7031 38.2941 90.7137 38.0432 90.7196C37.7757 90.7301 37.5036 90.736 37.2315 90.736C35.76 90.736 34.1201 90.6164 32.5297 90.3994C29.8165 90.0253 27.2506 89.3686 25.9052 88.5337L28.3509 84.7706L30.329 81.717L30.9015 80.8387C32.836 82.2002 35.952 83.2567 39.9776 83.2567C42.097 83.2567 43.268 82.6387 43.7039 81.5376C44.2977 80.0413 42.4834 79.1618 40.2497 78.1099C36.7037 76.3474 32.1538 73.886 34.4582 68.0778C34.6102 67.6979 34.7798 67.3297 34.9589 66.972C37.7486 61.5766 44.1822 59.0601 50.3225 59.0601H50.4745C51.7986 59.0706 53.2206 59.1902 54.5931 59.4072C57.0447 59.7871 59.3385 60.4485 60.5861 61.2564L60.5873 61.2576Z" fill="white"/>
<path d="M93.0191 59.7178L90.5616 65.9165L85.8657 77.7603C84.9774 80.0001 83.8394 81.9737 82.4775 83.6659C78.8713 88.1829 73.696 90.6608 67.5227 90.7323C67.4297 90.7382 67.3378 90.7382 67.2447 90.7382C67.0432 90.7382 66.8418 90.7382 66.6509 90.7323C61.5297 90.5963 58.5221 88.72 57.7869 85.3369C57.3451 83.3305 57.7103 80.787 58.9096 77.7615L63.2521 66.8018L65.9323 60.0391L66.0572 59.7189H75.3406L73.2483 64.9901V64.9959L68.0128 78.2001C66.8465 81.1446 67.6865 82.8204 70.3831 82.8204C73.0798 82.8204 75.2428 81.1446 76.4138 78.2001L80.5761 67.7013L83.7357 59.7189H93.0191V59.7178Z" fill="white"/>
<path d="M125.953 59.7178L123.196 66.6752V66.681L122.825 67.6074L115.607 85.8013L113.913 90.0744H105.516L104.65 85.623L102.608 75.1183H102.166L98.5974 84.1091L96.233 90.0744H86.9554L88.2466 86.8215L95.8136 67.7329L98.9897 59.7178H108.268L109.767 67.7329L110.818 73.3558H111.26L113.874 66.7678L116.669 59.7178H125.953Z" fill="white"/>
<path d="M62.6925 0.382324C67.3354 6.97619 71.6378 13.0881 75.9273 19.1801C75.7623 19.7734 75.2781 19.7089 74.8858 19.7125C69.0978 19.7641 63.4995 20.8664 58.0284 22.6887C57.1908 22.9678 56.392 23.2211 56.7855 21.7998C58.7093 14.833 60.6296 7.86507 62.6937 0.383497L62.6925 0.382324Z" fill="white"/>
<path d="M22.6642 57.418C22.4899 58.0793 22.3214 58.7032 22.1577 59.3001C21.8796 60.352 21.6181 61.3229 21.3672 62.2939C20.9748 63.8008 20.6426 65.3147 20.3811 66.838C19.9075 69.5491 19.646 72.2885 19.5965 75.0595C19.58 75.8944 19.7049 76.7786 18.3819 75.9214C16.0834 74.4356 13.7778 72.9604 11.4417 71.4582C7.75305 69.1 3.97842 66.6914 0.00115967 64.1479C0.894158 63.8828 1.78244 63.6167 2.66013 63.3563C5.64072 62.4721 8.54944 61.6102 11.4429 60.7483C14.3846 59.8759 17.3157 59.0081 20.2904 58.1239C21.075 57.8905 21.8702 57.6572 22.6654 57.4191L22.6642 57.418Z" fill="white"/>
<path d="M82.223 151.382C78.3612 144.875 74.7633 138.821 71.1807 132.757C70.8108 132.131 70.3572 131.32 71.7368 131.441C77.6485 131.959 83.4706 131.335 89.6451 129.954C87.1593 137.132 84.7783 144.007 82.223 151.382Z" fill="white"/>
<path d="M36.7107 35.6464C35.6021 28.0264 34.5607 20.8685 33.4521 13.2427C36.1794 14.895 38.5568 16.3315 40.9295 17.775C44.3071 19.8295 47.6788 21.8934 51.0576 23.9455C51.7456 24.363 52.7034 24.8004 51.3357 25.47C46.0366 28.0604 41.3607 31.5467 36.7119 35.6464H36.7107Z" fill="white"/>
<path d="M77.7227 19.6399C82.3396 13.304 86.6821 7.34453 91.3486 0.939453C92.0142 4.35424 92.6032 7.32811 93.1734 10.3055C93.8885 14.0392 94.5966 17.7753 95.2834 21.5138C95.4118 22.2139 95.8348 23.288 94.3315 22.7509C89.1043 20.8794 83.678 20.0011 77.7215 19.6399H77.7227Z" fill="white"/>
<path d="M33.9905 38.5301C30.0957 43.2747 26.7723 47.9712 24.4832 53.3291C24.3855 53.5625 24.2877 53.736 24.1946 53.8603C23.9331 54.2133 23.688 54.1535 23.4371 53.8603C23.4147 53.8334 23.3935 53.8064 23.3711 53.7794C23.2568 53.6328 23.1426 53.4429 23.0224 53.2318C19.6495 47.2887 16.2401 41.3668 12.5573 34.9512C19.8415 36.166 26.7275 37.3211 33.9893 38.5301H33.9905Z" fill="white"/>
<path d="M25.626 131.577C27.9445 124.363 30.0733 117.739 32.3647 110.608C36.375 115.626 40.9165 119.56 46.4312 123.155C39.4416 125.985 32.8277 128.662 25.6248 131.577H25.626Z" fill="white"/>
<path d="M51.2968 146.258C50.8043 139.403 50.3708 133.029 49.8713 126.66C49.77 125.373 50.0998 125.133 51.2308 125.724C55.8407 128.131 60.7463 129.689 65.8427 130.671C67.0597 130.905 67.3637 131.31 66.3564 132.244C61.4461 136.801 56.5464 141.37 51.2968 146.258Z" fill="white"/>
<path d="M30.6777 109.868C24.1404 110.92 17.5914 111.928 10.4332 113.052C14.8299 106.978 18.8507 101.414 23.0236 95.6446C23.0613 95.5954 23.1001 95.5473 23.132 95.498C23.1484 95.5309 23.1649 95.5579 23.1814 95.5907C24.8272 98.6713 26.0689 101.697 27.9433 104.37C28.9129 105.753 29.9213 107.12 30.8685 108.519C31.1795 108.974 31.9147 109.668 30.6777 109.869V109.868Z" fill="white"/>
<path d="M22.9964 94.7934C21.8359 94.5871 20.6814 94.3865 19.5316 94.1801C18.9378 94.077 18.3441 93.9738 17.7503 93.8706C16.3177 93.6161 14.8899 93.3605 13.4573 93.1119C13.2888 93.079 13.1192 93.052 12.9507 93.0251C12.45 92.9324 11.9423 92.8457 11.4416 92.7542C10.5427 92.5971 9.63791 92.4399 8.73431 92.2769C8.4068 92.223 8.08046 92.1632 7.75413 92.1092C6.07063 91.8114 4.37652 91.5123 2.66003 91.2145V91.1981C5.62884 88.8387 8.52696 86.5391 11.4428 84.2243C11.5947 84.1046 11.7538 83.9803 11.9057 83.856C14.4339 81.8543 16.9775 79.8326 19.5987 77.7559C19.7401 80.093 19.9639 82.3374 20.3174 84.5456C20.7203 87.1055 21.2928 89.6056 22.0774 92.1104C22.1151 92.2347 22.154 92.3602 22.1976 92.4903C22.4427 93.2549 22.7101 94.0254 22.9987 94.7946L22.9964 94.7934Z" fill="white"/>
<path d="M2.65812 91.1982V91.214C2.65812 91.214 2.64807 91.2084 2.64249 91.2084C2.64807 91.2028 2.65254 91.1982 2.65812 91.1982Z" fill="white"/>
<path d="M107.509 142.882C101.787 138.405 96.4309 134.214 90.7289 129.752C96.2872 127.986 101.279 125.688 106.226 122.568C106.654 129.359 107.064 135.859 107.509 142.882Z" fill="white"/>
<path d="M111.654 32.8344C107.208 29.1722 102.801 26.3496 97.6549 23.9949C103.13 20.4089 108.293 17.0281 113.351 13.7153C112.799 19.9211 112.248 26.1397 111.653 32.8344H111.654Z" fill="white"/>
<path d="M142.857 67.0928L140.449 60.0862L140.324 59.7168H133.607L131.874 64.7651L127.82 76.5539H133.213L133.949 73.9893H139.483L140.224 76.5539H146.108L142.855 67.0917L142.857 67.0928ZM134.979 70.3305L135.818 67.359L136.597 64.5986H136.842L137.779 67.9231L138.46 70.3305H134.978H134.979Z" fill="white"/>
<path d="M161.871 67.4198V74.4476C160.23 75.775 157.817 76.522 155.144 76.522C153.899 76.522 152.783 76.3508 151.804 76.0084C148.724 74.9506 147.031 72.2535 147.031 68.2125C147.031 67.1595 147.141 66.1897 147.365 65.3231C147.984 62.7819 149.511 61.0499 151.804 60.2408C151.804 60.2408 151.807 60.2392 151.814 60.2361C152.789 59.8937 153.904 59.7178 155.144 59.7178C155.269 59.7178 155.394 59.7178 155.514 59.7283C157.217 59.7752 158.733 60.1845 159.74 60.8177L158.567 64.6195C157.462 64.1528 156.619 63.9194 155.378 63.9194C153.226 63.9194 152.148 65.2469 152.075 67.9135C152.07 68.012 152.07 68.1105 152.07 68.2149C152.07 70.9695 153.149 72.3227 155.379 72.3227C156.104 72.3227 156.953 72.209 157.349 72.0213V67.421H161.872L161.871 67.4198Z" fill="white"/>
<path d="M175.573 70.8944C177.464 69.9187 178.467 68.1621 178.467 65.7429C178.467 61.8872 175.868 59.7178 171.237 59.7178H165.108V76.556H170.256V71.795H171.286L173.934 76.556H179.573L175.574 70.8944H175.573ZM171.112 67.6461H170.256V63.8666H171.112C172.436 63.8666 173.198 64.5503 173.198 65.7429C173.198 66.9355 172.436 67.6461 171.112 67.6461Z" fill="white"/>
<path d="M181.407 59.7178V76.556H186.555V59.7178H181.407Z" fill="white"/>
<path d="M200.432 59.7178L197.42 70.6986H197.175L194.157 59.7178H188.763L193.939 76.556H200.04L205.581 59.7178H200.432Z" fill="white"/>
<path d="M212.935 72.4073V70.184H218.209V66.0351H212.935V63.8657H219.19V59.7168H207.787V76.555H219.31V72.4062H212.935V72.4073Z" fill="white"/>
<path d="M221.516 59.7178V63.8666H225.684V76.556H230.832V63.8666H235V59.7178H221.517H221.516Z" fill="white"/>
<path d="M130.19 87.4557C130.342 87.179 130.479 86.8811 130.593 86.5551C130.849 85.8667 131.023 85.0752 131.116 84.1852H129.051C129.024 84.5112 128.981 84.836 128.91 85.1503C128.872 85.3508 128.823 85.5513 128.763 85.7413L127.722 84.4619L127.106 83.7079C126.899 83.4475 126.724 83.1227 126.724 82.8354C126.724 82.5258 126.942 82.3312 127.368 82.3312C127.82 82.3312 128.49 82.554 129.323 82.9609L129.666 80.8888C128.887 80.4819 127.993 80.2603 127.04 80.2603C125.149 80.2603 124.175 81.1057 124.175 82.6079C124.175 83.009 124.246 83.383 124.382 83.7407C124.503 84.055 124.671 84.3646 124.889 84.6624C123.641 85.454 123.151 86.3815 123.151 87.4827C123.151 89.1748 124.312 90.0754 126.164 90.0754C127.15 90.0754 127.858 89.8151 128.653 89.2299L129.176 89.8702H132.128L130.189 87.4569L130.19 87.4557ZM126.753 88.1933C126.066 88.1933 125.642 87.8239 125.642 87.1414C125.642 86.7509 125.794 86.4097 126.067 86.0673L127.533 87.8509C127.261 88.1382 127.01 88.1921 126.754 88.1921L126.753 88.1933Z" fill="white"/>
<path d="M146.235 90.0743H143.359L143.223 85.4434H143.086L141.719 88.578H139.774L138.428 85.4434H138.292L138.156 90.0743H135.557L135.72 84.4725L135.83 80.6719H139.185L140.542 84.1582L140.825 84.8958H140.962L141.19 84.3376L142.677 80.6719H145.963L146.148 87.1567L146.235 90.0743Z" fill="white"/>
<path d="M154.451 87.7594V90.0743H148.016V80.6719H154.38V82.9867H150.889V84.2016H153.835V86.5176H150.889V87.7594H154.451Z" fill="white"/>
<path d="M162.143 86.913C163.2 86.3712 163.76 85.3897 163.76 84.0388C163.76 81.8858 162.305 80.6709 159.718 80.6709H156.297V90.0745H159.174V87.4172H159.747L160.117 88.0845L161.227 90.0745H164.377L162.143 86.913ZM159.654 85.1012H159.174V82.9869H159.654C160.395 82.9869 160.814 83.3715 160.814 84.0388C160.814 84.706 160.395 85.1012 159.654 85.1012Z" fill="white"/>
<path d="M169.798 87.6177C168.414 87.6177 167.87 86.832 167.87 85.2208C167.87 83.6096 168.496 82.7148 169.798 82.7148C170.348 82.7148 170.882 82.8614 171.455 83.1217L172.343 80.9042C171.716 80.4926 170.741 80.2593 169.663 80.2593C166.639 80.2593 164.923 82.0488 164.923 85.2208C164.923 88.3929 166.64 90.0744 169.663 90.0744C170.605 90.0744 171.581 89.8575 172.343 89.4611L171.455 87.2108C171.073 87.4172 170.496 87.6177 169.798 87.6177Z" fill="white"/>
<path d="M179.19 80.6719V84.1863H176.591V80.6719H173.714V90.0754H176.591V86.507H179.19V90.0754H182.067V80.6719H179.19Z" fill="white"/>
<path d="M190.283 80.6719H186.529L183.299 90.0754H186.312L186.72 88.6436H189.815L190.229 90.0754H193.514L190.284 80.6719H190.283ZM187.298 86.5997L188.202 83.3995H188.339L189.244 86.5997H187.299H187.298Z" fill="white"/>
<path d="M200.22 80.6719V84.8958H200.084L197.621 80.6719H194.744V90.0754H197.621V85.4446H197.758L200.498 90.0754H203.097V80.6719H200.22Z" fill="white"/>
<path d="M208.985 80.6719H205.149V90.0754H208.985C211.971 90.0754 213.638 88.3892 213.638 85.3742C213.638 82.3593 211.971 80.673 208.985 80.673V80.6719ZM208.653 87.7594H208.026V82.9879H208.653C209.955 82.9879 210.696 83.8498 210.696 85.3742C210.696 86.8987 209.955 87.7606 208.653 87.7606V87.7594Z" fill="white"/>
<path d="M215.283 80.6719V90.0754H218.154V80.6719H215.283Z" fill="white"/>
<path d="M224.18 84.1854C223.358 83.8441 222.677 83.5345 222.677 83.0959C222.677 82.7699 223.003 82.5812 223.609 82.5812C224.415 82.5812 225.662 82.9177 226.306 83.2589L226.987 80.9429C226.224 80.5466 224.688 80.2593 223.538 80.2593C221.512 80.2593 219.731 81.1482 219.731 83.0573C219.731 84.8526 221.447 85.6172 222.76 86.1648C223.582 86.4896 224.252 86.7617 224.252 87.2272C224.252 87.5638 223.964 87.7584 223.304 87.7584C222.062 87.7584 220.966 87.4278 220.198 87.0044L219.594 89.3908C220.416 89.8036 222.143 90.0744 223.375 90.0744C225.837 90.0744 227.194 88.9839 227.194 87.2812C227.194 85.3826 225.5 84.7048 224.182 84.1842L224.18 84.1854Z" fill="white"/>
<path d="M231.436 87.7594V86.5176H234.378V84.2028H231.436V82.9879H234.928V80.6719H228.559V90.0754H234.999V87.7594H231.436Z" fill="white"/>
</g>
<defs>
<clipPath id="clip0_529_1979">
<rect width="235" height="151" fill="white" transform="translate(0 0.382324)"/>
</clipPath>
</defs>
</svg>
