<svg width="258" height="91" viewBox="0 0 258 91" fill="none" xmlns="http://www.w3.org/2000/svg">
<g clip-path="url(#clip0_529_225)">
<path d="M84.0295 45.4015C84.4163 49.6089 83.5692 52.8034 83.0122 54.9383C82.7762 55.8344 82.5132 56.6992 82.2386 57.5368C81.4468 59.8501 80.4434 62.0844 79.2408 64.2103C77.4383 67.4411 75.1875 70.3968 72.5568 72.9875C62.8363 82.2984 51.0426 83.2724 47.6619 83.3503H47.1436C42.1584 83.2864 37.2283 82.2918 32.6034 80.4167L32.2707 80.2804C28.443 78.7034 24.9109 76.4793 21.827 73.7043C17.7279 69.9632 14.4897 65.3654 12.3386 60.2327C10.9312 56.8247 10.0294 53.2269 9.66189 49.5544C9.66003 49.5388 9.66003 49.5232 9.66189 49.5076C9.66189 49.5076 9.66189 49.4764 9.66189 49.4609C9.46848 47.4175 9.44129 45.3613 9.58066 43.3133C5.69515 40.37 2.77969 36.3164 1.21402 31.6805C-1.55551 23.3474 1.10571 16.187 2.37444 13.4911L4.67208 8.63695L5.99496 13.8456C6.30243 15.1228 6.87889 16.3186 7.68531 17.3518C8.21036 18.0233 8.86917 18.5767 9.61934 18.9764C10.5641 19.5072 11.4289 20.171 12.1877 20.9476C15.3054 24.1694 15.8895 28.4042 15.9978 29.8261C17.808 28.6184 19.6028 28.373 21.1965 28.1548C22.795 27.9381 24.4167 27.9617 26.0083 28.2249C27.1123 28.4177 28.2387 28.444 29.3503 28.3029C30.6916 28.1071 31.9888 27.6773 33.1836 27.0328L37.6048 24.6954L35.9067 29.4326C34.8521 32.374 33.3015 35.11 31.3231 37.5203C29.3271 39.9435 25.989 44.0029 20.3107 45.1287C18.2998 45.5152 16.2336 45.5059 14.2262 45.1015C14.3809 47.2481 15.0501 50.3452 17.4367 52.2775C20.1057 54.4436 23.6256 54.1163 24.2832 54.0306C29.215 53.3917 31.6325 48.1129 34.4717 41.9965C36.9666 36.5931 39.7285 30.6053 44.8189 26.729L40.8387 23.5812L59.2158 0L82.6292 18.5089L74.8931 28.4197C76.2601 29.4606 77.5013 30.6597 78.591 31.9922C81.6568 35.8359 83.5464 40.4951 84.0295 45.4015ZM78.5794 56.2356C79.0281 54.6111 79.6083 52.4256 79.1673 49.7336C78.8451 47.8165 78.0924 45.9991 76.9664 44.4197C72.9599 45.1085 68.8539 44.9386 64.9174 43.9211C62.7837 43.3566 60.7236 42.542 58.7787 41.494C57.0768 42.1633 55.4541 43.0204 53.9398 44.0496C52.5485 45.0021 51.253 46.0891 50.0717 47.2948C50.7332 50.3023 53.3132 58.9432 61.6759 63.0143C65.6291 64.878 70.0573 65.4671 74.3554 64.7012C76.1243 62.0774 77.5447 59.2311 78.5794 56.2356ZM78.4904 40.1305L79.148 40.9096C78.3512 38.5664 77.1575 36.3797 75.6203 34.4465C74.7082 33.3354 73.6696 32.3364 72.5258 31.4701C71.4892 30.6795 70.3864 29.9808 69.2303 29.382C65.2531 27.3184 60.806 26.3481 56.338 26.5692V31.0455H52.4699V27.2004C52.2804 27.2471 52.0831 27.3016 51.9091 27.364C51.3993 27.5215 50.8983 27.7062 50.4082 27.9172C49.5677 28.2777 48.7624 28.7159 48.0023 29.2262C43.144 32.4441 40.5253 38.1163 37.9839 43.6406C34.959 50.1972 31.8298 56.9797 24.7822 57.8913C23.5715 58.0511 19.6415 58.3316 16.0867 56.0837C17.043 57.4986 18.2732 58.7044 19.7034 59.6289C21.9045 60.9694 24.4476 61.6305 27.0179 61.53C27.3119 61.53 27.6058 61.4988 27.6174 61.4988C28.9913 61.3504 30.3377 61.008 31.617 60.482C34.5452 59.2315 37.7789 55.8071 37.8253 55.7525C39.773 53.6956 41.598 51.5245 43.291 49.2505C44.3017 47.8538 45.4092 46.5312 46.6059 45.2924L46.7955 45.0976C48.2982 43.5062 49.9615 42.0764 51.7582 40.8317C53.7835 39.4569 55.9752 38.3479 58.2798 37.532L58.4229 37.4813L59.1153 37.232L59.8889 37.68C61.7444 38.7577 63.733 39.5843 65.8032 40.1382L65.8844 40.1616C69.6391 41.1332 73.5671 41.2104 77.3571 40.3876L78.4904 40.1305ZM71.6671 26.2887L77.214 19.1673L59.885 5.46968L56.3496 10.0083V22.689C61.686 22.4551 66.9841 23.7002 71.6671 26.2887ZM71.0947 68.9086H70.6112C66.9431 68.9289 63.3183 68.1123 60.0088 66.5205C52.0058 62.6247 48.4858 55.2851 47.016 50.7465L46.37 51.588C44.7802 53.7248 43.0814 55.7767 41.2796 57.7355C41.6935 60.408 43.3761 67.2568 49.9286 71.5383C56.0402 75.5314 62.4495 74.6744 64.7008 74.1913C66.5597 73.0249 68.2961 71.6711 69.884 70.1514C70.1161 69.941 70.5415 69.5086 71.0947 68.9086ZM49.7739 79.3103C51.875 79.0848 53.9526 78.6726 55.9821 78.0793C53.0764 77.5346 50.3046 76.4216 47.8244 74.8029C41.6355 70.7474 39.0555 64.7908 38.0109 60.8872C36.8607 61.872 35.6184 62.7424 34.3015 63.4857C34.3634 65.8232 35.0132 70.8331 39.0284 74.7834C41.9256 77.5872 45.7573 79.2017 49.7739 79.3103ZM52.4815 23.2111V14.9676L46.2926 22.9189L48.393 24.5785C48.5632 24.4967 48.7334 24.4188 48.9074 24.3447C50.0605 23.8532 51.2573 23.4723 52.4815 23.2072V23.2111ZM36.4289 77.6897L36.3245 77.5923C32.9452 74.2108 30.8859 69.7185 30.5224 64.9349C29.6725 65.1519 28.8074 65.3031 27.9346 65.3868C27.9346 65.3868 27.5478 65.4141 27.161 65.4297H26.5808C26.2984 65.4297 26.0006 65.4297 25.695 65.4102C26.2365 68.4403 27.6192 71.2539 29.683 73.5251C30.9349 74.8762 32.4165 75.9907 34.0578 76.817C34.8597 77.1392 35.6501 77.4299 36.4289 77.6897ZM30.4257 32.0701L29.8957 32.1519C28.4405 32.3441 26.9651 32.3192 25.5171 32.0779C24.2654 31.8638 22.9889 31.8402 21.7303 32.0078C20.3223 32.1986 19.1038 32.3662 17.9821 33.1765C16.8604 33.9868 16.1757 35.2451 15.7541 36.0438C15.4292 36.6671 14.5666 38.3228 12.8608 37.7151C12.4432 37.5798 12.0837 37.3057 11.8412 36.9376C11.5987 36.5695 11.4877 36.1293 11.5263 35.6893C11.5387 35.2173 11.6036 34.7481 11.7197 34.2907C12.0628 32.9546 12.2113 31.5754 12.1607 30.1962C12.1181 29.5339 11.7739 26.0862 9.45301 23.6591C8.92707 23.1246 8.32632 22.6705 7.66983 22.3111C6.51568 21.6759 5.5002 20.8135 4.68369 19.775C4.59472 19.662 4.50962 19.5529 4.42453 19.4361C3.56654 23.0767 3.73128 26.886 4.9003 30.4377C6.26271 34.4573 8.83072 37.9517 12.2496 40.4382L13.0232 40.7148C15.1231 41.5014 17.3947 41.7036 19.5989 41.2992C23.9234 40.446 26.604 37.1852 28.3756 35.0309C29.1343 34.0992 29.8198 33.1092 30.4257 32.0701ZM22.4265 68.3398C22.0679 67.1707 21.8091 65.9731 21.6529 64.7596C21.3396 64.67 21.0185 64.5648 20.6975 64.4479C20.6975 64.5103 20.7323 64.5687 20.7516 64.631C21.1712 65.9264 21.733 67.1703 22.4265 68.3398Z" fill="#0FB7A6"/>
<path d="M82.2311 57.5368C81.5558 59.8949 80.5462 62.1424 79.2334 64.2103C80.436 62.0844 81.4394 59.8501 82.2311 57.5368Z" fill="black"/>
<path d="M48.3817 31.1584C48.9697 31.1577 49.5441 31.3325 50.0334 31.6608C50.5223 31.9891 50.9037 32.4561 51.1292 33.0028C51.3543 33.5494 51.4139 34.1511 51.2998 34.7317C51.1857 35.3124 50.9029 35.8458 50.4875 36.2647C50.0725 36.6835 49.5429 36.9688 48.9666 37.0846C48.3902 37.2003 47.7926 37.1413 47.2495 36.915C46.7069 36.6886 46.2427 36.3052 45.9158 35.8131C45.5894 35.3209 45.4149 34.7423 45.4149 34.1504C45.4145 33.7577 45.4907 33.3687 45.6397 33.0057C45.7886 32.6427 46.0071 32.3129 46.2825 32.035C46.5579 31.7571 46.8852 31.5367 47.2457 31.3863C47.6058 31.2359 47.9918 31.1584 48.3817 31.1584Z" fill="#0FB7A6"/>
<path d="M32.6035 80.4167V80.444C32.4952 80.3895 32.3869 80.3388 32.2825 80.2804L32.6035 80.4167Z" fill="black"/>
<path d="M109.95 70.1124L101.123 37.4346H110.232L115.261 59.3795H115.555L120.792 37.4229H129.727L135.05 59.2393H135.324L140.268 37.4229H149.35L140.542 70.1007H131.007L125.434 49.5621H125.047L119.469 70.1124H109.95Z" fill="#0FB7A6"/>
<path d="M167.97 70.7513C164.69 70.7513 161.853 70.045 159.461 68.632C157.091 67.24 155.174 65.1858 153.941 62.7182C152.603 59.9783 151.94 56.9544 152.007 53.9021C152.007 50.5256 152.651 47.5714 153.941 45.0391C155.179 42.5704 157.1 40.515 159.472 39.1215C161.855 37.7112 164.691 37.006 167.982 37.006C171.272 37.006 174.109 37.7112 176.492 39.1215C178.86 40.5158 180.778 42.5692 182.015 45.0353C183.305 47.5675 183.949 50.5217 183.949 53.8982C184.018 56.9509 183.354 59.9752 182.015 62.7143C180.78 65.1819 178.862 67.2358 176.492 68.6281C174.094 70.0411 171.253 70.7486 167.97 70.7513ZM168.013 63.7389C169.374 63.7833 170.705 63.3248 171.753 62.4494C172.809 61.507 173.593 60.2958 174.024 58.9432C175.05 55.6326 175.05 52.0858 174.024 48.7752C173.593 47.416 172.809 46.1974 171.753 45.2456C170.707 44.3644 169.376 43.9027 168.013 43.9483C166.635 43.9039 165.288 44.3648 164.222 45.2456C163.143 46.1865 162.34 47.407 161.901 48.7752C160.875 52.0858 160.875 55.6326 161.901 58.9432C162.34 60.3044 163.143 61.5175 164.222 62.4494C165.292 63.3213 166.637 63.7763 168.013 63.7311V63.7389Z" fill="#0FB7A6"/>
<path d="M204.469 70.7513C201.189 70.7513 198.353 70.045 195.959 68.632C193.589 67.2397 191.671 65.1858 190.436 62.7182C189.147 60.186 188.502 57.2474 188.502 53.9021C188.502 50.5567 189.147 47.6026 190.436 45.0391C191.675 42.5708 193.596 40.5158 195.967 39.1215C198.355 37.7112 201.192 37.006 204.477 37.006C207.762 37.006 210.599 37.7112 212.987 39.1215C215.355 40.5158 217.273 42.5692 218.51 45.0353C219.799 47.5675 220.444 50.5217 220.444 53.8982C220.444 57.2746 219.799 60.2132 218.51 62.7143C217.275 65.1819 215.357 67.2358 212.987 68.6281C210.591 70.0411 207.752 70.7486 204.469 70.7513ZM204.512 63.7389C205.873 63.7833 207.203 63.3248 208.252 62.4494C209.308 61.507 210.092 60.2958 210.523 58.9432C211.549 55.6326 211.549 52.0858 210.523 48.7752C210.091 47.416 209.308 46.1974 208.252 45.2456C207.206 44.3644 205.874 43.9027 204.512 43.9483C203.134 43.9039 201.787 44.3648 200.721 45.2456C199.641 46.1865 198.839 47.407 198.4 48.7752C197.369 52.0851 197.369 55.6333 198.4 58.9432C198.84 60.3044 199.642 61.5175 200.721 62.4494C201.791 63.3213 203.136 63.7763 204.512 63.7311V63.7389Z" fill="#0FB7A6"/>
<path d="M226.309 82.3647V37.4346H235.171V42.9238H235.557C236.009 41.9529 236.588 41.0476 237.279 40.2318C238.094 39.2668 239.1 38.4852 240.234 37.9372C241.659 37.2745 243.218 36.957 244.787 37.01C247.101 36.9943 249.372 37.64 251.335 38.8721C253.334 40.111 254.931 41.9759 256.128 44.4665C257.325 46.9571 257.923 50.0737 257.923 53.8164C257.923 57.4523 257.342 60.5261 256.182 63.0377C255.191 65.3518 253.558 67.3281 251.478 68.7294C249.485 70.0143 247.161 70.6836 244.794 70.6539C243.266 70.6999 241.746 70.4015 240.346 69.7813C239.21 69.2616 238.193 68.5124 237.356 67.5802C236.636 66.7769 236.039 65.8695 235.585 64.8882H235.31V82.3647H226.309ZM235.12 53.7735C235.086 55.5025 235.357 57.224 235.921 58.8575C236.368 60.1778 237.172 61.3461 238.242 62.2313C239.322 63.0155 240.62 63.4355 241.951 63.4312C243.282 63.4269 244.578 62.9987 245.653 62.2079C246.728 61.3146 247.533 60.1346 247.974 58.803C249.023 55.5508 249.023 52.0469 247.974 48.7947C247.527 47.4775 246.723 46.3131 245.653 45.4326C244.569 44.6519 243.27 44.2289 241.937 44.2211C240.604 44.2133 239.301 44.6215 238.207 45.3898C237.139 46.2543 236.335 47.4047 235.886 48.709C235.333 50.3374 235.074 52.0528 235.12 53.7735Z" fill="#0FB7A6"/>
<path d="M178.38 90.2069H177.246C170.92 90.0394 164.694 88.5816 158.943 85.9215L162.018 79.1974C166.831 81.4316 172.044 82.6557 177.342 82.7951C182.639 82.9342 187.909 81.986 192.831 80.0077L195.539 86.8838C190.081 89.0822 184.257 90.21 178.38 90.2069Z" fill="#00E8D7"/>
</g>
<defs>
<clipPath id="clip0_529_225">
<rect width="258" height="90.3822" fill="white"/>
</clipPath>
</defs>
</svg>
