<svg width="258" height="91" viewBox="0 0 258 91" fill="none" xmlns="http://www.w3.org/2000/svg">
<g clip-path="url(#clip0_110_430)">
<path d="M84.0295 45.5918C84.4163 49.7815 83.5692 52.9625 83.0122 55.0884C82.7762 55.9806 82.5132 56.8418 82.2386 57.6759C81.4468 59.9794 80.4434 62.2042 79.2408 64.3211C77.4383 67.5382 75.1875 70.4815 72.5568 73.0612C62.8363 82.3328 51.0426 83.3026 47.6619 83.3802H47.1436C42.1584 83.3165 37.2283 82.3262 32.6034 80.459L32.2707 80.3233C28.443 78.7529 24.9109 76.5382 21.827 73.775C17.7279 70.0497 14.4897 65.4713 12.3386 60.3603C10.9312 56.9667 10.0294 53.3842 9.66189 49.7271C9.66003 49.7116 9.66003 49.6961 9.66189 49.6806C9.66189 49.6806 9.66189 49.6496 9.66189 49.634C9.46848 47.5993 9.44129 45.5518 9.58066 43.5125C5.69515 40.5817 2.77969 36.5451 1.21402 31.9289C-1.55551 23.631 1.10571 16.5009 2.37444 13.8164L4.67208 8.98275L5.99496 14.1694C6.30243 15.4412 6.87889 16.6319 7.68531 17.6608C8.21036 18.3294 8.86917 18.8805 9.61934 19.2784C10.5641 19.807 11.4289 20.468 12.1877 21.2414C15.3054 24.4496 15.8895 28.6664 15.9978 30.0823C17.808 28.8797 19.6028 28.6353 21.1965 28.4181C22.795 28.2023 24.4167 28.2258 26.0083 28.4879C27.1123 28.6799 28.2387 28.7061 29.3503 28.5655C30.6916 28.3705 31.9888 27.9426 33.1836 27.3009L37.6048 24.9733L35.9067 29.6905C34.8521 32.6194 33.3015 35.3439 31.3231 37.744C29.3271 40.1569 25.989 44.1991 20.3107 45.3203C18.2998 45.7051 16.2336 45.6958 14.2262 45.2931C14.3809 47.4306 15.0501 50.5147 17.4367 52.4388C20.1057 54.5957 23.6256 54.2698 24.2832 54.1845C29.215 53.5483 31.6325 48.2918 34.4717 42.2013C36.9666 36.8207 39.7285 30.8582 44.8189 26.9983L40.8387 23.8638L59.2158 0.382324L82.6292 18.8129L74.8931 28.6819C76.2601 29.7184 77.5013 30.9124 78.591 32.2392C81.6568 36.0667 83.5463 40.7062 84.0295 45.5918ZM78.5794 56.3802C79.0281 54.7625 79.6083 52.5862 79.1673 49.9056C78.8451 47.9966 78.0924 46.1869 76.9664 44.6142C72.9598 45.3001 68.8539 45.1309 64.9174 44.1177C62.7837 43.5556 60.7236 42.7444 58.7787 41.7009C57.0768 42.3673 55.4541 43.2208 53.9398 44.2457C52.5485 45.1942 51.253 46.2765 50.0717 47.4771C50.7332 50.472 53.3132 59.0763 61.6759 63.1302C65.6291 64.986 70.0573 65.5726 74.3554 64.8099C76.1243 62.1972 77.5447 59.363 78.5794 56.3802ZM78.4904 40.3431L79.148 41.119C78.3512 38.7856 77.1575 36.6082 75.6203 34.6832C74.7082 33.5768 73.6696 32.582 72.5258 31.7194C71.4892 30.9321 70.3864 30.2364 69.2303 29.6401C65.2531 27.5852 60.806 26.619 56.338 26.8392V31.2965H52.4699V27.4677C52.2804 27.5142 52.0831 27.5685 51.9091 27.6306C51.3992 27.7875 50.8983 27.9714 50.4082 28.1815C49.5677 28.5404 48.7624 28.9768 48.0023 29.4849C43.144 32.6892 40.5253 38.3375 37.9839 43.8384C34.959 50.3672 31.8298 57.1211 24.7822 58.0289C23.5715 58.1879 19.6415 58.4672 16.0867 56.2289C17.043 57.6378 18.2732 58.8385 19.7034 59.759C21.9045 61.0939 24.4476 61.7522 27.0179 61.6521C27.3119 61.6521 27.6058 61.6211 27.6174 61.6211C28.9913 61.4733 30.3377 61.1323 31.617 60.6086C34.5452 59.3634 37.7789 55.9534 37.8253 55.8991C39.773 53.8509 41.598 51.6889 43.291 49.4246C44.3017 48.0338 45.4092 46.7168 46.6059 45.4832L46.7955 45.2892C48.2982 43.7045 49.9615 42.2808 51.7582 41.0414C53.7835 39.6724 55.9752 38.5681 58.2798 37.7556L58.4229 37.7052L59.1153 37.4569L59.8889 37.903C61.7444 38.9761 63.733 39.7992 65.8031 40.3509L65.8844 40.3741C69.6391 41.3416 73.5671 41.4184 77.3571 40.5991L78.4904 40.3431ZM71.6671 26.5599L77.2139 19.4685L59.885 5.82888L56.3496 10.3483V22.9754C61.686 22.7424 66.9841 23.9823 71.6671 26.5599ZM71.0947 68.9996H70.6112C66.9431 69.0197 63.3183 68.2066 60.0088 66.6215C52.0058 62.7422 48.4858 55.4336 47.016 50.9142L46.37 51.7521C44.7802 53.88 43.0814 55.9232 41.2796 57.8737C41.6935 60.5349 43.3761 67.3547 49.9286 71.6181C56.0401 75.5944 62.4495 74.7409 64.7007 74.2599C66.5597 73.0984 68.2961 71.7504 69.884 70.2371C70.116 70.0276 70.5415 69.597 71.0947 68.9996ZM49.7739 79.3573C51.875 79.1327 53.9526 78.7223 55.9821 78.1315C53.0764 77.5891 50.3046 76.4808 47.8244 74.869C41.6355 70.8306 39.0555 64.8991 38.0109 61.0121C36.8607 61.9928 35.6184 62.8594 34.3015 63.5996C34.3634 65.9272 35.0132 70.9159 39.0284 74.8496C41.9256 77.6415 45.7573 79.2491 49.7739 79.3573ZM52.4815 23.4953V15.2866L46.2926 23.2043L48.393 24.8569C48.5632 24.7754 48.7334 24.6978 48.9074 24.6241C50.0605 24.1346 51.2573 23.7554 52.4815 23.4914V23.4953ZM36.4289 77.7435L36.3245 77.6465C32.9452 74.2793 30.8859 69.8061 30.5224 65.0427C29.6725 65.2587 28.8074 65.4093 27.9346 65.4927C27.9346 65.4927 27.5478 65.5198 27.161 65.5353H26.5808C26.2984 65.5353 26.0006 65.5353 25.695 65.5159C26.2365 68.5333 27.6192 71.3349 29.683 73.5965C30.9349 74.9419 32.4165 76.0518 34.0578 76.8746C34.8597 77.1954 35.6501 77.4848 36.4289 77.7435ZM30.4257 32.3168L29.8957 32.3983C28.4405 32.5897 26.9651 32.5648 25.5171 32.3246C24.2654 32.1114 22.9889 32.0879 21.7303 32.2547C20.3223 32.4448 19.1038 32.6116 17.9821 33.4185C16.8604 34.2254 16.1757 35.4784 15.7541 36.2737C15.4292 36.8944 14.5666 38.5431 12.8608 37.9379C12.4432 37.8033 12.0837 37.5303 11.8412 37.1637C11.5987 36.7972 11.4877 36.3589 11.5263 35.9207C11.5387 35.4507 11.6036 34.9835 11.7197 34.528C12.0628 33.1976 12.2113 31.8242 12.1607 30.4509C12.1181 29.7914 11.7739 26.3582 9.45301 23.9414C8.92707 23.4091 8.32632 22.9569 7.66983 22.5991C6.51568 21.9666 5.5002 21.1078 4.68369 20.0737C4.59472 19.9612 4.50962 19.8526 4.42453 19.7362C3.56654 23.3615 3.73128 27.1546 4.9003 30.6914C6.26271 34.694 8.83072 38.1736 12.2496 40.6496L13.0232 40.925C15.1231 41.7082 17.3947 41.9096 19.5989 41.5069C23.9234 40.6573 26.604 37.4103 28.3756 35.2651C29.1343 34.3373 29.8198 33.3515 30.4257 32.3168ZM22.4265 68.4332C22.0679 67.269 21.8091 66.0765 21.6529 64.8681C21.3396 64.7789 21.0185 64.6741 20.6975 64.5577C20.6975 64.6198 20.7323 64.678 20.7516 64.7401C21.1712 66.0299 21.733 67.2686 22.4265 68.4332Z" fill="white"/>
<path d="M82.2311 57.6758C81.5558 60.0239 80.5462 62.2619 79.2334 64.321C80.436 62.2041 81.4394 59.9793 82.2311 57.6758Z" fill="black"/>
<path d="M79.1479 41.1307L78.4904 40.3548L77.3532 40.5992C73.5632 41.4185 69.6352 41.3417 65.8805 40.3742L65.7992 40.351C63.7291 39.7993 61.7405 38.9762 59.885 37.9032L59.1114 37.457L58.419 37.7053L58.2759 37.7557C55.9713 38.5683 53.78 39.6725 51.7543 41.0415C49.9595 42.2774 48.2978 43.6973 46.7954 45.2777L46.6059 45.4716C45.4091 46.7091 44.3013 48.0301 43.291 49.4247C41.6022 51.6929 39.7811 53.8587 37.837 55.9109C37.7905 55.9652 34.5568 59.3751 31.6287 60.6204C30.3494 61.1441 29.003 61.4851 27.6291 61.6329C27.6291 61.6329 27.3236 61.6561 27.0296 61.6639C24.4594 61.7597 21.9177 61.0975 19.7189 59.7591C18.2887 58.8386 17.0586 57.6379 16.1023 56.229C19.657 58.4673 23.587 58.1686 24.7977 58.029C31.8453 57.1212 34.9746 50.3673 37.9994 43.8385C40.5408 38.3531 43.1595 32.7049 48.0177 29.485C48.7778 28.9769 49.5832 28.5406 50.4237 28.1816C50.9138 27.9715 51.4147 27.7876 51.9245 27.6307C52.1102 27.5687 52.3113 27.5144 52.4854 27.4678V31.2967H56.3534V26.8549C60.8152 26.6327 65.2566 27.5933 69.2302 29.6402C70.3852 30.2355 71.4865 30.9299 72.5219 31.7157C73.6657 32.5783 74.7047 33.573 75.6164 34.6794C77.1567 36.6089 78.3515 38.7917 79.1479 41.1307ZM51.3481 34.3885C51.3481 33.8 51.1741 33.2247 50.848 32.7354C50.5219 32.2461 50.0589 31.8647 49.5166 31.6395C48.9747 31.4143 48.3779 31.3554 47.8027 31.4702C47.2271 31.585 46.6983 31.8684 46.2833 32.2846C45.8686 32.7006 45.5859 33.2308 45.4714 33.808C45.3569 34.3852 45.4157 34.9834 45.6404 35.5272C45.8648 36.0708 46.245 36.5355 46.7332 36.8625C47.2209 37.1894 47.7946 37.3639 48.3813 37.3639C49.1681 37.3639 49.9228 37.0504 50.479 36.4924C51.0356 35.9344 51.3481 35.1776 51.3481 34.3885Z" fill="#020207"/>
<path d="M48.3817 31.4089C48.9697 31.4082 49.5441 31.5823 50.0334 31.9091C50.5223 32.236 50.9037 32.7011 51.1292 33.2454C51.3543 33.7897 51.4139 34.3889 51.2998 34.9671C51.1857 35.5453 50.9029 36.0765 50.4875 36.4935C50.0725 36.9106 49.5429 37.1947 48.9666 37.31C48.3902 37.4253 47.7926 37.3665 47.2495 37.1411C46.7069 36.9157 46.2427 36.5339 45.9158 36.0439C45.5894 35.5538 45.4149 34.9777 45.4149 34.3882C45.4145 33.9972 45.4907 33.6099 45.6397 33.2484C45.7886 32.887 46.0071 32.5585 46.2825 32.2818C46.5579 32.0051 46.8852 31.7856 47.2457 31.6358C47.6058 31.486 47.9918 31.4089 48.3817 31.4089Z" fill="white"/>
<path d="M32.6035 80.459V80.4862C32.4952 80.4319 32.3869 80.3814 32.2825 80.3232L32.6035 80.459Z" fill="black"/>
<path d="M29.896 32.3982L30.4259 32.3167C29.8141 33.3535 29.1221 34.3405 28.3565 35.2689C26.585 37.4141 23.9044 40.6611 19.5799 41.5107C17.3757 41.9134 15.104 41.7121 13.0042 40.9288L12.2306 40.6534C8.81165 38.1773 6.24364 34.6978 4.88123 30.6952C3.71221 27.1584 3.54748 23.3652 4.40546 19.74C4.49056 19.8564 4.57566 19.965 4.66462 20.0775C5.48113 21.1116 6.49662 21.9704 7.65077 22.6029C8.30726 22.9607 8.90801 23.4129 9.43395 23.9452C11.7857 26.362 12.1184 29.7952 12.1416 30.4546C12.1923 31.828 12.0437 33.2013 11.7006 34.5318C11.5845 34.9873 11.5196 35.4545 11.5072 35.9245C11.4686 36.3626 11.5797 36.801 11.8222 37.1675C12.0647 37.5341 12.4242 37.8071 12.8417 37.9417C14.5475 38.5469 15.4101 36.8982 15.735 36.2775C16.1566 35.4822 16.791 34.2719 17.963 33.4223C19.1351 32.5727 20.3032 32.4447 21.7112 32.2585C22.9698 32.0916 24.2463 32.1152 25.498 32.3284C26.9525 32.5693 28.4346 32.5928 29.896 32.3982Z" fill="#020207"/>
<path d="M109.95 70.1982L101.123 37.6586H110.232L115.261 59.5107H115.555L120.792 37.647H129.727L135.05 59.3711H135.324L140.268 37.647H149.35L140.542 70.1866H131.007L125.434 49.7349H125.047L119.469 70.1982H109.95Z" fill="white"/>
<path d="M167.97 70.8345C164.69 70.8345 161.853 70.1312 159.461 68.7242C157.091 67.3381 155.174 65.2925 153.941 62.8354C152.603 60.1071 151.94 57.0959 152.007 54.0565C152.007 50.6943 152.651 47.7526 153.941 45.2311C155.179 42.7728 157.1 40.726 159.472 39.3384C161.855 37.9341 164.691 37.2319 167.982 37.2319C171.272 37.2319 174.109 37.9341 176.492 39.3384C178.86 40.7268 180.778 42.7716 182.015 45.2272C183.304 47.7487 183.949 50.6904 183.949 54.0526C184.018 57.0925 183.354 60.104 182.015 62.8315C180.78 65.2887 178.862 67.3338 176.492 68.7203C174.093 70.1273 171.253 70.8318 167.97 70.8345ZM168.013 63.8518C169.374 63.896 170.705 63.4394 171.753 62.5677C172.808 61.6293 173.593 60.4232 174.024 59.0763C175.05 55.7797 175.05 52.248 174.024 48.9513C173.593 47.5978 172.808 46.3844 171.753 45.4367C170.707 44.5592 169.376 44.0995 168.013 44.1449C166.635 44.1006 165.288 44.5596 164.222 45.4367C163.143 46.3735 162.34 47.5889 161.901 48.9513C160.875 52.248 160.875 55.7797 161.901 59.0763C162.34 60.4318 163.143 61.6398 164.222 62.5677C165.292 63.4359 166.637 63.889 168.013 63.844V63.8518Z" fill="white"/>
<path d="M204.469 70.8345C201.189 70.8345 198.353 70.1312 195.959 68.7242C193.589 67.3377 191.671 65.2925 190.436 62.8354C189.147 60.3138 188.502 57.3877 188.502 54.0565C188.502 50.7253 189.147 47.7837 190.436 45.2311C191.675 42.7731 193.596 40.7268 195.967 39.3384C198.355 37.9341 201.192 37.2319 204.477 37.2319C207.762 37.2319 210.599 37.9341 212.987 39.3384C215.355 40.7268 217.273 42.7716 218.51 45.2272C219.799 47.7487 220.444 50.6904 220.444 54.0526C220.444 57.4148 219.799 60.341 218.51 62.8315C217.275 65.2887 215.357 67.3338 212.987 68.7203C210.591 70.1273 207.752 70.8318 204.469 70.8345ZM204.512 63.8518C205.873 63.896 207.203 63.4394 208.252 62.5677C209.308 61.6293 210.092 60.4232 210.523 59.0763C211.549 55.7797 211.549 52.248 210.523 48.9513C210.091 47.5978 209.308 46.3844 208.252 45.4367C207.206 44.5592 205.874 44.0995 204.512 44.1449C203.134 44.1006 201.787 44.5596 200.721 45.4367C199.641 46.3735 198.839 47.5889 198.4 48.9513C197.369 52.2472 197.369 55.7805 198.4 59.0763C198.84 60.4318 199.642 61.6398 200.721 62.5677C201.791 63.4359 203.136 63.889 204.512 63.844V63.8518Z" fill="white"/>
<path d="M226.309 82.3988V37.6587H235.171V43.1247H235.557C236.009 42.158 236.588 41.2564 237.279 40.4441C238.094 39.4832 239.1 38.7049 240.234 38.1592C241.659 37.4993 243.218 37.1831 244.787 37.2359C247.101 37.2203 249.372 37.8633 251.335 39.0902C253.334 40.3238 254.931 42.1808 256.128 44.6609C257.325 47.1409 257.923 50.2444 257.923 53.9712C257.923 57.5918 257.342 60.6526 256.182 63.1536C255.191 65.4579 253.558 67.4258 251.478 68.8212C249.485 70.1006 247.161 70.7671 244.794 70.7376C243.266 70.7834 241.746 70.4862 240.346 69.8686C239.21 69.3512 238.193 68.6052 237.356 67.6768C236.636 66.8769 236.039 65.9734 235.585 64.9962H235.31V82.3988H226.309ZM235.12 53.9286C235.086 55.6502 235.357 57.3645 235.921 58.9911C236.368 60.3058 237.172 61.4692 238.242 62.3505C239.322 63.1315 240.62 63.5496 241.951 63.5454C243.282 63.5411 244.578 63.1148 245.653 62.3273C246.728 61.4377 247.533 60.2627 247.974 58.9368C249.023 55.6983 249.023 52.2093 247.974 48.9708C247.527 47.6592 246.723 46.4997 245.653 45.623C244.569 44.8455 243.27 44.4243 241.937 44.4165C240.604 44.4087 239.301 44.8153 238.207 45.5803C237.139 46.4411 236.335 47.5867 235.886 48.8855C235.333 50.507 235.074 52.2151 235.12 53.9286Z" fill="white"/>
<path d="M178.38 90.2078H177.246C170.92 90.041 164.694 88.5894 158.943 85.9406L162.018 79.2449C166.831 81.4697 172.044 82.6885 177.342 82.8274C182.639 82.9659 187.909 82.0217 192.831 80.0518L195.539 86.8988C190.081 89.0879 184.257 90.2109 178.38 90.2078Z" fill="white"/>
</g>
<defs>
<clipPath id="clip0_110_430">
<rect width="258" height="90" fill="white" transform="translate(0 0.382324)"/>
</clipPath>
</defs>
</svg>
