<svg width="258" height="90" viewBox="0 0 258 90" fill="none" xmlns="http://www.w3.org/2000/svg">
<g clip-path="url(#clip0_102_237)">
<path d="M84.0295 45.2095C84.4163 49.3991 83.5692 52.5802 83.0122 54.706C82.7762 55.5983 82.5132 56.4595 82.2386 57.2935C81.4468 59.5971 80.4434 61.8219 79.2408 63.9388C77.4383 67.1559 75.1875 70.0991 72.5568 72.6789C62.8363 81.9504 51.0426 82.9203 47.6619 82.9978H47.1436C42.1584 82.9342 37.2283 81.9438 32.6034 80.0767L32.2707 79.9409C28.443 78.3706 24.9109 76.1559 21.827 73.3927C17.7279 69.6674 14.4897 65.089 12.3386 59.978C10.9312 56.5844 10.0294 53.0019 9.66189 49.3448C9.66003 49.3293 9.66003 49.3138 9.66189 49.2983C9.66189 49.2983 9.66189 49.2672 9.66189 49.2517C9.46848 47.217 9.44129 45.1695 9.58066 43.1302C5.69515 40.1994 2.77969 36.1628 1.21402 31.5466C-1.55551 23.2487 1.10571 16.1185 2.37444 13.4341L4.67208 8.60043L5.99496 13.7871C6.30243 15.0589 6.87889 16.2496 7.68531 17.2784C8.21036 17.9471 8.86917 18.4982 9.61934 18.8961C10.5641 19.4247 11.4289 20.0857 12.1877 20.8591C15.3054 24.0672 15.8895 28.284 15.9978 29.7C17.808 28.4974 19.6028 28.253 21.1965 28.0358C22.795 27.82 24.4167 27.8435 26.0083 28.1056C27.1123 28.2976 28.2387 28.3237 29.3503 28.1832C30.6916 27.9882 31.9888 27.5603 33.1836 26.9185L37.6048 24.5909L35.9067 29.3082C34.8521 32.2371 33.3015 34.9615 31.3231 37.3616C29.3271 39.7746 25.989 43.8168 20.3107 44.9379C18.2998 45.3228 16.2336 45.3134 14.2262 44.9108C14.3809 47.0483 15.0501 50.1323 17.4367 52.0565C20.1057 54.2134 23.6256 53.8875 24.2832 53.8022C29.215 53.1659 31.6325 47.9095 34.4717 41.819C36.9666 36.4384 39.7285 30.4759 44.8189 26.6159L40.8387 23.4815L59.2158 0L82.6292 18.4306L74.8931 28.2996C76.2601 29.3361 77.5013 30.5301 78.591 31.8569C81.6568 35.6844 83.5463 40.3239 84.0295 45.2095ZM78.5794 55.9978C79.0281 54.3802 79.6083 52.2039 79.1673 49.5233C78.8451 47.6143 78.0924 45.8046 76.9664 44.2319C72.9598 44.9178 68.8539 44.7486 64.9174 43.7353C62.7837 43.1732 60.7236 42.3621 58.7787 41.3185C57.0768 41.985 55.4541 42.8384 53.9398 43.8634C52.5485 44.8119 51.253 45.8942 50.0717 47.0948C50.7332 50.0897 53.3132 58.694 61.6759 62.7478C65.6291 64.6037 70.0573 65.1903 74.3554 64.4276C76.1243 61.8149 77.5447 58.9806 78.5794 55.9978ZM78.4904 39.9608L79.148 40.7366C78.3512 38.4033 77.1575 36.2259 75.6203 34.3009C74.7082 33.1944 73.6696 32.1997 72.5258 31.3371C71.4892 30.5498 70.3864 29.854 69.2303 29.2578C65.2531 27.2028 60.806 26.2367 56.338 26.4569V30.9142H52.4699V27.0853C52.2804 27.1319 52.0831 27.1862 51.9091 27.2483C51.3992 27.4052 50.8983 27.589 50.4082 27.7991C49.5677 28.1581 48.7624 28.5944 48.0023 29.1026C43.144 32.3069 40.5253 37.9552 37.9839 43.456C34.959 49.9849 31.8298 56.7388 24.7822 57.6466C23.5715 57.8056 19.6415 58.0849 16.0867 55.8466C17.043 57.2555 18.2732 58.4562 19.7034 59.3767C21.9045 60.7116 24.4476 61.3699 27.0179 61.2698C27.3119 61.2698 27.6058 61.2388 27.6174 61.2388C28.9913 61.091 30.3377 60.75 31.617 60.2263C34.5452 58.981 37.7789 55.5711 37.8253 55.5168C39.773 53.4685 41.598 51.3066 43.291 49.0422C44.3017 47.6515 45.4092 46.3345 46.6059 45.1009L46.7955 44.9069C48.2982 43.3222 49.9615 41.8985 51.7582 40.659C53.7835 39.29 55.9752 38.1858 58.2798 37.3733L58.4229 37.3228L59.1153 37.0746L59.8889 37.5207C61.7444 38.5938 63.733 39.4169 65.8031 39.9685L65.8844 39.9918C69.6391 40.9593 73.5671 41.0361 77.3571 40.2168L78.4904 39.9608ZM71.6671 26.1776L77.2139 19.0862L59.885 5.44655L56.3496 9.96595V22.5931C61.686 22.3601 66.9841 23.5999 71.6671 26.1776ZM71.0947 68.6172H70.6112C66.9431 68.6374 63.3183 67.8243 60.0088 66.2392C52.0058 62.3599 48.4858 55.0513 47.016 50.5319L46.37 51.3698C44.7802 53.4976 43.0814 55.5409 41.2796 57.4914C41.6935 60.1526 43.3761 66.9724 49.9286 71.2358C56.0401 75.2121 62.4495 74.3586 64.7007 73.8776C66.5597 72.7161 68.2961 71.3681 69.884 69.8547C70.116 69.6453 70.5415 69.2147 71.0947 68.6172ZM49.7739 78.975C51.875 78.7504 53.9526 78.34 55.9821 77.7491C53.0764 77.2068 50.3046 76.0985 47.8244 74.4866C41.6355 70.4483 39.0555 64.5168 38.0109 60.6297C36.8607 61.6104 35.6184 62.4771 34.3015 63.2172C34.3634 65.5448 35.0132 70.5336 39.0284 74.4672C41.9256 77.2592 45.7573 78.8668 49.7739 78.975ZM52.4815 23.1129V14.9043L46.2926 22.822L48.393 24.4746C48.5632 24.3931 48.7334 24.3155 48.9074 24.2418C50.0605 23.7523 51.2573 23.373 52.4815 23.1091V23.1129ZM36.4289 77.3612L36.3245 77.2642C32.9452 73.897 30.8859 69.4237 30.5224 64.6603C29.6725 64.8764 28.8074 65.0269 27.9346 65.1103C27.9346 65.1103 27.5478 65.1375 27.161 65.153H26.5808C26.2984 65.153 26.0006 65.153 25.695 65.1336C26.2365 68.1509 27.6192 70.9526 29.683 73.2142C30.9349 74.5596 32.4165 75.6694 34.0578 76.4922C34.8597 76.8131 35.6501 77.1025 36.4289 77.3612ZM30.4257 31.9345L29.8957 32.0159C28.4405 32.2074 26.9651 32.1825 25.5171 31.9422C24.2654 31.7291 22.9889 31.7055 21.7303 31.8724C20.3223 32.0625 19.1038 32.2293 17.9821 33.0362C16.8604 33.8431 16.1757 35.0961 15.7541 35.8914C15.4292 36.5121 14.5666 38.1608 12.8608 37.5556C12.4432 37.421 12.0837 37.148 11.8412 36.7814C11.5987 36.4149 11.4877 35.9765 11.5263 35.5384C11.5387 35.0683 11.6036 34.6012 11.7197 34.1457C12.0628 32.8152 12.2113 31.4418 12.1607 30.0685C12.1181 29.4091 11.7739 25.9759 9.45301 23.5591C8.92707 23.0268 8.32632 22.5746 7.66983 22.2168C6.51568 21.5843 5.5002 20.7254 4.68369 19.6914C4.59472 19.5789 4.50962 19.4703 4.42453 19.3539C3.56654 22.9791 3.73128 26.7723 4.9003 30.309C6.26271 34.3116 8.83072 37.7912 12.2496 40.2672L13.0232 40.5427C15.1231 41.3259 17.3947 41.5272 19.5989 41.1246C23.9234 40.275 26.604 37.028 28.3756 34.8828C29.1343 33.955 29.8198 32.9692 30.4257 31.9345ZM22.4265 68.0509C22.0679 66.8867 21.8091 65.6942 21.6529 64.4858C21.3396 64.3965 21.0185 64.2918 20.6975 64.1754C20.6975 64.2375 20.7323 64.2957 20.7516 64.3577C21.1712 65.6476 21.733 66.8863 22.4265 68.0509Z" fill="#7E7E82"/>
<path d="M82.2312 57.2935C81.5558 59.6417 80.5463 61.8796 79.2335 63.9388C80.436 61.8218 81.4394 59.5971 82.2312 57.2935Z" fill="black"/>
<path d="M79.1677 49.5233C79.6087 52.2039 79.0285 54.3802 78.5798 55.9979C77.5489 58.9803 76.1328 61.8141 74.3675 64.4276C70.0697 65.1903 65.6415 64.6037 61.6879 62.7479C53.3136 58.694 50.7336 50.0897 50.0837 47.0948C51.2654 45.8942 52.5608 44.8119 53.9518 43.8634C55.4665 42.8385 57.0892 41.985 58.7908 41.3185C60.736 42.3621 62.7961 43.1732 64.9294 43.7354C68.8628 44.7471 72.9641 44.9162 76.9668 44.2319C78.0932 45.8046 78.8459 47.6143 79.1677 49.5233Z" fill="#040108"/>
<path d="M79.148 40.7483L78.4904 39.9724L77.3532 40.2168C73.5633 41.0361 69.6353 40.9593 65.8805 39.9918L65.7993 39.9685C63.7291 39.4169 61.7405 38.5938 59.885 37.5207L59.1114 37.0746L58.419 37.3229L58.2759 37.3733C55.9713 38.1858 53.7801 39.29 51.7544 40.659C49.9596 41.895 48.2979 43.3148 46.7955 44.8952L46.606 45.0892C45.4092 46.3267 44.3014 47.6476 43.291 49.0422C41.6022 51.3104 39.7811 53.4763 37.837 55.5284C37.7906 55.5827 34.5569 58.9926 31.6288 60.2379C30.3495 60.7616 29.0031 61.1026 27.6292 61.2504C27.6292 61.2504 27.3236 61.2737 27.0296 61.2814C24.4595 61.3773 21.9178 60.7151 19.719 59.3767C18.2888 58.4561 17.0587 57.2555 16.1024 55.8465C19.6571 58.0849 23.5871 57.7862 24.7978 57.6465C31.8454 56.7388 34.9747 49.9849 37.9995 43.456C40.5408 37.9707 43.1595 32.3224 48.0178 29.1026C48.7779 28.5945 49.5832 28.1581 50.4237 27.7992C50.9138 27.5891 51.4147 27.4052 51.9246 27.2483C52.1102 27.1862 52.3114 27.1319 52.4854 27.0854V30.9142H56.3535V26.4724C60.8153 26.2502 65.2566 27.2109 69.2303 29.2578C70.3853 29.853 71.4865 30.5474 72.522 31.3332C73.6658 32.1958 74.7048 33.1906 75.6165 34.297C77.1567 36.2264 78.3516 38.4092 79.148 40.7483ZM51.3482 34.0061C51.3482 33.4176 51.1741 32.8423 50.8481 32.353C50.522 31.8637 50.059 31.4823 49.5167 31.2571C48.9748 31.0319 48.3779 30.973 47.8027 31.0878C47.2272 31.2026 46.6984 31.486 46.2834 31.9021C45.8687 32.3182 45.586 32.8484 45.4715 33.4255C45.357 34.0028 45.4158 34.601 45.6405 35.1447C45.8648 35.6884 46.2451 36.1531 46.7332 36.48C47.221 36.8069 47.7946 36.9815 48.3814 36.9815C49.1682 36.9815 49.9228 36.668 50.4791 36.11C51.0357 35.552 51.3482 34.7952 51.3482 34.0061Z" fill="#020207"/>
<path d="M77.2143 19.0862L71.6675 26.1776C66.9845 23.5999 61.6864 22.3601 56.35 22.5931V9.96593L59.8854 5.44653L77.2143 19.0862Z" fill="#040108"/>
<path d="M70.6111 68.6211H71.0947C70.5415 69.2263 70.116 69.6492 69.884 69.8703C68.2965 71.3836 66.5597 72.7317 64.7007 73.8931C62.4495 74.3742 56.0401 75.2276 49.9286 71.2513C43.3761 66.9841 41.6935 60.1681 41.2796 57.5069C43.0817 55.5514 44.7806 53.5031 46.37 51.3699L47.0159 50.5242C48.4858 55.0436 52.0058 62.3599 60.0088 66.2315C63.3175 67.8208 66.9423 68.6378 70.6111 68.6211Z" fill="#040108"/>
<path d="M55.9825 77.7491C53.9525 78.3349 51.875 78.7399 49.7743 78.9595C45.7604 78.8567 41.9287 77.2561 39.0288 74.4711C35.0136 70.5336 34.3638 65.5487 34.3019 63.2211C35.6188 62.4809 36.8611 61.6143 38.0114 60.6336C39.0558 64.5129 41.6165 70.4521 47.8248 74.4905C50.3053 76.1008 53.0768 77.208 55.9825 77.7491Z" fill="#040108"/>
<path d="M52.4819 14.9043V23.1052C51.255 23.37 50.0559 23.7505 48.9001 24.2418C48.726 24.3155 48.5558 24.3931 48.3856 24.4746L46.2853 22.822L52.4819 14.9043Z" fill="#040108"/>
<path d="M48.3818 31.0267C48.9697 31.026 49.5441 31.2001 50.0335 31.5269C50.5224 31.8538 50.9038 32.3189 51.1293 32.8632C51.3544 33.4075 51.414 34.0067 51.2999 34.5849C51.1857 35.1631 50.903 35.6943 50.4876 36.1113C50.0725 36.5284 49.543 36.8125 48.9666 36.9278C48.3903 37.0431 47.7927 36.9843 47.2496 36.7589C46.7069 36.5335 46.2427 36.1517 45.9159 35.6617C45.5894 35.1716 45.415 34.5955 45.415 34.006C45.4146 33.615 45.4908 33.2277 45.6397 32.8662C45.7886 32.5048 46.0072 32.1763 46.2826 31.8996C46.558 31.6229 46.8852 31.4034 47.2457 31.2536C47.6058 31.1038 47.9919 31.0267 48.3818 31.0267Z" fill="#7E7E82"/>
<path d="M36.3251 77.2604L36.4295 77.3573C35.6559 77.0986 34.863 76.8115 34.0507 76.4961C32.4094 75.6733 30.9278 74.5635 29.6759 73.2181C27.6121 70.9565 26.2294 68.1548 25.6879 65.1375C25.9935 65.1375 26.2913 65.1569 26.5737 65.1569H27.1539C27.5407 65.1569 27.9275 65.1142 27.9275 65.1142C28.8003 65.0308 29.6654 64.8803 30.5153 64.6642C30.8827 69.4261 32.9447 73.8966 36.3251 77.2604Z" fill="#040108"/>
<path d="M32.6035 80.0767V80.1038C32.4952 80.0495 32.3869 79.9991 32.2825 79.9409L32.6035 80.0767Z" fill="black"/>
<path d="M29.8961 32.0159L30.426 31.9345C29.8141 32.9712 29.1222 33.9583 28.3566 34.8866C26.585 37.0319 23.9044 40.2789 19.5799 41.1285C17.3757 41.5311 15.1041 41.3298 13.0042 40.5466L12.2306 40.2711C8.81172 37.7951 6.24371 34.3155 4.8813 30.3129C3.71227 26.7762 3.54754 22.983 4.40552 19.3577C4.49062 19.4741 4.57572 19.5827 4.66468 19.6952C5.48119 20.7293 6.49668 21.5881 7.65083 22.2207C8.30732 22.5784 8.90807 23.0307 9.43401 23.5629C11.7858 25.9797 12.1184 29.4129 12.1417 30.0724C12.1923 31.4457 12.0438 32.8191 11.7007 34.1495C11.5846 34.605 11.5197 35.0722 11.5073 35.5422C11.4687 35.9804 11.5797 36.4187 11.8222 36.7853C12.0647 37.1518 12.4242 37.4248 12.8418 37.5595C14.5476 38.1646 15.4102 36.5159 15.7351 35.8952C16.1567 35.1 16.7911 33.8896 17.9631 33.0401C19.1351 32.1905 20.3033 32.0625 21.7113 31.8763C22.9699 31.7094 24.2464 31.7329 25.4981 31.9461C26.9526 32.187 28.4347 32.2105 29.8961 32.0159Z" fill="#020207"/>
<path d="M21.6529 64.4663C21.8091 65.6748 22.0679 66.8673 22.4265 68.0314C21.7396 66.8657 21.1844 65.627 20.7709 64.3383C20.7516 64.2763 20.7323 64.2181 20.7168 64.156C21.034 64.2724 21.355 64.3771 21.6529 64.4663Z" fill="#040108"/>
<path d="M109.95 69.816L101.123 37.2763H110.232L115.261 59.1285H115.555L120.792 37.2647H129.727L135.05 58.9888H135.324L140.268 37.2647H149.35L140.542 69.8043H131.008L125.434 49.3526H125.047L119.469 69.816H109.95Z" fill="#7E7E82"/>
<path d="M167.97 70.4521C164.69 70.4521 161.853 69.7488 159.461 68.3418C157.091 66.9557 155.174 64.9102 153.941 62.453C152.603 59.7247 151.94 56.7136 152.007 53.6741C152.007 50.3119 152.651 47.3702 153.941 44.8487C155.179 42.3904 157.1 40.3436 159.472 38.956C161.855 37.5517 164.691 36.8495 167.982 36.8495C171.272 36.8495 174.109 37.5517 176.492 38.956C178.86 40.3444 180.778 42.3892 182.015 44.8448C183.305 47.3664 183.949 50.308 183.949 53.6702C184.018 56.7101 183.354 59.7216 182.015 62.4491C180.78 64.9063 178.862 66.9514 176.492 68.3379C174.094 69.7449 171.253 70.4494 167.97 70.4521ZM168.013 63.4694C169.374 63.5136 170.705 63.057 171.753 62.1853C172.809 61.2469 173.593 60.0408 174.024 58.6939C175.05 55.3973 175.05 51.8656 174.024 48.5689C173.593 47.2155 172.809 46.002 171.753 45.0543C170.707 44.1768 169.376 43.7171 168.013 43.7625C166.635 43.7183 165.288 44.1772 164.222 45.0543C163.143 45.9911 162.34 47.2065 161.901 48.5689C160.875 51.8656 160.875 55.3973 161.901 58.6939C162.34 60.0494 163.143 61.2574 164.222 62.1853C165.292 63.0535 166.637 63.5066 168.013 63.4616V63.4694Z" fill="#7E7E82"/>
<path d="M204.469 70.4521C201.189 70.4521 198.352 69.7488 195.959 68.3418C193.589 66.9553 191.671 64.9102 190.436 62.453C189.146 59.9314 188.502 57.0053 188.502 53.6741C188.502 50.343 189.146 47.4013 190.436 44.8487C191.675 42.3908 193.596 40.3444 195.967 38.956C198.355 37.5517 201.192 36.8495 204.477 36.8495C207.762 36.8495 210.599 37.5517 212.987 38.956C215.355 40.3444 217.273 42.3892 218.51 44.8448C219.799 47.3664 220.444 50.308 220.444 53.6702C220.444 57.0324 219.799 59.9586 218.51 62.4491C217.275 64.9063 215.356 66.9514 212.987 68.3379C210.591 69.7449 207.752 70.4494 204.469 70.4521ZM204.512 63.4694C205.873 63.5136 207.203 63.057 208.252 62.1853C209.308 61.2469 210.092 60.0408 210.523 58.6939C211.549 55.3973 211.549 51.8656 210.523 48.5689C210.091 47.2155 209.308 46.002 208.252 45.0543C207.206 44.1768 205.874 43.7171 204.512 43.7625C203.134 43.7183 201.787 44.1772 200.721 45.0543C199.641 45.9911 198.839 47.2065 198.4 48.5689C197.369 51.8648 197.369 55.3981 198.4 58.6939C198.839 60.0494 199.642 61.2574 200.721 62.1853C201.791 63.0535 203.136 63.5066 204.512 63.4616V63.4694Z" fill="#7E7E82"/>
<path d="M226.309 82.0164V37.2763H235.171V42.7422H235.557C236.009 41.7755 236.588 40.874 237.279 40.0616C238.094 39.1007 239.1 38.3225 240.234 37.7767C241.659 37.1169 243.218 36.8007 244.787 36.8534C247.101 36.8379 249.372 37.4808 251.335 38.7078C253.334 39.9414 254.931 41.7984 256.128 44.2784C257.325 46.7585 257.923 49.8619 257.923 53.5888C257.923 57.2094 257.342 60.2701 256.182 62.7711C255.191 65.0754 253.558 67.0434 251.478 68.4388C249.485 69.7182 247.161 70.3847 244.794 70.3552C243.266 70.4009 241.746 70.1038 240.346 69.4862C239.21 68.9687 238.193 68.2227 237.356 67.2944C236.636 66.4945 236.039 65.591 235.585 64.6138H235.31V82.0164H226.309ZM235.12 53.5461C235.086 55.2678 235.357 56.982 235.921 58.6086C236.368 59.9233 237.172 61.0867 238.242 61.9681C239.322 62.749 240.62 63.1672 241.951 63.1629C243.282 63.1587 244.578 62.7323 245.653 61.9448C246.728 61.0553 247.533 59.8803 247.974 58.5543C249.023 55.3159 249.023 51.8268 247.974 48.5884C247.527 47.2768 246.723 46.1172 245.653 45.2405C244.569 44.4631 243.27 44.0418 241.937 44.034C240.604 44.0263 239.301 44.4328 238.207 45.1978C237.139 46.0587 236.335 47.2042 235.886 48.503C235.333 50.1246 235.074 51.8326 235.12 53.5461Z" fill="#7E7E82"/>
<path d="M178.38 89.8254H177.246C170.92 89.6586 164.694 88.207 158.943 85.5582L162.018 78.8625C166.83 81.0873 172.044 82.3062 177.342 82.445C182.639 82.5835 187.909 81.6393 192.831 79.6694L195.538 86.5164C190.081 88.7055 184.257 89.8285 178.38 89.8254Z" fill="#7E7E82"/>
</g>
<defs>
<clipPath id="clip0_102_237">
<rect width="258" height="90" fill="white"/>
</clipPath>
</defs>
</svg>
