<svg width="48" height="49" viewBox="0 0 48 49" fill="none" xmlns="http://www.w3.org/2000/svg">
<path d="M16.441 13.3823C17.5007 13.3823 18.4543 13.4741 19.3287 13.6612C20.1977 13.8465 20.939 14.1524 21.5652 14.5752C22.1823 14.998 22.6645 15.5594 23.0117 16.2647C23.3482 16.961 23.5155 17.8318 23.5155 18.861C23.5155 19.9765 23.2636 20.9085 22.7581 21.6516C22.2489 22.3965 21.4986 23.0064 20.4982 23.4778C21.8602 23.8719 22.8696 24.561 23.5389 25.5397C24.2118 26.5275 24.5411 27.7096 24.5411 29.095C24.5411 30.2195 24.327 31.1857 23.897 31.9972C23.4826 32.7966 22.8814 33.4841 22.1445 34.0015C21.3812 34.5331 20.5286 34.9231 19.6274 35.153C18.6825 35.4011 17.7094 35.5257 16.7324 35.5237H6V13.3823H16.441ZM15.8094 22.3281C16.6731 22.3281 17.3891 22.123 17.9541 21.7074C18.5155 21.2972 18.7872 20.6206 18.7872 19.694C18.7872 19.1795 18.6954 18.7548 18.5155 18.422C18.3402 18.1017 18.0807 17.8355 17.7652 17.6519C17.4349 17.456 17.0704 17.3247 16.691 17.2651C16.2776 17.188 15.8576 17.1512 15.437 17.1553H10.8759V22.3281H15.8094ZM16.0811 31.7543C16.5615 31.7543 17.0185 31.7129 17.4485 31.6158C17.8821 31.5222 18.2672 31.3711 18.5946 31.1462C18.9221 30.9302 19.192 30.637 19.3863 30.2627C19.5824 29.8921 19.6778 29.4081 19.6778 28.8269C19.6778 27.6862 19.3557 26.8748 18.7188 26.3836C18.0801 25.8978 17.2236 25.6567 16.1747 25.6567H10.8759V31.7561H16.0811V31.7543ZM31.4915 31.6805C32.1519 32.3246 33.1037 32.6485 34.3415 32.6485C35.2285 32.6485 35.995 32.4236 36.6409 31.9774C37.2779 31.5294 37.6665 31.0508 37.8158 30.556H41.6932C41.0707 32.4848 40.1261 33.863 38.8342 34.6924C37.5586 35.5255 36.0058 35.9393 34.1922 35.9393C32.9291 35.9393 31.792 35.736 30.7736 35.333C29.7962 34.9523 28.9128 34.3642 28.1845 33.6093C27.4683 32.8368 26.9145 31.9282 26.5562 30.9374C26.1624 29.8419 25.9674 28.6848 25.9805 27.5207C25.9805 26.3224 26.1802 25.2015 26.5724 24.1669C26.9448 23.1669 27.5165 22.253 28.2529 21.4807C28.9816 20.725 29.8452 20.1294 30.851 19.6922C31.9086 19.2474 33.0467 19.0257 34.194 19.0409C35.5506 19.0409 36.7363 19.3036 37.7547 19.8326C38.7422 20.3375 39.5985 21.0657 40.2556 21.9593C40.9087 22.8463 41.3747 23.8629 41.6644 25.0018C41.9541 26.1389 42.0548 27.3264 41.9721 28.5697H30.4012C30.403 29.8363 30.8294 31.0364 31.4915 31.6805ZM36.551 23.2583C36.0274 22.679 35.1422 22.3659 34.059 22.3659C33.3555 22.3659 32.7744 22.4828 32.3066 22.7239C31.8789 22.94 31.4994 23.2405 31.1911 23.6074C30.9203 23.9404 30.7196 24.3248 30.6009 24.7373C30.4971 25.0813 30.4302 25.4353 30.4012 25.7934H37.5657C37.4614 24.6707 37.0764 23.8413 36.551 23.2583ZM29.5016 14.8685H38.478V17.0546H29.5016V14.8685Z" fill="#E3E4E6" fill-opacity="0.55"/>
</svg>
