<svg width="45" height="43" viewBox="0 0 45 43" fill="none" xmlns="http://www.w3.org/2000/svg">
<path d="M21.4464 0.610255C22.0229 -0.203501 23.2307 -0.203503 23.8071 0.610254L25.68 3.25406C26.116 3.86941 26.9516 4.04661 27.5998 3.66116L30.4449 1.9693C31.3079 1.45614 32.4184 1.95661 32.6055 2.94295L33.1869 6.00902C33.3295 6.76135 34.0339 7.27212 34.7934 7.17396L38.0506 6.75299C39.0618 6.62231 39.8872 7.55056 39.639 8.53933L38.9014 11.4789C38.7112 12.2369 39.1575 13.0089 39.9094 13.2222L42.9676 14.0902C43.9618 14.3724 44.3478 15.5759 43.7032 16.3836L41.8137 18.7513C41.3204 19.3694 41.415 20.2691 42.0262 20.771L44.3946 22.716C45.1958 23.374 45.0648 24.6363 44.1456 25.1159L41.3814 26.5579C40.6832 26.9221 40.4047 27.778 40.755 28.4834L42.097 31.1857C42.554 32.1058 41.9327 33.1955 40.9081 33.2713L37.679 33.51C36.9072 33.5671 36.3171 34.2213 36.3398 34.9948L36.4297 38.0608C36.4594 39.0715 35.4691 39.7999 34.5129 39.4707L31.3834 38.3931C30.6659 38.1461 29.8794 38.4955 29.5818 39.1935L28.3341 42.1204C27.9423 43.0393 26.7589 43.2939 26.0238 42.6173L23.6064 40.3924C23.0527 39.8828 22.2008 39.8828 21.6471 40.3924L19.2297 42.6173C18.4947 43.2939 17.3113 43.0393 16.9195 42.1204L15.6717 39.1935C15.3741 38.4955 14.5877 38.1461 13.8701 38.3931L10.7406 39.4707C9.78445 39.7999 8.79417 39.0715 8.82382 38.0608L8.91375 34.9948C8.93643 34.2213 8.3463 33.5671 7.57455 33.51L4.34539 33.2713C3.32079 33.1955 2.69958 32.1058 3.15651 31.1857L4.49855 28.4834C4.84883 27.778 4.57036 26.9221 3.8721 26.5579L1.10797 25.1159C0.188748 24.6363 0.057779 23.374 0.858987 22.716L3.22734 20.771C3.83852 20.2691 3.93319 19.3694 3.43988 18.7513L1.55034 16.3836C0.905716 15.5759 1.29176 14.3724 2.28598 14.0902L5.34417 13.2222C6.09602 13.0089 6.54238 12.2369 6.35217 11.4789L5.6145 8.53933C5.36638 7.55056 6.19178 6.62231 7.20291 6.75299L10.4601 7.17396C11.2196 7.27212 11.924 6.76135 12.0667 6.00902L12.6481 2.94295C12.8351 1.95661 13.9457 1.45614 14.8086 1.9693L17.6538 3.66116C18.302 4.04661 19.1376 3.86941 19.5735 3.25407L21.4464 0.610255Z" fill="#1ABCFE"/>
<path d="M19.7005 20.4232C19.6304 20.5891 19.5632 20.7206 19.499 20.8179C19.4347 20.9151 19.3646 20.9923 19.2887 21.0495C19.2127 21.101 19.1251 21.1353 19.0258 21.1525C18.9323 21.1696 18.8213 21.1782 18.6928 21.1782C18.1436 21.1324 17.6704 21.0981 17.2732 21.0752C16.8818 21.0524 16.5342 21.0409 16.2304 21.0409C15.9325 21.0409 15.6696 21.0524 15.4417 21.0752C15.2197 21.0981 15.0007 21.1382 14.7845 21.1954C14.6969 21.3326 14.5654 21.55 14.3902 21.8474C14.2149 22.1448 14.0192 22.4852 13.8031 22.8684C13.5928 23.2459 13.3766 23.6491 13.1546 24.0781C12.9326 24.5071 12.7281 24.9189 12.5412 25.3136C12.1381 26.1715 11.7759 26.8122 11.4546 27.2354C11.1391 27.6587 10.8704 27.8703 10.6484 27.8703C10.3797 27.8703 10.184 27.8217 10.0613 27.7245C9.94445 27.6329 9.88603 27.4957 9.88603 27.3126C9.88603 27.0953 9.9649 26.7921 10.1226 26.4032C10.2862 26.0085 10.5111 25.5309 10.7974 24.9704C10.9025 24.7645 11.0165 24.5443 11.1391 24.3098C11.2677 24.0753 11.3962 23.8407 11.5247 23.6062C11.6532 23.3717 11.7788 23.1429 11.9015 22.9199C12.0242 22.6968 12.1352 22.4966 12.2345 22.3193C12.3338 22.1363 12.4156 21.9818 12.4799 21.856C12.55 21.7302 12.5938 21.6472 12.6113 21.6072C12.6288 21.5614 12.6405 21.53 12.6464 21.5128C12.658 21.4956 12.6639 21.4842 12.6639 21.4785C12.6697 21.467 12.6726 21.4613 12.6726 21.4613C12.6726 21.4556 12.6756 21.4413 12.6814 21.4184H12.5237C12.3017 21.4184 12.1235 21.4013 11.9891 21.367C11.8548 21.3326 11.7876 21.2583 11.7876 21.1439C11.7876 21.081 11.8139 21.0009 11.8665 20.9037C11.9891 20.6806 12.1264 20.5118 12.2783 20.3975C12.4302 20.2773 12.5763 20.1915 12.7165 20.1401C12.8625 20.0886 12.994 20.0628 13.1108 20.0628C13.2335 20.0571 13.3269 20.0543 13.3912 20.0543C13.5489 19.7397 13.7067 19.4251 13.8644 19.1105C14.0221 18.7959 14.1799 18.4813 14.3376 18.1668C14.6355 17.5891 14.9364 17.1057 15.2402 16.7168C15.5498 16.3279 15.8857 16.0161 16.2479 15.7816C16.6101 15.5471 17.0103 15.3812 17.4484 15.284C17.8866 15.181 18.3861 15.1296 18.9469 15.1296C19.461 15.1296 19.8699 15.1439 20.1737 15.1725C20.4833 15.2011 20.6995 15.2297 20.8222 15.2583C21.0559 15.3212 21.2194 15.4299 21.3129 15.5843C21.4122 15.733 21.4619 15.8989 21.4619 16.0819C21.4619 16.2249 21.4356 16.3679 21.383 16.5109C21.3363 16.6539 21.2691 16.7854 21.1815 16.9055C21.0997 17.0199 21.0033 17.1143 20.8923 17.1887C20.7871 17.263 20.679 17.3002 20.568 17.3002C20.5038 17.3002 20.4483 17.2888 20.4016 17.2659C20.273 17.2087 20.1562 17.1601 20.051 17.12C19.9517 17.0743 19.8495 17.04 19.7443 17.0171C19.6392 16.9885 19.5194 16.9685 19.3851 16.957C19.2565 16.9456 19.0959 16.9399 18.9031 16.9399C18.7045 16.9399 18.4679 16.9456 18.1933 16.957C17.9246 16.9627 17.5945 16.9742 17.2031 16.9913C17.0453 17.2602 16.8964 17.5118 16.7562 17.7464C16.6218 17.9751 16.4874 18.2039 16.3531 18.4327C16.2246 18.6558 16.0902 18.8846 15.95 19.1191C15.8156 19.3479 15.6666 19.5995 15.5031 19.8741C15.7192 19.7997 15.9529 19.734 16.2041 19.6768C16.4612 19.6138 16.7211 19.5624 16.984 19.5223C17.2527 19.4823 17.5215 19.4508 17.7902 19.428C18.0589 19.4051 18.316 19.3936 18.5613 19.3936C19.0053 19.3936 19.3237 19.428 19.5165 19.4966C19.7151 19.5652 19.8144 19.7054 19.8144 19.917C19.8144 19.9628 19.8115 20.0314 19.8057 20.1229C19.7998 20.2087 19.7648 20.3088 19.7005 20.4232Z" fill="white"/>
<path d="M21.2253 22.8255C20.9507 22.8255 20.6849 22.8941 20.4278 23.0314C20.1708 23.1687 19.943 23.3488 19.7443 23.5719C19.5457 23.795 19.388 24.0467 19.2711 24.3269C19.1543 24.6015 19.0959 24.8789 19.0959 25.1591C19.0959 25.2735 19.1017 25.3937 19.1134 25.5195C19.1309 25.6396 19.166 25.7511 19.2186 25.8541C19.2711 25.9571 19.3442 26.0428 19.4376 26.1115C19.5369 26.1801 19.6684 26.2144 19.832 26.2144C19.9605 26.2144 20.1095 26.1601 20.2789 26.0514C20.4541 25.937 20.6323 25.794 20.8134 25.6224C21.0004 25.4451 21.1815 25.2535 21.3567 25.0476C21.532 24.836 21.6897 24.6301 21.8299 24.4299C21.9701 24.2297 22.084 24.0495 22.1717 23.8894C22.2593 23.7292 22.3031 23.612 22.3031 23.5376C22.3031 23.4289 22.2651 23.3317 22.1892 23.2459C22.1132 23.1544 22.0198 23.0772 21.9088 23.0142C21.7978 22.9513 21.678 22.9056 21.5495 22.877C21.4268 22.8426 21.3187 22.8255 21.2253 22.8255ZM27.298 25.039C27.1928 25.1363 27.0526 25.2707 26.8774 25.4423C26.7021 25.6139 26.5006 25.7998 26.2727 25.9999C26.0507 26.2001 25.8112 26.4032 25.5542 26.6091C25.303 26.8093 25.043 26.9923 24.7743 27.1582C24.5114 27.3241 24.2514 27.4585 23.9944 27.5614C23.7373 27.6701 23.4949 27.7245 23.267 27.7245C23.0626 27.7245 22.8873 27.6816 22.7413 27.5958C22.5952 27.51 22.4725 27.3984 22.3732 27.2612C22.2797 27.1239 22.2096 26.9694 22.1629 26.7979C22.1162 26.6205 22.0928 26.4404 22.0928 26.2573C22.0928 26.1372 22.1016 26.02 22.1191 25.9056C22.1366 25.7855 22.1658 25.6739 22.2067 25.571C22.0256 25.8112 21.8182 26.06 21.5845 26.3174C21.3567 26.5691 21.1084 26.8007 20.8397 27.0123C20.5768 27.2183 20.2993 27.387 20.0072 27.5185C19.721 27.6558 19.4289 27.7245 19.1309 27.7245C18.979 27.7245 18.8009 27.693 18.5964 27.6301C18.3978 27.5729 18.2079 27.4756 18.0268 27.3384C17.8457 27.2011 17.6938 27.0238 17.5711 26.8064C17.4484 26.5891 17.3871 26.3231 17.3871 26.0085C17.3871 25.774 17.4222 25.4938 17.4923 25.1677C17.5682 24.8417 17.6792 24.5042 17.8253 24.1553C17.9771 23.8007 18.167 23.4518 18.3948 23.1086C18.6285 22.7654 18.9031 22.4594 19.2186 22.1906C19.534 21.916 19.8933 21.6958 20.2964 21.53C20.6995 21.3584 21.1493 21.2726 21.6459 21.2726C21.9029 21.2726 22.1279 21.304 22.3206 21.367C22.5134 21.4299 22.677 21.4985 22.8114 21.5729C22.9633 21.6644 23.0976 21.7645 23.2145 21.8731C23.3138 21.8217 23.416 21.7731 23.5212 21.7273C23.6088 21.6873 23.6993 21.6529 23.7928 21.6243C23.8921 21.59 23.9768 21.5729 24.0469 21.5729C24.2689 21.5729 24.45 21.6329 24.5902 21.753C24.7304 21.8731 24.8005 22.0047 24.8005 22.1477C24.8005 22.1877 24.7976 22.2192 24.7918 22.2421C24.7626 22.3507 24.7158 22.488 24.6516 22.6539C24.5932 22.8198 24.526 23.0057 24.45 23.2116C24.3741 23.4118 24.2952 23.6234 24.2134 23.8465C24.1375 24.0638 24.0674 24.2783 24.0031 24.4899C23.9389 24.7016 23.8863 24.9018 23.8454 25.0905C23.8045 25.2735 23.784 25.4308 23.784 25.5624C23.784 25.734 23.8133 25.877 23.8717 25.9914C23.9301 26.1 24.0294 26.1544 24.1696 26.1544C24.2572 26.1544 24.3595 26.1286 24.4763 26.0772C24.599 26.02 24.7304 25.9456 24.8706 25.8541C25.0109 25.7626 25.154 25.6596 25.3 25.5452C25.4519 25.4251 25.598 25.305 25.7382 25.1849C26.0653 24.8989 26.4129 24.5729 26.781 24.2068C26.8744 24.1325 26.965 24.0953 27.0526 24.0953C27.1695 24.0953 27.2659 24.1525 27.3418 24.2669C27.4236 24.3755 27.4645 24.4985 27.4645 24.6358C27.4645 24.7959 27.409 24.9304 27.298 25.039Z" fill="white"/>
<path d="M33.9666 25.5881C33.5284 25.9142 33.0903 26.1715 32.6521 26.3603C32.214 26.5433 31.7291 26.6348 31.1975 26.6348C31.0222 26.6348 30.8528 26.6034 30.6892 26.5405C30.5257 26.4775 30.3124 26.366 30.0495 26.2059C29.664 26.7035 29.2755 27.081 28.8841 27.3384C28.4985 27.5958 28.0954 27.7245 27.6748 27.7245C27.4703 27.7245 27.2746 27.6873 27.0877 27.6129C26.9007 27.5443 26.7372 27.4385 26.5969 27.2955C26.4567 27.1525 26.3428 26.9752 26.2552 26.7635C26.1734 26.5519 26.1325 26.306 26.1325 26.0257C26.1325 25.6825 26.1705 25.3136 26.2464 24.9189C26.3282 24.5185 26.4246 24.1296 26.5356 23.7521C26.6466 23.3746 26.7547 23.0257 26.8598 22.7054C26.9708 22.3851 27.0585 22.1305 27.1227 21.9418C27.2396 21.7016 27.3856 21.53 27.5609 21.427C27.742 21.3183 27.9172 21.264 28.0866 21.264C28.1626 21.264 28.2385 21.2783 28.3145 21.3069C28.3963 21.3298 28.4693 21.3641 28.5336 21.4099C28.5978 21.4556 28.6504 21.5099 28.6913 21.5729C28.7322 21.6358 28.7526 21.7044 28.7526 21.7788C28.7526 21.8417 28.7409 21.896 28.7176 21.9418C28.6299 22.2163 28.5248 22.5166 28.4021 22.8426C28.2853 23.163 28.1743 23.4861 28.0691 23.8121C27.964 24.1382 27.8734 24.4585 27.7975 24.7731C27.7274 25.0819 27.6923 25.3651 27.6923 25.6224C27.6923 25.6625 27.6982 25.7168 27.7098 25.7855C27.7215 25.8484 27.7361 25.9113 27.7537 25.9742C27.7712 26.0314 27.7945 26.0829 27.8238 26.1286C27.853 26.1687 27.8851 26.1887 27.9202 26.1887C28.072 26.1887 28.2415 26.1058 28.4284 25.9399C28.6153 25.774 28.8198 25.5452 29.0418 25.2535C29.2346 25.0533 29.4157 24.8188 29.5851 24.55C29.7604 24.2754 29.9239 23.9952 30.0758 23.7092C30.2336 23.4232 30.3825 23.1429 30.5227 22.8684C30.6688 22.5881 30.809 22.3393 30.9434 22.122C31.0836 21.8989 31.2209 21.7216 31.3552 21.59C31.4896 21.4527 31.6269 21.3841 31.7671 21.3841C32.0066 21.3841 32.176 21.4613 32.2753 21.6158C32.3746 21.7645 32.4243 21.9446 32.4243 22.1563C32.4243 22.3965 32.3834 22.6167 32.3016 22.8169C32.2257 23.0171 32.1205 23.2259 31.9862 23.4432C31.8518 23.6549 31.6911 23.8922 31.5042 24.1553C31.3231 24.4127 31.1245 24.7216 30.9083 25.0819C31.0018 25.202 31.1478 25.2621 31.3465 25.2621C31.5568 25.2621 31.7729 25.2364 31.9949 25.1849C32.2228 25.1334 32.4477 25.0619 32.6697 24.9704C32.8917 24.8732 33.1107 24.7588 33.3269 24.6272C33.5489 24.4899 33.7621 24.3412 33.9666 24.1811C34.0542 24.1296 34.136 24.1039 34.2119 24.1039C34.3171 24.1039 34.4018 24.1496 34.4661 24.2411C34.5362 24.3326 34.5712 24.4499 34.5712 24.5929C34.5712 24.7473 34.5245 24.9161 34.431 25.0991C34.3375 25.2764 34.1827 25.4394 33.9666 25.5881Z" fill="white"/>
</svg>
