<svg width="48" height="49" viewBox="0 0 48 49" fill="none" xmlns="http://www.w3.org/2000/svg">
<path fill-rule="evenodd" clip-rule="evenodd" d="M20.4005 20.1634H25.6001V22.4944C26.3491 21.1538 28.2699 19.9492 31.1553 19.9492C36.6867 19.9492 37.9999 22.6179 37.9999 27.5143V36.5825H32.3999V28.6294C32.3999 25.841 31.6509 24.2685 29.7441 24.2685C27.0995 24.2685 26.0005 25.9632 26.0005 28.6281V36.5825H20.4005V20.1634Z" fill="#E3E4E6" fill-opacity="0.55"/>
<path fill-rule="evenodd" clip-rule="evenodd" d="M10.7979 36.3683H16.3979V19.9492H10.7979V36.3683Z" fill="#E3E4E6" fill-opacity="0.55"/>
<path fill-rule="evenodd" clip-rule="evenodd" d="M17.2002 14.5953C17.2004 15.0178 17.1073 15.436 16.9263 15.8258C16.7454 16.2156 16.4801 16.5691 16.146 16.8658C15.469 17.4714 14.5525 17.8104 13.598 17.8083C12.6451 17.8078 11.7308 17.4696 11.0528 16.8671C10.7199 16.5694 10.4555 16.2155 10.2749 15.8256C10.0942 15.4358 10.0008 15.0177 10 14.5953C10 13.7423 10.378 12.9258 11.0542 12.3235C11.7316 11.7202 12.6463 11.3819 13.5994 11.3823C14.5542 11.3823 15.4698 11.7213 16.146 12.3235C16.8208 12.9258 17.2002 13.7423 17.2002 14.5953Z" fill="#E3E4E6" fill-opacity="0.55"/>
</svg>
