<svg width="196" height="32" viewBox="0 0 196 32" fill="none" xmlns="http://www.w3.org/2000/svg">
<path d="M16.8953 0.664514L33.7579 31.3445L6.49608e-05 31.3265L16.8953 0.664514Z" fill="#3246FA"/>
<path d="M33.3849 24.4213C36.7149 23.365 39.1283 20.2456 39.1283 16.5619C39.1283 12.0095 35.4425 8.31903 30.8958 8.31903H24.551L33.3849 24.4213Z" fill="#3246FA"/>
<path d="M47.4912 24.8381L53.0643 7.16133H57.3976L62.9707 24.8381H59.9264L54.8688 8.97811H55.5317L50.5356 24.8381H47.4912ZM50.5969 21.0082V18.2462H59.8773V21.0082H50.5969Z" fill="white"/>
<path d="M65.4356 9.56734V6.85444H68.394V9.56734H65.4356ZM65.4356 24.8381V11.5805H68.394V24.8381H65.4356Z" fill="white"/>
<path d="M77.19 25.2064C75.5533 25.2064 74.2234 24.8381 73.2005 24.1016C72.1775 23.3651 71.5555 22.3298 71.3346 20.9959L74.3544 20.5294C74.5099 21.1841 74.8536 21.6997 75.3855 22.0761C75.9175 22.4526 76.5885 22.6408 77.3987 22.6408C78.1107 22.6408 78.659 22.5017 79.0436 22.2234C79.4365 21.937 79.6329 21.5483 79.6329 21.0573C79.6329 20.7545 79.5592 20.5131 79.4119 20.333C79.2728 20.1448 78.9618 19.9647 78.479 19.7929C77.9961 19.621 77.2555 19.4042 76.2571 19.1423C75.1441 18.8477 74.2603 18.5326 73.6056 18.1971C72.9509 17.8533 72.4803 17.4483 72.1939 16.9818C71.9074 16.5153 71.7642 15.9506 71.7642 15.2878C71.7642 14.4612 71.9811 13.741 72.4148 13.1273C72.8486 12.5135 73.4542 12.0429 74.2316 11.7156C75.0091 11.38 75.9256 11.2123 76.9813 11.2123C78.0125 11.2123 78.925 11.3718 79.7188 11.691C80.5208 12.0102 81.1673 12.4644 81.6583 13.0536C82.1494 13.6428 82.4522 14.3343 82.5667 15.1282L79.5469 15.6683C79.4733 15.1036 79.2155 14.6576 78.7736 14.3303C78.3398 14.0029 77.7588 13.8188 77.0304 13.7779C76.3348 13.7369 75.7742 13.8433 75.3487 14.097C74.9231 14.3425 74.7104 14.6903 74.7104 15.1404C74.7104 15.3941 74.7963 15.611 74.9681 15.7911C75.14 15.9711 75.4837 16.1511 75.9993 16.3312C76.5231 16.5112 77.3005 16.7322 78.3317 16.9941C79.3874 17.2641 80.2303 17.5751 80.8604 17.927C81.4987 18.2707 81.957 18.684 82.2353 19.1668C82.5217 19.6497 82.6649 20.2348 82.6649 20.9222C82.6649 22.2562 82.178 23.3037 81.2041 24.0648C80.2385 24.8259 78.9004 25.2064 77.19 25.2064Z" fill="white"/>
<path d="M85.5992 24.8381V6.79306H88.5576V24.8381H85.5992Z" fill="white"/>
<path d="M98.262 25.2064C96.9199 25.2064 95.7414 24.9159 94.7266 24.3348C93.7118 23.7538 92.918 22.9477 92.3452 21.9166C91.7805 20.8854 91.4982 19.6988 91.4982 18.3566C91.4982 16.9081 91.7764 15.6519 92.3329 14.588C92.8894 13.516 93.6628 12.6853 94.653 12.0961C95.6432 11.5069 96.7889 11.2123 98.0901 11.2123C99.465 11.2123 100.631 11.5355 101.589 12.182C102.554 12.8204 103.27 13.7247 103.737 14.8949C104.203 16.0652 104.379 17.4442 104.265 19.0318H101.331V17.9516C101.323 16.5112 101.069 15.4596 100.57 14.7967C100.071 14.1338 99.285 13.8024 98.2129 13.8024C97.0017 13.8024 96.1015 14.1789 95.5123 14.9318C94.923 15.6765 94.6284 16.769 94.6284 18.2093C94.6284 19.5515 94.923 20.5908 95.5123 21.3273C96.1015 22.0639 96.9608 22.4321 98.0901 22.4321C98.8185 22.4321 99.4445 22.2726 99.9683 21.9534C100.5 21.626 100.909 21.1555 101.196 20.5417L104.117 21.4255C103.61 22.6204 102.824 23.5492 101.761 24.2121C100.705 24.875 99.5387 25.2064 98.262 25.2064ZM93.6955 19.0318V16.7976H102.816V19.0318H93.6955Z" fill="white"/>
<path d="M107.004 24.8381V7.16133H112.368C112.556 7.16133 112.876 7.16542 113.326 7.1736C113.784 7.18179 114.222 7.21452 114.639 7.27181C115.981 7.46003 117.102 7.95924 118.003 8.76943C118.903 9.57961 119.578 10.6108 120.028 11.8629C120.478 13.115 120.703 14.4939 120.703 15.9997C120.703 17.5055 120.478 18.8845 120.028 20.1366C119.578 21.3887 118.903 22.4199 118.003 23.23C117.102 24.0402 115.981 24.5394 114.639 24.7277C114.23 24.7768 113.792 24.8095 113.326 24.8259C112.859 24.8341 112.54 24.8381 112.368 24.8381H107.004ZM108.87 23.1073H112.368C112.704 23.1073 113.064 23.0991 113.448 23.0827C113.841 23.0582 114.177 23.0173 114.455 22.96C115.486 22.7799 116.317 22.3626 116.947 21.7079C117.585 21.0532 118.052 20.2348 118.346 19.2528C118.641 18.2625 118.788 17.1782 118.788 15.9997C118.788 14.8131 118.641 13.7247 118.346 12.7344C118.052 11.7442 117.585 10.9258 116.947 10.2793C116.309 9.63281 115.478 9.21953 114.455 9.03949C114.177 8.9822 113.837 8.94538 113.436 8.92901C113.043 8.90446 112.687 8.89218 112.368 8.89218H108.87V23.1073Z" fill="white"/>
<path d="M129.109 25.2064C127.816 25.2064 126.695 24.92 125.745 24.3471C124.804 23.7743 124.072 22.9682 123.548 21.9288C123.024 20.8895 122.762 19.6701 122.762 18.2707C122.762 16.8222 123.02 15.5701 123.536 14.5144C124.051 13.4587 124.776 12.6444 125.709 12.0716C126.65 11.4987 127.759 11.2123 129.035 11.2123C130.345 11.2123 131.462 11.5151 132.387 12.1207C133.311 12.7181 134.011 13.5774 134.486 14.6985C134.96 15.8197 135.177 17.1577 135.136 18.7126H133.295V18.0743C133.262 16.3557 132.89 15.0586 132.178 14.183C131.474 13.3073 130.443 12.8695 129.084 12.8695C127.66 12.8695 126.568 13.3318 125.807 14.2566C125.054 15.1814 124.677 16.4989 124.677 18.2093C124.677 19.8788 125.054 21.1759 125.807 22.1007C126.568 23.0173 127.644 23.4756 129.035 23.4756C129.985 23.4756 130.811 23.2587 131.515 22.825C132.227 22.383 132.788 21.7488 133.197 20.9222L134.878 21.5728C134.355 22.7267 133.581 23.6229 132.558 24.2612C131.544 24.8913 130.394 25.2064 129.109 25.2064ZM124.039 18.7126V17.2027H134.166V18.7126H124.039Z" fill="white"/>
<path d="M142.808 25.1941C141.253 25.1941 139.972 24.8586 138.965 24.1875C137.967 23.5165 137.353 22.5835 137.124 21.3887L138.965 21.0818C139.162 21.8347 139.608 22.4362 140.303 22.8863C141.007 23.3282 141.875 23.5492 142.906 23.5492C143.912 23.5492 144.706 23.3405 145.287 22.9232C145.868 22.4976 146.159 21.9207 146.159 21.1923C146.159 20.7831 146.065 20.4517 145.876 20.198C145.696 19.9361 145.324 19.6947 144.759 19.4737C144.195 19.2528 143.352 18.9909 142.231 18.6881C141.028 18.3607 140.086 18.0334 139.407 17.706C138.728 17.3787 138.245 17.0022 137.959 16.5767C137.672 16.143 137.529 15.6151 137.529 14.9931C137.529 14.2402 137.742 13.5814 138.167 13.0168C138.593 12.4439 139.182 12.002 139.935 11.691C140.688 11.3718 141.564 11.2123 142.562 11.2123C143.56 11.2123 144.452 11.3759 145.238 11.7033C146.032 12.0225 146.67 12.4726 147.153 13.0536C147.636 13.6346 147.922 14.3098 148.012 15.0791L146.171 15.4105C146.048 14.6331 145.66 14.0193 145.005 13.5692C144.358 13.1109 143.536 12.8736 142.537 12.8572C141.596 12.8326 140.831 13.0127 140.242 13.3973C139.653 13.7738 139.358 14.2771 139.358 14.9072C139.358 15.2591 139.464 15.5619 139.677 15.8156C139.89 16.0611 140.275 16.2943 140.831 16.5153C141.396 16.7363 142.198 16.9777 143.237 17.2396C144.457 17.5505 145.414 17.8779 146.11 18.2216C146.805 18.5653 147.3 18.9704 147.595 19.4369C147.89 19.9034 148.037 20.4803 148.037 21.1677C148.037 22.4199 147.57 23.406 146.638 24.1262C145.713 24.8381 144.436 25.1941 142.808 25.1941Z" fill="white"/>
<path d="M151.005 9.06404V7.03857H152.809V9.06404H151.005ZM151.005 24.8381V11.5805H152.809V24.8381H151.005Z" fill="white"/>
<path d="M161.756 31.0987C161.077 31.0987 160.406 30.9964 159.743 30.7918C159.088 30.5954 158.482 30.2803 157.926 29.8466C157.369 29.421 156.903 28.8645 156.526 28.1771L158.159 27.2687C158.527 28.0052 159.043 28.5331 159.706 28.8523C160.377 29.1796 161.06 29.3433 161.756 29.3433C162.713 29.3433 163.487 29.1632 164.076 28.8032C164.673 28.4513 165.107 27.9275 165.377 27.2319C165.647 26.5363 165.778 25.6688 165.77 24.6295V21.0941H165.979V11.5805H167.587V24.654C167.587 25.0305 167.574 25.3905 167.55 25.7343C167.534 26.0862 167.497 26.4299 167.439 26.7654C167.284 27.7556 166.961 28.5699 166.47 29.2082C165.987 29.8466 165.348 30.3212 164.555 30.6322C163.769 30.9432 162.836 31.0987 161.756 31.0987ZM161.633 25.2064C160.397 25.2064 159.342 24.8995 158.466 24.2857C157.59 23.6638 156.919 22.825 156.453 21.7693C155.986 20.7136 155.753 19.5228 155.753 18.1971C155.753 16.8795 155.982 15.6928 156.44 14.6371C156.907 13.5814 157.574 12.7467 158.441 12.1329C159.309 11.5192 160.348 11.2123 161.559 11.2123C162.803 11.2123 163.851 11.5151 164.702 12.1207C165.553 12.7263 166.195 13.5569 166.629 14.6126C167.071 15.6601 167.292 16.8549 167.292 18.1971C167.292 19.5146 167.075 20.7054 166.642 21.7693C166.208 22.825 165.569 23.6638 164.727 24.2857C163.884 24.8995 162.852 25.2064 161.633 25.2064ZM161.817 23.5247C162.758 23.5247 163.536 23.2955 164.15 22.8372C164.763 22.3789 165.222 21.7488 165.524 20.9468C165.827 20.1366 165.979 19.22 165.979 18.1971C165.979 17.1577 165.827 16.2412 165.524 15.4473C165.222 14.6453 164.763 14.0193 164.15 13.5692C163.544 13.1191 162.779 12.894 161.854 12.894C160.905 12.894 160.119 13.1273 159.497 13.5937C158.875 14.0602 158.413 14.6944 158.11 15.4964C157.815 16.2984 157.668 17.1986 157.668 18.1971C157.668 19.2037 157.819 20.1121 158.122 20.9222C158.433 21.7242 158.896 22.3585 159.509 22.825C160.123 23.2914 160.892 23.5247 161.817 23.5247Z" fill="white"/>
<path d="M180.594 24.8381V18.0743C180.594 17.3378 180.524 16.6626 180.385 16.0488C180.246 15.4269 180.021 14.8868 179.71 14.4285C179.407 13.962 179.01 13.6019 178.519 13.3482C178.036 13.0945 177.447 12.9677 176.752 12.9677C176.113 12.9677 175.549 13.0782 175.058 13.2991C174.575 13.5201 174.166 13.8392 173.83 14.2566C173.503 14.6658 173.253 15.165 173.081 15.7542C172.909 16.3435 172.823 17.0145 172.823 17.7674L171.547 17.4851C171.547 16.1266 171.784 14.985 172.259 14.0602C172.733 13.1354 173.388 12.4357 174.223 11.9611C175.058 11.4864 176.015 11.2491 177.095 11.2491C177.889 11.2491 178.581 11.3718 179.17 11.6174C179.767 11.8629 180.271 12.1943 180.68 12.6117C181.097 13.029 181.433 13.5078 181.686 14.0479C181.94 14.5799 182.124 15.1486 182.239 15.7542C182.353 16.3516 182.411 16.949 182.411 17.5465V24.8381H180.594ZM171.007 24.8381V11.5805H172.639V14.8458H172.823V24.8381H171.007Z" fill="white"/>
<path d="M190.543 25.1941C188.988 25.1941 187.708 24.8586 186.701 24.1875C185.703 23.5165 185.089 22.5835 184.86 21.3887L186.701 21.0818C186.897 21.8347 187.343 22.4362 188.039 22.8863C188.743 23.3282 189.61 23.5492 190.641 23.5492C191.648 23.5492 192.442 23.3405 193.023 22.9232C193.604 22.4976 193.894 21.9207 193.894 21.1923C193.894 20.7831 193.8 20.4517 193.612 20.198C193.432 19.9361 193.06 19.6947 192.495 19.4737C191.93 19.2528 191.087 18.9909 189.966 18.6881C188.763 18.3607 187.822 18.0334 187.143 17.706C186.464 17.3787 185.981 17.0022 185.694 16.5767C185.408 16.143 185.265 15.6151 185.265 14.9931C185.265 14.2402 185.477 13.5814 185.903 13.0168C186.329 12.4439 186.918 12.002 187.671 11.691C188.424 11.3718 189.299 11.2123 190.298 11.2123C191.296 11.2123 192.188 11.3759 192.974 11.7033C193.768 12.0225 194.406 12.4726 194.889 13.0536C195.372 13.6346 195.658 14.3098 195.748 15.0791L193.907 15.4105C193.784 14.6331 193.395 14.0193 192.74 13.5692C192.094 13.1109 191.272 12.8736 190.273 12.8572C189.332 12.8326 188.567 13.0127 187.978 13.3973C187.388 13.7738 187.094 14.2771 187.094 14.9072C187.094 15.2591 187.2 15.5619 187.413 15.8156C187.626 16.0611 188.01 16.2943 188.567 16.5153C189.131 16.7363 189.933 16.9777 190.973 17.2396C192.192 17.5505 193.15 17.8779 193.845 18.2216C194.541 18.5653 195.036 18.9704 195.331 19.4369C195.625 19.9034 195.773 20.4803 195.773 21.1677C195.773 22.4199 195.306 23.406 194.373 24.1262C193.448 24.8381 192.172 25.1941 190.543 25.1941Z" fill="white"/>
</svg>
