<svg width="48" height="49" viewBox="0 0 48 49" fill="none" xmlns="http://www.w3.org/2000/svg">
<path d="M38 19.8335V31.2323C38.0001 32.3945 37.5554 33.5127 36.7573 34.3574C35.9591 35.2022 34.8679 35.7095 33.7076 35.7753L33.45 35.7823H14.55C13.3878 35.7824 12.2696 35.3377 11.4249 34.5396C10.5801 33.7414 10.0728 32.6502 10.007 31.4899L10 31.2323V19.8335L23.5128 26.9119C23.6631 26.9906 23.8303 27.0318 24 27.0318C24.1697 27.0318 24.3369 26.9906 24.4872 26.9119L38 19.8335Z" fill="#E3E4E6" fill-opacity="0.55"/>
<path d="M14.5499 13.3823H33.4499C34.5777 13.3822 35.6654 13.8009 36.502 14.5573C37.3385 15.3137 37.8644 16.3538 37.9775 17.4759L23.9999 24.7979L10.0223 17.4759C10.1308 16.3984 10.6202 15.3948 11.4024 14.6458C12.1845 13.8967 13.2083 13.4512 14.2895 13.3893L14.5499 13.3823H33.4499H14.5499Z" fill="#E3E4E6" fill-opacity="0.55"/>
</svg>
